<svg width="406" height="60" viewBox="0 0 406 60" fill="none" xmlns="http://www.w3.org/2000/svg">
<g clip-path="url(#clip0_4033_150051)">
<path d="M165.7 59.0039H138.922V23.7693H148.888V51.1012H165.7V59.0039Z" fill="#111111"/>
<path d="M228.954 23.0646C232.277 23.0646 235.246 23.6185 237.864 24.7258C240.481 25.8332 242.646 27.427 244.357 29.5075L238.015 35.2456C236.807 33.937 235.506 32.9555 234.114 32.3012C232.721 31.6468 231.169 31.3195 229.458 31.3195C227.948 31.3195 226.572 31.5545 225.33 32.0243C224.089 32.4941 223.032 33.1736 222.159 34.0629C221.287 34.9521 220.607 36.0091 220.121 37.2339C219.634 38.4587 219.391 39.8429 219.391 41.3865C219.391 42.8629 219.634 44.222 220.121 45.4636C220.607 46.7052 221.287 47.7708 222.159 48.6601C223.032 49.5493 224.08 50.2372 225.305 50.7238C226.53 51.2103 227.881 51.4535 229.357 51.4535C230.833 51.4535 232.277 51.2104 233.686 50.7238C234.037 50.6025 234.39 50.4594 234.743 50.2953V40.6317H243.552V55.2286L243.362 55.363C241.392 56.7405 239.123 57.8033 236.555 58.551C233.904 59.3227 231.303 59.7086 228.753 59.7086C225.968 59.7086 223.384 59.2638 221.001 58.3745C218.619 57.4853 216.564 56.2185 214.835 54.5743C213.107 52.93 211.757 50.9921 210.783 48.7606C209.81 46.5291 209.324 44.071 209.324 41.3865C209.324 38.702 209.81 36.2441 210.783 34.0126C211.757 31.7811 213.116 29.8432 214.861 28.1989C216.605 26.5546 218.678 25.2876 221.077 24.3984C223.476 23.5092 226.102 23.0646 228.954 23.0646Z" fill="#111111"/>
<path d="M278.182 23.0646C280.498 23.0646 282.771 23.3247 285.002 23.8448C287.234 24.365 289.222 25.1285 290.967 26.1352L287.897 33.5344C286.219 32.6284 284.558 31.9489 282.914 31.4959C281.269 31.0429 279.675 30.8162 278.132 30.8162C276.756 30.8162 275.648 30.9589 274.81 31.2441C273.971 31.5293 273.367 31.9068 272.998 32.3766C272.629 32.8463 272.444 33.3833 272.444 33.9872C272.444 34.759 272.805 35.3715 273.526 35.8245C274.247 36.2775 275.204 36.6467 276.395 36.9319C277.586 37.2171 278.895 37.5109 280.321 37.8129C281.747 38.1149 283.174 38.4923 284.6 38.9454C286.026 39.3984 287.326 40.0023 288.501 40.7573C289.675 41.5123 290.623 42.5023 291.345 43.7271C292.066 44.9519 292.427 46.4873 292.427 48.3329C292.427 50.3799 291.848 52.2675 290.69 53.9956C289.533 55.7237 287.804 57.1079 285.506 58.1482C283.207 59.1884 280.313 59.7086 276.823 59.7086C273.937 59.7086 271.16 59.3478 268.493 58.6263C265.825 57.9049 263.652 56.9736 261.974 55.8327L265.246 48.4839C266.823 49.4906 268.644 50.321 270.707 50.9753C272.771 51.6296 274.826 51.957 276.873 51.957C278.249 51.957 279.357 51.831 280.196 51.5794C281.034 51.3277 281.647 50.9922 282.033 50.5728C282.419 50.1533 282.612 49.6582 282.612 49.0877C282.612 48.2824 282.242 47.6448 281.504 47.1751C280.766 46.7053 279.81 46.3194 278.635 46.0174C277.461 45.7154 276.16 45.4134 274.734 45.1113C273.308 44.8093 271.882 44.4235 270.456 43.9537C269.03 43.4839 267.729 42.8714 266.555 42.1164C265.38 41.3614 264.424 40.3714 263.686 39.1466C262.947 37.9218 262.578 36.3699 262.578 34.4908C262.578 32.3767 263.157 30.4638 264.315 28.7525C265.473 27.0411 267.209 25.6653 269.525 24.625C271.84 23.5848 274.726 23.0646 278.182 23.0646Z" fill="#111111"/>
<path d="M359.826 23.0646C363.081 23.0646 365.992 23.6352 368.559 24.7761C371.126 25.917 373.265 27.5612 374.976 29.7088L368.634 35.4471C367.493 34.1049 366.243 33.0813 364.884 32.3766C363.525 31.6719 362.007 31.3195 360.329 31.3195C358.886 31.3195 357.561 31.5545 356.352 32.0243C355.144 32.4941 354.113 33.1736 353.257 34.0629C352.401 34.9521 351.73 36.0175 351.243 37.2591C350.757 38.5006 350.514 39.8765 350.514 41.3865C350.514 42.8965 350.757 44.2725 351.243 45.5141C351.73 46.7557 352.401 47.8211 353.257 48.7103C354.113 49.5996 355.144 50.2791 356.352 50.7489C357.561 51.2187 358.886 51.4535 360.329 51.4535C362.007 51.4535 363.525 51.1013 364.884 50.3966C366.243 49.6919 367.493 48.6683 368.634 47.3261L374.976 53.0644C373.265 55.1784 371.126 56.8143 368.559 57.972C365.992 59.1297 363.081 59.7086 359.826 59.7086C357.04 59.7086 354.465 59.2638 352.099 58.3745C349.733 57.4853 347.687 56.2186 345.958 54.5743C344.23 52.93 342.879 50.9921 341.906 48.7606C340.933 46.5291 340.447 44.071 340.447 41.3865C340.447 38.702 340.933 36.2441 341.906 34.0126C342.879 31.7811 344.23 29.8432 345.958 28.1989C347.687 26.5546 349.733 25.2876 352.099 24.3984C354.465 23.5092 357.04 23.0646 359.826 23.0646Z" fill="#111111"/>
<path d="M391.486 23.0646C393.802 23.0646 396.075 23.3247 398.307 23.8448C400.538 24.365 402.526 25.1285 404.271 26.1352L401.201 33.5344C399.523 32.6284 397.862 31.9489 396.218 31.4959C394.573 31.0429 392.98 30.8162 391.436 30.8162C390.06 30.8162 388.953 30.9589 388.114 31.2441C387.275 31.5293 386.671 31.9068 386.302 32.3766C385.933 32.8463 385.748 33.3833 385.748 33.9872C385.748 34.759 386.109 35.3715 386.83 35.8245C387.552 36.2776 388.508 36.6467 389.699 36.9319C390.891 37.2171 392.199 37.5109 393.626 37.8129C395.052 38.1149 396.478 38.4924 397.904 38.9454C399.33 39.3984 400.631 40.0023 401.805 40.7573C402.98 41.5123 403.928 42.5023 404.649 43.7271C405.37 44.9519 405.731 46.4873 405.731 48.3329C405.731 50.3799 405.152 52.2675 403.995 53.9956C402.837 55.7238 401.109 57.1079 398.81 58.1482C396.512 59.1884 393.617 59.7086 390.127 59.7086C387.241 59.7086 384.464 59.3478 381.797 58.6263C379.129 57.9049 376.956 56.9736 375.278 55.8327L378.55 48.4839L378.849 48.6705C380.356 49.5936 382.077 50.3618 384.012 50.9753C386.075 51.6296 388.131 51.957 390.178 51.957C391.553 51.957 392.661 51.831 393.5 51.5794C394.339 51.3277 394.951 50.9922 395.337 50.5728C395.723 50.1533 395.916 49.6582 395.916 49.0877C395.916 48.2824 395.547 47.6448 394.808 47.1751C394.07 46.7053 393.114 46.3194 391.939 46.0174C390.765 45.7154 389.464 45.4134 388.038 45.1113C386.612 44.8093 385.186 44.4235 383.76 43.9537C382.334 43.4839 381.033 42.8714 379.859 42.1164C378.684 41.3614 377.728 40.3714 376.99 39.1466C376.252 37.9218 375.882 36.3699 375.882 34.4908C375.882 32.3767 376.461 30.4638 377.619 28.7525C378.777 27.0411 380.513 25.6653 382.829 24.625C385.144 23.5848 388.03 23.0646 391.486 23.0646Z" fill="#111111"/>
<path d="M258.602 59.0037H248.635V23.7692H258.602V59.0037Z" fill="#111111"/>
<path d="M323.987 23.7692V31.672H313.215V59.0037H303.249V31.672H292.427V23.7692H323.987Z" fill="#111111"/>
<path d="M336.42 59.0037H326.453V23.7692H336.42V59.0037Z" fill="#111111"/>
<path fill-rule="evenodd" clip-rule="evenodd" d="M296.141 0.366318C297.598 0.366318 298.932 0.598484 300.14 1.06268C301.349 1.52501 302.4 2.18017 303.291 3.02835C304.184 3.87845 304.883 4.86955 305.388 6.00116C305.893 7.13274 306.146 8.37622 306.146 9.7315C306.146 11.0868 305.893 12.3349 305.388 13.4758C304.883 14.6148 304.184 15.6048 303.291 16.4456C302.4 17.2863 301.349 17.938 300.14 18.4003C298.932 18.8645 297.598 19.0967 296.141 19.0967C294.7 19.0967 293.37 18.8645 292.153 18.4003C290.934 17.938 289.874 17.2826 288.973 16.4344C288.073 15.5843 287.375 14.5934 286.879 13.4618C286.381 12.3303 286.132 11.0868 286.132 9.7315C286.132 8.37624 286.381 7.13273 286.879 6.00116C287.375 4.86955 288.073 3.87845 288.973 3.02835C289.874 2.18014 290.934 1.52501 292.153 1.06268C293.37 0.598493 294.699 0.366327 296.141 0.366318ZM296.141 4.58603C295.455 4.58604 294.815 4.70632 294.222 4.94677C293.631 5.18726 293.117 5.53396 292.679 5.98696C292.242 6.44184 291.899 6.98269 291.65 7.60908C291.402 8.23546 291.278 8.94295 291.278 9.7315C291.278 10.5033 291.402 11.2062 291.65 11.84C291.899 12.4756 292.242 13.0209 292.679 13.4758C293.117 13.9288 293.631 14.2755 294.222 14.516C294.815 14.7564 295.455 14.8767 296.141 14.8767C296.827 14.8767 297.465 14.7564 298.056 14.516C298.647 14.2755 299.162 13.9288 299.6 13.4758C300.038 13.0209 300.381 12.4757 300.629 11.84C300.877 11.2062 301.001 10.5033 301.001 9.7315C301.001 8.94297 300.877 8.23544 300.629 7.60908C300.381 6.98269 300.038 6.44184 299.6 5.98696C299.162 5.534 298.647 5.18725 298.056 4.94677C297.465 4.70628 296.827 4.58603 296.141 4.58603Z" fill="#111111"/>
<path d="M144.017 18.7359H138.922V0.727063H144.017V18.7359Z" fill="#111111"/>
<path d="M151.839 0.727063L159.789 10.3249V0.727063H164.777V18.7359H160.585L152.635 9.13781V18.7359H147.644V0.727063H151.839Z" fill="#111111"/>
<path d="M182.814 0.727063V4.76517H177.308V18.7359H172.213V4.76517H166.682V0.727063H182.814Z" fill="#111111"/>
<path d="M198.84 0.727063V4.6644H189.76V7.69838H197.761V11.5071H189.76V14.7986H199.176V18.7359H184.716V0.727063H198.84Z" fill="#111111"/>
<path fill-rule="evenodd" clip-rule="evenodd" d="M210.056 0.727063C212.681 0.727063 214.701 1.32264 216.116 2.51386C217.531 3.70699 218.239 5.33274 218.239 7.39089C218.239 8.74618 217.912 9.91685 217.26 10.903C216.649 11.8292 215.799 12.5505 214.709 13.0672L218.599 18.7359H213.144L209.88 13.9512H207.098V18.7359H202.006V0.727063H210.056ZM207.098 10.0139H209.928C210.992 10.0139 211.786 9.78257 212.307 9.32023C212.831 8.85604 213.093 8.213 213.093 7.39089C213.093 6.55011 212.831 5.89848 212.307 5.43614C211.786 4.97198 210.992 4.73978 209.928 4.73978H207.098V10.0139Z" fill="#111111"/>
<path d="M225.235 0.727063L233.185 10.3222V0.727063H238.177V18.7359H233.983L226.035 9.14136V18.7359H221.043V0.727063H225.235Z" fill="#111111"/>
<path fill-rule="evenodd" clip-rule="evenodd" d="M260.559 18.7359H255.26L253.856 15.2374H246.219L244.816 18.7359H239.617L247.567 0.727063H252.584L260.559 18.7359ZM247.726 11.482H252.348L250.037 5.72288L247.726 11.482Z" fill="#111111"/>
<path d="M276.432 0.727063V4.76517H270.928V18.7359H265.833V4.76517H260.302V0.727063H276.432Z" fill="#111111"/>
<path d="M283.431 18.7359H278.336V0.727063H283.431V18.7359Z" fill="#111111"/>
<path d="M320.967 10.3249V0.727063H325.956V18.7359H321.764L313.814 9.13781V18.7359H308.822V0.727063H313.017L320.967 10.3249Z" fill="#111111"/>
<path fill-rule="evenodd" clip-rule="evenodd" d="M348.338 18.7359H343.039L341.635 15.2374H333.998L332.594 18.7359H327.399L335.346 0.727063H340.363L348.338 18.7359ZM335.505 11.482H340.128L337.817 5.71988L335.505 11.482Z" fill="#111111"/>
<path d="M354.873 0.727063V14.6978H363.467V18.7359H349.781V0.727063H354.873Z" fill="#111111"/>
<path d="M12.2733 0.00559998V48.3133H37.2199V59.004H0V0.00559998H12.2733Z" fill="#5E9BA5"/>
<path d="M72.1024 25.5759L90.8325 0.00559998H102.711V59.004H90.4354V20.9856L72.6166 43.9565H71.0338L53.2153 20.1541V59.004H40.942V0.00559998H52.8209L72.1024 25.5759Z" fill="#5E9BA5"/>
<path d="M131.931 39.9967C131.931 43.798 131.112 47.1249 129.476 49.9772C127.841 52.8276 125.505 55.0443 122.468 56.6271C119.433 58.2117 115.856 59.004 111.738 59.004H108.176V47.9162H111.738C114.113 47.9162 116.027 47.2433 117.479 45.8973C118.932 44.5513 119.658 42.7699 119.658 40.5533V0.00559998H131.931V39.9967Z" fill="#5E9BA5"/>
<path d="M188.875 27.7693C189.168 27.8866 189.989 27.4173 190.165 28.0037C190.34 28.59 190.868 29.3521 191.337 29.5281C191.807 29.704 191.338 30.3493 191.69 30.4666C192.042 30.584 192.686 30.9938 192.686 31.2283C192.686 31.4628 192.393 31.7563 192.276 31.698C191.396 31.4635 190.634 30.5832 190.223 30.114C189.52 29.2937 189.578 29.997 188.406 29.6453C188.113 29.528 187.644 28.6486 187.937 28.1795C188.23 27.7105 188.581 27.6521 188.875 27.7693Z" fill="#D89B2A"/>
<path fill-rule="evenodd" clip-rule="evenodd" d="M187.526 23.7683C197.411 23.7683 205.424 31.781 205.424 41.6658C205.424 51.5508 197.411 59.5642 187.526 59.5642C177.641 59.564 169.628 51.5506 169.628 41.6658C169.629 31.7812 177.641 23.7686 187.526 23.7683ZM179.044 41.9744C179.085 46.6708 180.052 50.9009 181.584 53.9656C182.794 56.3844 184.324 58.0237 185.987 58.6551C186.396 58.6916 186.806 58.7131 187.217 58.7205V43.908C187.077 43.8512 186.954 43.8177 186.881 43.8357C185.826 43.953 184.712 42.9564 184.008 42.2527C183.918 42.1624 183.84 42.0686 183.768 41.9744H179.044ZM187.834 58.7205C188.246 58.7132 188.656 58.6916 189.064 58.6551C189.684 58.4198 190.285 58.0447 190.859 57.5408C190.628 57.3753 190.429 57.1454 190.341 56.8543C190.107 56.1506 190.283 55.6223 190.517 55.0359C190.693 54.5669 190.458 53.9806 190.576 53.4529C190.81 52.456 191.162 51.3414 191.044 50.2859C190.986 49.6412 190.81 49.582 190.341 49.2303C189.814 48.8198 189.813 48.2922 189.461 47.7644C189.169 47.295 189.989 45.536 189.754 45.4187C189.461 45.3016 188.875 45.4188 188.699 45.1844C188.464 44.8914 188.347 44.5985 188.054 44.364C188.011 44.3352 187.932 44.2847 187.834 44.2263V58.7205ZM196.626 41.9744C196.611 43.7724 196.461 45.5069 196.197 47.1404C196.369 47.1824 196.502 47.228 196.556 47.2957C197.26 48.1753 197.084 47.7059 196.556 48.8787C196.322 49.4651 196.557 50.1694 195.912 50.5799C195.743 50.7145 195.555 50.733 195.371 50.7801C194.993 52.0417 194.541 53.2046 194.022 54.242C193.392 55.5016 192.658 56.5897 191.842 57.449C192.158 57.8006 191.876 57.9169 191.47 57.8201C191.237 58.0388 190.999 58.239 190.754 58.4197C191.266 58.3224 191.773 58.2016 192.274 58.0584C198.132 55.8046 202.407 49.4971 202.521 41.9744H196.626ZM172.531 41.9744C172.645 49.4964 176.918 55.8041 182.776 58.0584C183.277 58.2016 183.784 58.3214 184.295 58.4187C183.038 57.4886 181.93 56.0387 181.032 54.242C179.449 51.0757 178.468 46.7473 178.427 41.9744H172.531ZM194.12 52.5008C193.363 53.2746 192.11 54.4796 191.983 54.8601C191.924 55.1533 191.221 55.3883 191.807 55.6228C192.105 55.6732 191.349 56.4837 191.438 56.9783C192.179 56.1871 192.865 55.174 193.469 53.9656C193.7 53.5035 193.915 53.0135 194.12 52.5008ZM170.25 41.9744C170.282 43.8028 170.596 45.5621 171.154 47.2097C171.207 47.2452 171.25 47.2965 171.274 47.3611C172.025 49.4419 173.166 51.3469 174.621 52.9812C174.661 52.998 174.698 53.0233 174.729 53.0574C175.713 54.1421 176.83 55.094 178.048 55.8933C174.377 52.6741 171.997 47.6332 171.914 41.9744H170.25ZM203.139 41.9744C203.055 47.6333 200.674 52.6731 197.002 55.8924C198.221 55.0929 199.338 54.1423 200.323 53.0574C200.354 53.0226 200.392 52.9971 200.433 52.9803C201.888 51.3461 203.027 49.4415 203.779 47.3611C203.802 47.2975 203.844 47.2461 203.896 47.2107C204.454 45.5626 204.77 43.8033 204.802 41.9744H203.139ZM187.834 42.825C188.076 42.5102 188.193 43.8035 188.131 43.8513C188.306 43.9799 189.215 43.6264 188.933 44.2469C188.816 44.5404 189.051 45.243 189.461 45.0086C189.637 44.9501 190.106 45.1844 190.165 45.0672C190.223 44.8913 190.4 44.7743 190.576 44.657C190.986 44.4226 191.572 44.657 192.042 44.657C192.277 44.716 194.562 45.9467 194.563 46.1814C194.594 46.684 195.097 46.8815 195.593 47.0037C195.848 45.4164 195.993 43.7281 196.008 41.9744H189.504C189.526 42.1508 189.524 42.2903 189.461 42.3113C189.409 42.3377 189.261 42.1733 189.098 41.9744H187.834V42.825ZM186.696 41.9744C186.616 42.0892 186.556 42.2192 186.53 42.3699C186.453 42.7903 186.85 43.3573 187.217 43.4597V41.9744H186.696ZM174.729 30.2742C174.698 30.3084 174.661 30.3334 174.621 30.3504C173.165 31.985 172.026 33.8903 171.274 35.9715C171.251 36.036 171.207 36.0865 171.154 36.1219C170.596 37.7695 170.282 39.5288 170.25 41.3572H171.914C171.969 37.6365 173.016 34.1829 174.771 31.3387C174.707 31.2825 174.671 31.2417 174.684 31.2283C174.721 31.2034 174.783 31.2018 174.854 31.2068C174.97 31.0221 175.088 30.8393 175.21 30.6599C175.112 30.495 175.012 30.3256 174.977 30.114C174.97 30.0793 174.969 30.0461 174.97 30.0144C174.889 30.1003 174.808 30.1866 174.729 30.2742ZM174.545 32.9998C173.305 35.4603 172.577 38.3094 172.531 41.3572H178.427C178.45 38.6691 178.77 36.1223 179.33 33.8445C179.033 33.6405 178.671 33.5154 178.203 33.5154C177.264 33.5154 177.323 35.4499 176.62 35.2156C175.799 34.9224 174.567 36.33 174.567 36.1541C174.684 35.1576 175.681 34.6885 175.798 34.3953C176.075 33.51 174.524 33.6687 174.545 32.9998ZM179.846 34.3445C179.351 36.4786 179.066 38.8512 179.044 41.3572H183.379C183.265 41.15 183.152 40.9393 183.011 40.7283C182.718 40.2592 182.307 40.259 182.073 39.6726C181.838 39.0862 181.956 38.3235 181.897 37.6785C181.838 36.9751 181.486 36.7989 181.076 36.2713C180.6 35.6686 180.294 34.9126 179.846 34.3445ZM187.834 30.1785C188.6 30.5602 189.986 28.837 189.52 30.8767C189.296 31.9949 188.561 32.2944 187.834 32.7898V34.4685C188.344 34.7406 188.906 35.0097 188.933 35.3924C189.109 37.8545 190.399 35.2163 190.047 34.3367C189.402 32.6362 190.81 33.1054 191.396 34.1609C191.689 34.7469 191.924 34.2783 192.334 34.0437C192.628 33.8678 192.746 34.7466 192.804 34.9226C192.98 35.4503 193.742 35.6264 193.625 36.2713C193.507 37.0336 192.979 36.7995 192.452 36.9168C191.866 37.0927 192.509 37.561 192.452 37.7371C192.393 37.9716 191.689 38.0309 191.513 38.1482C190.986 38.5001 191.279 39.0865 190.869 39.4383C190.576 39.6727 190.282 39.5553 190.223 39.9656C190.165 40.4933 189.227 40.6694 189.344 41.1385C189.344 41.1673 189.362 41.2492 189.386 41.3572H196.008C195.968 36.6611 195.001 32.4316 193.469 29.367C192.26 26.9475 190.728 25.3069 189.064 24.6756C188.656 24.6391 188.246 24.6175 187.834 24.6101V30.1785ZM190.754 24.9109C192.013 25.841 193.123 27.2924 194.022 29.0906C195.605 32.2567 196.586 36.5847 196.626 41.3572H202.521C202.407 33.8379 198.136 27.5315 192.282 25.2752C191.778 25.131 191.269 25.0087 190.754 24.9109ZM197.001 27.4373C200.674 30.6562 203.055 35.6976 203.139 41.3572H204.802C204.77 39.5287 204.455 37.7696 203.897 36.1219C203.845 36.0866 203.802 36.0354 203.779 35.9715C203.027 33.8907 201.888 31.9858 200.433 30.3513C200.392 30.3344 200.354 30.309 200.323 30.2742C199.338 29.1889 198.221 28.2369 197.001 27.4373ZM187.174 33.3396C186.914 33.6371 186.991 33.8688 187.217 34.074V33.2967C187.203 33.3111 187.188 33.3248 187.174 33.3396ZM175.263 31.7137C175.077 32.0169 174.899 32.327 174.73 32.6443C175.065 32.3483 175.753 32.1215 175.564 31.9324C175.543 31.9113 175.415 31.8223 175.263 31.7137ZM187.217 24.6101C186.806 24.6175 186.396 24.6391 185.988 24.6756C184.324 25.3069 182.794 26.9476 181.584 29.367C181.502 29.5325 181.421 29.7016 181.341 29.8738C182.268 29.744 184.337 30.1857 184.653 30.8181C184.887 31.1699 185.591 30.5839 185.884 30.5252C186.236 30.4665 186.881 30.9353 187.116 30.6424C187.159 30.5796 187.191 30.5189 187.217 30.4627V24.6101ZM184.296 24.9109C183.782 25.0088 183.273 25.131 182.769 25.2752C180.561 26.1264 178.578 27.5536 176.958 29.4051C177.307 29.4101 177.601 29.4362 177.734 29.4695C178.96 29.7251 179.519 30.291 180.574 30.0828C180.721 29.7411 180.872 29.4095 181.032 29.0906C181.931 27.2929 183.038 25.841 184.296 24.9109ZM178.051 27.4363C177.087 28.0686 176.186 28.7955 175.365 29.6092C175.571 29.5256 175.839 29.4706 176.122 29.4392C176.715 28.7123 177.36 28.0421 178.051 27.4363Z" fill="#D89B2A"/>
</g>
<defs>
<clipPath id="clip0_4033_150051">
<rect width="405.756" height="59.8428" fill="white"/>
</clipPath>
</defs>
</svg>
