<svg width="1451" height="222" viewBox="0 0 1451 222" fill="none" xmlns="http://www.w3.org/2000/svg">
<g clip-path="url(#clip0_505_51899)">
<path d="M592.55 211H496.79V85H532.43V182.74H592.55V211Z" fill="#111111"/>
<path d="M43.8896 0.0200195V172.77H133.1V211H0V0.0200195H43.8896Z" fill="#1FA8AE"/>
<path d="M257.841 91.4604L324.82 0.0200195H367.3V211H323.4V75.0454L259.68 157.19H254.02L190.3 72.0718V211H146.41V0.0200195H188.89L257.841 91.4604Z" fill="#1FA8AE"/>
<path d="M471.79 143.03C471.79 156.623 468.863 168.52 463.01 178.72C457.163 188.913 448.81 196.841 437.95 202.5C427.097 208.167 414.307 211 399.58 211H386.84V171.35H399.58C408.073 171.35 414.917 168.944 420.11 164.13C425.304 159.317 427.9 152.947 427.9 145.02V0.0200195H471.79V143.03Z" fill="#1FA8AE"/>
<path d="M1059.01 1.31006C1064.22 1.31006 1068.99 2.14029 1073.31 3.80029C1077.64 5.45358 1081.39 7.79646 1084.58 10.8296C1087.77 13.8696 1090.27 17.4138 1092.08 21.4604C1093.89 25.507 1094.79 29.9538 1094.79 34.8003C1094.79 39.6468 1093.89 44.11 1092.08 48.1899C1090.27 52.2633 1087.77 55.8034 1084.58 58.8101C1081.39 61.8167 1077.64 64.147 1073.31 65.8003C1068.99 67.4603 1064.22 68.2905 1059.01 68.2905C1053.86 68.2905 1049.1 67.4603 1044.75 65.8003C1040.39 64.147 1036.6 61.8034 1033.38 58.77C1030.16 55.73 1027.66 52.1868 1025.89 48.1401C1024.11 44.0936 1023.22 39.6468 1023.22 34.8003C1023.22 29.9538 1024.11 25.507 1025.89 21.4604C1027.66 17.4138 1030.16 13.8696 1033.38 10.8296C1036.6 7.79635 1040.39 5.4536 1044.75 3.80029C1049.1 2.14033 1053.86 1.31009 1059.01 1.31006ZM1059.01 16.3999C1056.56 16.3999 1054.27 16.8301 1052.15 17.6899C1050.04 18.5499 1048.2 19.7897 1046.63 21.4097C1045.07 23.0363 1043.84 24.9704 1042.95 27.2104C1042.06 29.4504 1041.62 31.9804 1041.62 34.8003C1041.62 37.5602 1042.06 40.0737 1042.95 42.3403C1043.84 44.6135 1045.07 46.5634 1046.63 48.1899C1048.2 49.8099 1050.04 51.0497 1052.15 51.9097C1054.27 52.7696 1056.56 53.1997 1059.01 53.1997C1061.46 53.1997 1063.75 52.7697 1065.86 51.9097C1067.97 51.0497 1069.81 49.8098 1071.38 48.1899C1072.95 46.5633 1074.17 44.6136 1075.06 42.3403C1075.95 40.0737 1076.39 37.5602 1076.39 34.8003C1076.39 31.9805 1075.95 29.4503 1075.06 27.2104C1074.17 24.9704 1072.95 23.0363 1071.38 21.4097C1069.81 19.7899 1067.97 18.5499 1065.86 17.6899C1063.75 16.8299 1061.46 16.3999 1059.01 16.3999Z" fill="#111111"/>
<path d="M515.01 67.0005H496.79V2.6001H515.01V67.0005Z" fill="#111111"/>
<path d="M542.98 2.6001L571.41 36.9224V2.6001H589.25V67.0005H574.26L545.83 32.6772V67.0005H527.98V2.6001H542.98Z" fill="#111111"/>
<path d="M653.75 2.6001V17.0405H634.061V67.0005H615.84V17.0405H596.061V2.6001H653.75Z" fill="#111111"/>
<path d="M711.061 2.6001V16.6802H678.59V27.5298H707.2V41.1499H678.59V52.9204H712.26V67.0005H660.55V2.6001H711.061Z" fill="#111111"/>
<path d="M751.17 2.6001C760.556 2.6001 767.78 4.72991 772.84 8.98975C777.9 13.2564 780.43 19.0702 780.43 26.4302C780.43 31.2768 779.263 35.4631 776.93 38.9897C774.745 42.3016 771.704 44.8811 767.809 46.729L781.72 67.0005H762.21L750.54 49.8901H740.59V67.0005H722.38V2.6001H751.17ZM740.59 35.8101H750.71C754.517 35.8101 757.353 34.9829 759.22 33.3296C761.093 31.6696 762.03 29.3701 762.03 26.4302C762.03 23.4235 761.093 21.0933 759.22 19.4399C757.353 17.7801 754.516 16.9497 750.71 16.9497H740.59V35.8101Z" fill="#111111"/>
<path d="M805.45 2.6001L833.88 36.9126V2.6001H851.73V67.0005H836.73L808.311 32.6899V67.0005H790.46V2.6001H805.45Z" fill="#111111"/>
<path d="M931.771 67.0005H912.82L907.799 54.4897H880.489L875.47 67.0005H856.88L885.311 2.6001H903.25L931.771 67.0005ZM885.878 41.0601H902.407L894.141 20.4653L885.878 41.0601Z" fill="#111111"/>
<path d="M988.53 2.6001V17.0405H968.85V67.0005H950.63V17.0405H930.85V2.6001H988.53Z" fill="#111111"/>
<path d="M1013.56 67.0005H995.34V2.6001H1013.56V67.0005Z" fill="#111111"/>
<path d="M1147.79 36.9224V2.6001H1165.63V67.0005H1150.64L1122.21 32.6772V67.0005H1104.36V2.6001H1119.36L1147.79 36.9224Z" fill="#111111"/>
<path d="M1245.67 67.0005H1226.72L1221.7 54.4897H1194.39L1189.37 67.0005H1170.79L1199.21 2.6001H1217.15L1245.67 67.0005ZM1199.78 41.0601H1216.31L1208.04 20.4546L1199.78 41.0601Z" fill="#111111"/>
<path d="M1269.04 2.6001V52.5601H1299.77V67.0005H1250.83V2.6001H1269.04Z" fill="#111111"/>
<path d="M676.274 87.7324C677.508 88.2256 680.961 86.2527 681.701 88.7188C682.441 91.1858 684.662 94.3937 686.636 95.1338C688.609 95.874 686.636 98.5877 688.116 99.0811C689.597 99.5747 692.31 101.301 692.31 102.288C692.309 103.275 691.077 104.508 690.583 104.262C686.883 103.275 683.675 99.5742 681.948 97.6006C678.988 94.1468 679.235 97.107 674.301 95.627C673.067 95.1336 671.094 91.4326 672.327 89.459C673.561 87.4856 675.041 87.239 676.274 87.7324Z" fill="#D89B2A"/>
<path d="M670.6 70.9004C712.187 70.9004 745.899 104.613 745.899 146.2C745.899 187.787 712.187 221.5 670.6 221.5C629.013 221.5 595.3 187.787 595.3 146.2C595.3 104.613 629.013 70.9004 670.6 70.9004ZM634.907 147.5C635.079 167.258 639.153 185.051 645.6 197.944C650.687 208.119 657.123 215.023 664.118 217.681C665.839 217.835 667.567 217.927 669.3 217.958V155.627C668.709 155.388 668.191 155.252 667.886 155.328C663.445 155.821 658.758 151.627 655.798 148.667C655.417 148.287 655.083 147.897 654.78 147.5H634.907ZM671.899 217.958C673.631 217.927 675.359 217.835 677.079 217.681C679.687 216.69 682.217 215.109 684.628 212.989C683.654 212.292 682.81 211.324 682.441 210.096C681.455 207.135 682.195 204.915 683.182 202.448C683.922 200.475 682.935 198.007 683.429 195.787C684.416 191.593 685.896 186.905 685.402 182.465C685.156 179.751 684.415 179.505 682.441 178.024C680.221 176.298 680.221 174.078 678.741 171.857C677.508 169.884 680.961 162.483 679.975 161.989C678.741 161.496 676.274 161.989 675.534 161.002C674.547 159.769 674.054 158.536 672.82 157.549C672.639 157.428 672.309 157.217 671.899 156.973V217.958ZM708.892 147.5C708.827 155.064 708.199 162.361 707.086 169.232C707.809 169.409 708.364 169.599 708.592 169.884C711.552 173.584 710.812 171.611 708.592 176.544C707.605 179.011 708.591 181.971 705.878 183.698C705.171 184.264 704.383 184.343 703.607 184.54C702.017 189.85 700.109 194.742 697.926 199.107C695.276 204.407 692.193 208.989 688.764 212.604C690.083 214.079 688.896 214.578 687.19 214.171C686.213 215.089 685.21 215.931 684.184 216.689C686.341 216.279 688.48 215.77 690.593 215.166C715.231 205.679 733.208 179.141 733.688 147.5H708.892ZM607.51 147.5C607.99 179.138 625.964 205.675 650.599 215.164C652.714 215.769 654.855 216.278 657.015 216.688C651.72 212.775 647.055 206.671 643.273 199.107C636.613 185.787 632.479 167.579 632.308 147.5H607.51ZM698.349 191.778C695.168 195.034 689.883 200.106 689.349 201.708C689.102 202.941 686.143 203.928 688.609 204.915C689.869 205.126 686.655 208.558 687.048 210.638C690.17 207.307 693.054 203.036 695.6 197.944C696.573 195.998 697.489 193.938 698.349 191.778ZM736.288 147.5C735.936 171.31 725.915 192.519 710.468 206.062C715.597 202.699 720.294 198.692 724.438 194.126C724.57 193.98 724.73 193.872 724.901 193.801C731.022 186.925 735.816 178.912 738.978 170.159C739.075 169.888 739.255 169.669 739.478 169.521C741.823 162.59 743.152 155.191 743.287 147.5H736.288ZM597.912 147.5C598.047 155.19 599.374 162.589 601.72 169.519C601.944 169.667 602.124 169.887 602.223 170.159C605.384 178.912 610.179 186.925 616.299 193.8C616.47 193.871 616.63 193.979 616.763 194.126C620.903 198.689 625.597 202.694 630.723 206.057C615.279 192.513 605.263 171.306 604.91 147.5H597.912ZM671.899 151.065C672.92 149.757 673.42 155.296 673.144 155.403C673.885 155.937 677.705 154.449 676.521 157.055C676.027 158.288 677.014 161.249 678.741 160.262C679.482 160.015 681.455 161.002 681.701 160.509C681.948 159.769 682.689 159.276 683.429 158.782C685.156 157.796 687.622 158.782 689.596 158.782C690.583 159.029 700.204 164.209 700.204 165.196C700.336 167.313 702.455 168.149 704.544 168.663C705.618 161.985 706.228 154.88 706.292 147.5H678.925C679.016 148.241 679.004 148.826 678.741 148.914C678.519 149.025 677.9 148.335 677.216 147.5H671.899V151.065ZM667.087 147.5C666.756 147.98 666.517 148.532 666.406 149.161C666.085 150.931 667.756 153.328 669.3 153.757V147.5H667.087ZM617.771 97.1865C617.432 97.5456 617.095 97.9072 616.763 98.2734C616.629 98.4202 616.47 98.5275 616.298 98.5986C610.177 105.474 605.383 113.488 602.222 122.241C602.124 122.513 601.944 122.73 601.721 122.879C599.375 129.81 598.047 137.209 597.912 144.9H604.91C605.142 129.247 609.551 114.717 616.936 102.751C616.668 102.516 616.517 102.345 616.572 102.288C616.729 102.184 616.985 102.169 617.285 102.19C617.773 101.415 618.273 100.65 618.786 99.8965C618.371 99.2022 617.954 98.4907 617.806 97.6006C617.775 97.4562 617.765 97.3182 617.771 97.1865ZM615.989 109.746C610.77 120.097 607.704 132.08 607.51 144.9H632.308C632.404 133.59 633.758 122.875 636.113 113.291C634.866 112.434 633.345 111.909 631.375 111.909C627.428 111.909 627.674 120.05 624.714 119.063C621.26 117.83 616.08 123.749 616.079 123.011C616.573 118.817 620.766 116.843 621.26 115.609C622.423 111.888 615.911 112.552 615.989 109.746ZM638.287 115.386C636.204 124.367 634.999 134.353 634.907 144.9H653.153C652.672 144.028 652.196 143.141 651.604 142.253C650.37 140.28 648.644 140.279 647.657 137.812C646.67 135.346 647.164 132.138 646.917 129.425C646.67 126.464 645.19 125.724 643.463 123.504C641.459 120.965 640.176 117.777 638.287 115.386ZM671.899 97.8789C675.121 99.4732 680.948 92.2312 678.987 100.808C678.047 105.51 674.955 106.77 671.899 108.854V115.921C674.043 117.065 676.406 118.195 676.521 119.804C677.261 130.164 682.688 119.064 681.208 115.363C678.494 108.209 684.415 110.182 686.882 114.623C688.115 117.09 689.102 115.116 690.829 114.129C692.063 113.389 692.556 117.09 692.803 117.83C693.543 120.05 696.75 120.79 696.257 123.504C695.763 126.711 693.543 125.724 691.322 126.218C688.856 126.958 691.569 128.932 691.322 129.672C691.075 130.658 688.115 130.905 687.375 131.398C685.155 132.879 686.389 135.346 684.662 136.826C683.429 137.813 682.195 137.319 681.948 139.046C681.702 141.266 677.755 142.007 678.248 143.98C678.248 144.102 678.323 144.446 678.424 144.9H706.292C706.12 125.143 702.046 107.349 695.6 94.4561C690.512 84.2802 684.076 77.3762 677.079 74.7188C675.359 74.5648 673.631 74.4724 671.899 74.4414V97.8789ZM684.184 75.71C689.479 79.6235 694.144 85.7287 697.926 93.293C704.586 106.613 708.72 124.821 708.892 144.9H733.688C733.208 113.261 715.234 86.7237 690.598 77.2354C688.483 76.6303 686.343 76.1207 684.184 75.71ZM710.468 86.3369C725.916 99.8799 735.936 121.091 736.288 144.9H743.287C743.152 137.209 741.824 129.81 739.478 122.879C739.255 122.73 739.076 122.512 738.978 122.241C735.816 113.487 731.02 105.474 724.899 98.5986C724.729 98.5275 724.57 98.4194 724.438 98.2734C720.294 93.7076 715.597 89.7005 710.468 86.3369ZM669.12 111.169C668.025 112.421 668.345 113.398 669.3 114.262V110.983C669.24 111.045 669.179 111.106 669.12 111.169ZM619.012 104.324C618.229 105.601 617.481 106.907 616.77 108.243C618.18 106.999 621.068 106.043 620.273 105.248C620.185 105.159 619.65 104.781 619.012 104.324ZM669.3 74.4414C667.567 74.4724 665.839 74.5647 664.118 74.7188C657.122 77.3767 650.687 84.2811 645.6 94.4561C645.252 95.1507 644.913 95.8603 644.58 96.583C648.478 96.0377 657.181 97.9 658.512 100.561C659.499 102.041 662.459 99.5738 663.692 99.3271C665.173 99.0806 667.886 101.054 668.873 99.8203C669.052 99.5614 669.19 99.3143 669.3 99.082V74.4414ZM657.015 75.7109C654.853 76.1222 652.71 76.6314 650.594 77.2373C641.304 80.8167 632.961 86.8206 626.146 94.6084C627.609 94.63 628.842 94.7469 629.401 94.8867C634.557 95.9608 636.906 98.3421 641.336 97.4746C641.955 96.0331 642.601 94.6379 643.273 93.293C647.055 85.7292 651.719 79.6245 657.015 75.7109ZM630.724 86.3418C626.68 88.994 622.906 92.0464 619.46 95.457C620.324 95.1121 621.44 94.8903 622.616 94.7598C625.108 91.7053 627.82 88.888 630.724 86.3418Z" fill="#D89B2A"/>
<path d="M818.75 82.48C830.63 82.48 841.249 84.4605 850.609 88.4204C859.969 92.3804 867.71 98.08 873.83 105.52L851.149 126.04C846.83 121.36 842.18 117.85 837.2 115.51C832.22 113.17 826.67 112 820.55 112C815.15 112 810.23 112.84 805.79 114.52C801.35 116.2 797.57 118.63 794.45 121.81C791.33 124.99 788.9 128.77 787.16 133.15C785.42 137.53 784.55 142.48 784.55 148C784.55 153.279 785.42 158.14 787.16 162.58C788.9 167.02 791.33 170.83 794.45 174.01C797.57 177.19 801.32 179.65 805.7 181.39C810.08 183.13 814.91 183.999 820.189 184C825.469 184 830.63 183.13 835.67 181.39C836.926 180.956 838.186 180.445 839.45 179.858V145.3H870.95V197.5L870.271 197.98C863.227 202.906 855.113 206.707 845.93 209.38C836.45 212.14 827.15 213.52 818.03 213.52C808.07 213.52 798.83 211.93 790.31 208.75C781.79 205.57 774.44 201.04 768.26 195.16C762.08 189.28 757.249 182.35 753.77 174.37C750.29 166.39 748.55 157.599 748.55 148C748.55 138.4 750.29 129.61 753.77 121.63C757.249 113.65 762.11 106.72 768.35 100.84C774.59 94.9603 782 90.4295 790.58 87.2495C799.16 84.0696 808.55 82.48 818.75 82.48Z" fill="#111111"/>
<path d="M994.79 82.48C1003.07 82.48 1011.2 83.4101 1019.18 85.27C1027.16 87.13 1034.27 89.8604 1040.51 93.4604L1029.53 119.92C1023.53 116.68 1017.59 114.25 1011.71 112.63C1005.83 111.01 1000.13 110.2 994.609 110.2C989.69 110.2 985.729 110.71 982.729 111.73C979.73 112.75 977.57 114.1 976.25 115.78C974.93 117.46 974.27 119.38 974.27 121.54C974.27 124.299 975.56 126.49 978.14 128.11C980.72 129.73 984.14 131.05 988.399 132.07C992.659 133.09 997.34 134.14 1002.44 135.22C1007.54 136.3 1012.64 137.65 1017.74 139.27C1022.84 140.89 1027.49 143.05 1031.69 145.75C1035.89 148.449 1039.28 151.99 1041.86 156.37C1044.44 160.75 1045.73 166.24 1045.73 172.84C1045.73 180.16 1043.66 186.91 1039.52 193.09C1035.38 199.27 1029.2 204.22 1020.98 207.94C1012.76 211.66 1002.41 213.52 989.93 213.52C979.61 213.52 969.68 212.23 960.14 209.65C950.6 207.07 942.83 203.74 936.83 199.66L948.53 173.38C954.17 176.98 960.68 179.95 968.06 182.29C975.439 184.63 982.79 185.8 990.109 185.8C995.029 185.8 998.99 185.35 1001.99 184.45C1004.99 183.55 1007.18 182.35 1008.56 180.85C1009.94 179.35 1010.63 177.58 1010.63 175.54C1010.63 172.66 1009.31 170.38 1006.67 168.7C1004.03 167.02 1000.61 165.64 996.41 164.56C992.21 163.48 987.56 162.4 982.46 161.32C977.36 160.24 972.26 158.86 967.16 157.18C962.06 155.5 957.41 153.31 953.21 150.61C949.01 147.91 945.59 144.37 942.95 139.99C940.31 135.61 938.99 130.06 938.99 123.34C938.99 115.78 941.06 108.94 945.2 102.82C949.34 96.7 955.55 91.78 963.83 88.0601C972.11 84.3401 982.43 82.48 994.79 82.48Z" fill="#111111"/>
<path d="M1286.75 82.48C1298.39 82.48 1308.8 84.5202 1317.98 88.6001C1327.16 92.6801 1334.81 98.5599 1340.93 106.24L1318.25 126.76C1314.17 121.96 1309.7 118.3 1304.84 115.78C1299.98 113.26 1294.55 112 1288.55 112C1283.39 112 1278.65 112.84 1274.33 114.52C1270.01 116.2 1266.32 118.63 1263.26 121.81C1260.2 124.99 1257.8 128.8 1256.06 133.24C1254.32 137.68 1253.45 142.6 1253.45 148C1253.45 153.4 1254.32 158.32 1256.06 162.76C1257.8 167.2 1260.2 171.01 1263.26 174.19C1266.32 177.37 1270.01 179.8 1274.33 181.48C1278.65 183.16 1283.39 184 1288.55 184C1294.55 184 1299.98 182.74 1304.84 180.22C1309.7 177.7 1314.17 174.04 1318.25 169.24L1340.93 189.76C1334.81 197.32 1327.16 203.17 1317.98 207.31C1308.8 211.45 1298.39 213.52 1286.75 213.52C1276.79 213.52 1267.58 211.929 1259.12 208.75C1250.66 205.57 1243.34 201.04 1237.16 195.16C1230.98 189.28 1226.15 182.35 1222.67 174.37C1219.19 166.39 1217.45 157.599 1217.45 148C1217.45 138.4 1219.19 129.61 1222.67 121.63C1226.15 113.65 1230.98 106.72 1237.16 100.84C1243.34 94.9603 1250.66 90.4295 1259.12 87.2495C1267.58 84.0696 1276.79 82.48 1286.75 82.48Z" fill="#111111"/>
<path d="M1399.97 82.48C1408.25 82.48 1416.38 83.4101 1424.36 85.27C1432.34 87.13 1439.45 89.8605 1445.69 93.4604L1434.71 119.92C1428.71 116.68 1422.77 114.25 1416.89 112.63C1411.01 111.01 1405.31 110.2 1399.79 110.2C1394.87 110.2 1390.91 110.71 1387.91 111.73C1384.91 112.75 1382.75 114.1 1381.43 115.78C1380.11 117.46 1379.45 119.38 1379.45 121.54C1379.45 124.299 1380.74 126.49 1383.32 128.11C1385.9 129.73 1389.32 131.05 1393.58 132.07C1397.84 133.09 1402.52 134.14 1407.62 135.22C1412.72 136.3 1417.82 137.65 1422.92 139.27C1428.02 140.89 1432.67 143.05 1436.87 145.75C1441.07 148.449 1444.46 151.99 1447.04 156.37C1449.62 160.75 1450.91 166.24 1450.91 172.84C1450.91 180.16 1448.84 186.91 1444.7 193.09C1440.56 199.27 1434.38 204.22 1426.16 207.94C1417.94 211.66 1407.59 213.52 1395.11 213.52C1384.79 213.52 1374.86 212.23 1365.32 209.65C1355.78 207.07 1348.01 203.74 1342.01 199.66L1353.71 173.38L1354.78 174.047C1360.17 177.349 1366.32 180.096 1373.24 182.29C1380.62 184.629 1387.97 185.8 1395.29 185.8C1400.21 185.8 1404.17 185.35 1407.17 184.45C1410.17 183.55 1412.36 182.35 1413.74 180.85C1415.12 179.35 1415.81 177.579 1415.81 175.54C1415.81 172.66 1414.49 170.38 1411.85 168.7C1409.21 167.02 1405.79 165.64 1401.59 164.56C1397.39 163.48 1392.74 162.4 1387.64 161.32C1382.54 160.24 1377.44 158.86 1372.34 157.18C1367.24 155.5 1362.59 153.31 1358.39 150.61C1354.19 147.91 1350.77 144.37 1348.13 139.99C1345.49 135.61 1344.17 130.06 1344.17 123.34C1344.17 115.78 1346.24 108.94 1350.38 102.82C1354.52 96.6999 1360.73 91.78 1369.01 88.0601C1377.29 84.3401 1387.61 82.48 1399.97 82.48Z" fill="#111111"/>
<path d="M924.77 211H889.13V84.9995H924.77V211Z" fill="#111111"/>
<path d="M1158.59 84.9995V113.26H1120.07V211H1084.43V113.26H1045.73V84.9995H1158.59Z" fill="#111111"/>
<path d="M1203.05 211H1167.41V84.9995H1203.05V211Z" fill="#111111"/>
</g>
<defs>
<clipPath id="clip0_505_51899">
<rect width="1451" height="222" fill="white"/>
</clipPath>
</defs>
</svg>
