<svg width="434" height="114" viewBox="0 0 434 114" fill="none" xmlns="http://www.w3.org/2000/svg">
<g clip-path="url(#clip0_4033_150058)">
<path d="M179.682 59.0039H152.904V23.7694H162.87V51.1013H179.682V59.0039Z" fill="#111111"/>
<path d="M202.856 27.7693C203.15 27.8866 203.971 27.4173 204.146 28.0037C204.322 28.59 204.85 29.352 205.319 29.5281C205.788 29.704 205.32 30.3493 205.672 30.4666C206.024 30.584 206.667 30.9938 206.668 31.2283C206.668 31.4627 206.375 31.7563 206.258 31.698C205.378 31.4634 204.616 30.5831 204.205 30.114C203.502 29.2937 203.56 29.997 202.388 29.6453C202.095 29.528 201.626 28.6486 201.919 28.1794C202.212 27.7105 202.563 27.6521 202.856 27.7693Z" fill="#D89B2A"/>
<path fill-rule="evenodd" clip-rule="evenodd" d="M201.508 23.7683C211.393 23.7683 219.406 31.781 219.406 41.6658C219.406 51.5507 211.393 59.5642 201.508 59.5642C191.623 59.564 183.61 51.5506 183.61 41.6658C183.611 31.7812 191.623 23.7685 201.508 23.7683ZM193.026 41.9744C193.067 46.6708 194.034 50.9009 195.566 53.9656C196.776 56.3843 198.306 58.0237 199.969 58.655C200.377 58.6916 200.788 58.7131 201.199 58.7205V43.908C201.059 43.8511 200.936 43.8177 200.863 43.8357C199.808 43.953 198.694 42.9563 197.99 42.2527C197.9 42.1624 197.822 42.0686 197.75 41.9744H193.026ZM201.816 58.7205C202.227 58.7131 202.637 58.6915 203.046 58.655C203.666 58.4198 204.267 58.0447 204.841 57.5408C204.61 57.3753 204.411 57.1454 204.323 56.8542C204.089 56.1506 204.264 55.6223 204.499 55.0359C204.675 54.5668 204.44 53.9805 204.558 53.4529C204.792 52.456 205.144 51.3414 205.026 50.2859C204.968 49.6412 204.792 49.582 204.323 49.2302C203.795 48.8198 203.795 48.2922 203.443 47.7644C203.15 47.295 203.971 45.536 203.736 45.4187C203.443 45.3016 202.857 45.4188 202.681 45.1843C202.446 44.8913 202.329 44.5984 202.036 44.364C201.993 44.3352 201.914 44.2846 201.816 44.2263V58.7205ZM210.608 41.9744C210.593 43.7724 210.443 45.5069 210.179 47.1404C210.351 47.1824 210.484 47.2279 210.538 47.2957C211.242 48.1752 211.066 47.7059 210.538 48.8787C210.304 49.4651 210.539 50.1694 209.894 50.5798C209.725 50.7144 209.537 50.733 209.353 50.78C208.975 52.0417 208.523 53.2046 208.004 54.2419C207.374 55.5016 206.639 56.5897 205.824 57.449C206.14 57.8006 205.858 57.9169 205.452 57.8201C205.219 58.0388 204.981 58.239 204.736 58.4197C205.248 58.3224 205.755 58.2015 206.256 58.0583C212.114 55.8046 216.389 49.497 216.503 41.9744H210.608ZM186.513 41.9744C186.627 49.4964 190.9 55.8041 196.758 58.0583C197.259 58.2016 197.766 58.3213 198.277 58.4187C197.02 57.4885 195.912 56.0387 195.014 54.2419C193.431 51.0757 192.45 46.7472 192.409 41.9744H186.513ZM208.102 52.5007C207.345 53.2746 206.092 54.4796 205.965 54.8601C205.906 55.1533 205.203 55.3883 205.789 55.6228C206.087 55.6732 205.331 56.4837 205.42 56.9783C206.161 56.1871 206.847 55.174 207.451 53.9656C207.682 53.5034 207.897 53.0135 208.102 52.5007ZM184.231 41.9744C184.263 43.8028 184.578 45.562 185.136 47.2097C185.189 47.2452 185.232 47.2965 185.256 47.3611C186.007 49.4419 187.148 51.3469 188.603 52.9812C188.643 52.998 188.68 53.0232 188.711 53.0574C189.695 54.1421 190.812 55.0939 192.03 55.8933C188.359 52.6741 185.979 47.6331 185.896 41.9744H184.231ZM217.121 41.9744C217.037 47.6332 214.656 52.6731 210.984 55.8923C212.203 55.0929 213.32 54.1423 214.305 53.0574C214.336 53.0226 214.374 52.9971 214.415 52.9802C215.87 51.3461 217.009 49.4415 217.761 47.3611C217.784 47.2975 217.826 47.2461 217.878 47.2107C218.436 45.5626 218.752 43.8033 218.784 41.9744H217.121ZM201.816 42.825C202.058 42.5102 202.175 43.8035 202.113 43.8513C202.287 43.9799 203.197 43.6263 202.915 44.2468C202.798 44.5403 203.033 45.243 203.443 45.0085C203.619 44.9501 204.088 45.1844 204.146 45.0671C204.205 44.8913 204.382 44.7742 204.558 44.657C204.968 44.4226 205.554 44.657 206.023 44.657C206.259 44.716 208.544 45.9467 208.545 46.1814C208.576 46.6839 209.079 46.8815 209.575 47.0037C209.83 45.4164 209.975 43.7281 209.99 41.9744H203.486C203.508 42.1508 203.506 42.2903 203.443 42.3113C203.391 42.3377 203.243 42.1733 203.08 41.9744H201.816V42.825ZM200.678 41.9744C200.598 42.0891 200.538 42.2192 200.512 42.3699C200.435 42.7902 200.832 43.3572 201.199 43.4597V41.9744H200.678ZM188.711 30.2742C188.68 30.3084 188.642 30.3334 188.603 30.3503C187.147 31.985 186.007 33.8903 185.256 35.9714C185.233 36.036 185.189 36.0865 185.136 36.1218C184.578 37.7695 184.264 39.5288 184.231 41.3572H185.896C185.951 37.6365 186.998 34.1829 188.753 31.3386C188.689 31.2825 188.653 31.2417 188.666 31.2283C188.703 31.2034 188.765 31.2018 188.836 31.2068C188.952 31.0221 189.07 30.8393 189.192 30.6599C189.094 30.4949 188.994 30.3255 188.959 30.114C188.952 30.0793 188.95 30.0461 188.952 30.0144C188.871 30.1002 188.79 30.1866 188.711 30.2742ZM188.527 32.9998C187.286 35.4603 186.559 38.3093 186.513 41.3572H192.409C192.432 38.6691 192.752 36.1223 193.312 33.8445C193.015 33.6404 192.653 33.5154 192.185 33.5154C191.246 33.5154 191.305 35.4499 190.602 35.2156C189.781 34.9224 188.549 36.33 188.549 36.1541C188.666 35.1575 189.663 34.6885 189.78 34.3953C190.057 33.51 188.506 33.6686 188.527 32.9998ZM193.828 34.3445C193.333 36.4785 193.048 38.8512 193.026 41.3572H197.361C197.247 41.1499 197.134 40.9393 196.993 40.7283C196.7 40.2592 196.289 40.259 196.055 39.6726C195.82 39.0862 195.938 38.3235 195.879 37.6785C195.82 36.9751 195.468 36.7989 195.058 36.2712C194.582 35.6685 194.276 34.9125 193.828 34.3445ZM201.816 30.1785C202.582 30.5602 203.968 28.837 203.502 30.8767C203.278 31.9948 202.543 32.2944 201.816 32.7898V34.4685C202.326 34.7406 202.888 35.0097 202.915 35.3923C203.091 37.8544 204.381 35.2163 204.029 34.3367C203.384 32.6361 204.792 33.1054 205.378 34.1609C205.671 34.7469 205.906 34.2783 206.316 34.0437C206.61 33.8678 206.727 34.7466 206.786 34.9226C206.962 35.4503 207.724 35.6264 207.606 36.2712C207.489 37.0335 206.961 36.7995 206.434 36.9167C205.848 37.0926 206.491 37.5609 206.434 37.7371C206.375 37.9716 205.671 38.0309 205.495 38.1482C204.968 38.5001 205.261 39.0865 204.851 39.4382C204.557 39.6727 204.264 39.5553 204.205 39.9656C204.146 40.4933 203.209 40.6694 203.326 41.1384C203.326 41.1672 203.344 41.2491 203.368 41.3572H209.99C209.949 36.6611 208.983 32.4315 207.451 29.3669C206.241 26.9475 204.71 25.3069 203.046 24.6755C202.638 24.639 202.227 24.6175 201.816 24.6101V30.1785ZM204.736 24.9109C205.995 25.841 207.105 27.2924 208.004 29.0906C209.587 32.2567 210.568 36.5847 210.608 41.3572H216.503C216.389 33.8379 212.118 27.5315 206.264 25.2751C205.76 25.131 205.251 25.0087 204.736 24.9109ZM210.983 27.4373C214.656 30.6562 217.037 35.6975 217.121 41.3572H218.784C218.752 39.5287 218.437 37.7696 217.879 36.1218C217.827 36.0865 217.784 36.0353 217.761 35.9714C217.009 33.8907 215.87 31.9857 214.415 30.3513C214.374 30.3344 214.336 30.309 214.305 30.2742C213.32 29.1888 212.203 28.2369 210.983 27.4373ZM201.156 33.3396C200.896 33.637 200.973 33.8688 201.199 34.074V33.2966C201.185 33.311 201.17 33.3248 201.156 33.3396ZM189.245 31.7136C189.059 32.0169 188.881 32.327 188.712 32.6443C189.047 32.3482 189.735 32.1215 189.546 31.9324C189.525 31.9113 189.397 31.8222 189.245 31.7136ZM201.199 24.6101C200.788 24.6175 200.378 24.639 199.97 24.6755C198.306 25.3068 196.776 26.9476 195.566 29.3669C195.484 29.5324 195.403 29.7016 195.323 29.8738C196.25 29.744 198.319 30.1856 198.635 30.8181C198.869 31.1699 199.573 30.5839 199.866 30.5251C200.218 30.4665 200.863 30.9353 201.098 30.6423C201.141 30.5796 201.173 30.5188 201.199 30.4626V24.6101ZM198.278 24.9109C197.764 25.0087 197.255 25.1309 196.751 25.2751C194.543 26.1263 192.56 27.5535 190.94 29.405C191.289 29.4101 191.583 29.4362 191.716 29.4695C192.942 29.7251 193.5 30.2909 194.556 30.0828C194.703 29.7411 194.854 29.4094 195.014 29.0906C195.913 27.2929 197.02 25.841 198.278 24.9109ZM192.033 27.4363C191.069 28.0685 190.168 28.7955 189.347 29.6091C189.553 29.5256 189.821 29.4706 190.104 29.4392C190.697 28.7123 191.342 28.0421 192.033 27.4363Z" fill="#D89B2A"/>
<path d="M0 82.7733H87.5271" stroke="#5E9BA5" stroke-width="0.894845"/>
<path d="M115.491 82.7733H202.739" stroke="#5E9BA5" stroke-width="0.894845"/>
<path d="M230.702 82.7733H318.229" stroke="#5E9BA5" stroke-width="0.894845"/>
<path d="M346.193 82.7733H433.72" stroke="#5E9BA5" stroke-width="0.894845"/>
<path d="M97.035 92.8403H99.2721L104.865 83.8918H111.017C111.945 83.8918 112.695 83.1424 112.695 82.214C112.695 81.2856 111.945 80.5361 111.017 80.5361H104.865L99.2721 71.5877H97.035L99.8314 80.5361H93.6794L92.0015 78.299H90.3237L91.4422 82.214L90.3237 86.1289H92.0015L93.6794 83.8918H99.8314L97.035 92.8403Z" fill="#D89B2A"/>
<path d="M224.774 91.8336C223.576 91.8336 222.378 91.4812 221.281 90.847C220.948 90.6557 220.546 90.6557 220.204 90.847C219.147 91.4698 217.942 91.7983 216.715 91.7983C215.488 91.7983 214.284 91.4698 213.227 90.847C212.895 90.6557 212.492 90.6557 212.15 90.847C211.063 91.4812 209.865 91.8336 208.667 91.8336H207.66C207.106 91.8336 206.653 92.2866 206.653 92.8403C206.653 93.3939 207.106 93.847 207.66 93.847H208.667C210.056 93.847 211.425 93.4946 212.694 92.8503C213.939 93.4905 215.32 93.8244 216.72 93.8244C218.121 93.8244 219.501 93.4905 220.747 92.8503C222.016 93.5047 223.385 93.847 224.774 93.847H225.781C226.334 93.847 226.787 93.3939 226.787 92.8403C226.787 92.2866 226.334 91.8336 225.781 91.8336H224.774ZM208.616 89.8202H208.667C209.945 89.8202 211.103 89.2665 212.019 88.4812C212.412 88.139 212.975 88.139 213.368 88.4812C215.24 90.0819 218.18 90.0819 220.053 88.4812C220.445 88.139 221.009 88.139 221.401 88.4812C222.318 89.2665 223.485 89.8202 224.774 89.8202H224.784L226.717 83.0652C226.948 82.2397 226.435 81.3941 225.599 81.2028L223.767 80.9411V76.733C223.767 75.6257 222.861 74.7196 221.754 74.7196H218.734V72.7062H214.707V74.7196H211.687C210.579 74.7196 209.673 75.6257 209.673 76.733V80.9411L207.851 81.2129C207.006 81.4041 206.502 82.2498 206.734 83.0753L208.616 89.8202ZM211.687 76.733H221.754V80.7296L216.72 79.7531L211.687 80.7296V76.733Z" fill="#D89B2A"/>
<path d="M340.265 78.7464H337.245V74.7196H323.151C322.044 74.7196 321.138 75.6257 321.138 76.733V87.8067H323.151C323.151 89.4779 324.5 90.8269 326.171 90.8269C327.842 90.8269 329.191 89.4779 329.191 87.8067H335.232C335.232 89.4779 336.58 90.8269 338.252 90.8269C339.923 90.8269 341.272 89.4779 341.272 87.8067H343.285V82.7732L340.265 78.7464ZM326.171 89.3168C325.336 89.3168 324.661 88.6423 324.661 87.8067C324.661 86.9712 325.336 86.2967 326.171 86.2967C327.007 86.2967 327.681 86.9712 327.681 87.8067C327.681 88.6423 327.007 89.3168 326.171 89.3168ZM339.762 80.2565L341.735 82.7732H337.245V80.2565H339.762ZM338.252 89.3168C337.416 89.3168 336.742 88.6423 336.742 87.8067C336.742 86.9712 337.416 86.2967 338.252 86.2967C339.087 86.2967 339.762 86.9712 339.762 87.8067C339.762 88.6423 339.087 89.3168 338.252 89.3168Z" fill="#D89B2A"/>
<path d="M259.785 111.576C260.557 111.576 261.183 110.95 261.183 110.178C261.183 109.406 260.557 108.78 259.785 108.78C259.013 108.78 258.387 109.406 258.387 110.178C258.387 110.95 259.013 111.576 259.785 111.576Z" fill="#D89B2A"/>
<path d="M314.286 111.576C315.059 111.576 315.685 110.95 315.685 110.178C315.685 109.406 315.059 108.78 314.286 108.78C313.514 108.78 312.888 109.406 312.888 110.178C312.888 110.95 313.514 111.576 314.286 111.576Z" fill="#D89B2A"/>
<path d="M372.06 111.576C372.832 111.576 373.458 110.95 373.458 110.178C373.458 109.406 372.832 108.78 372.06 108.78C371.288 108.78 370.662 109.406 370.662 110.178C370.662 110.95 371.288 111.576 372.06 111.576Z" fill="#D89B2A"/>
<path fill-rule="evenodd" clip-rule="evenodd" d="M18.8731 105.147C19.5386 105.147 20.1483 105.253 20.7019 105.466C21.2537 105.677 21.7328 105.976 22.1392 106.364C22.5456 106.751 22.8643 107.204 23.0955 107.72C23.3267 108.236 23.4423 108.804 23.4423 109.423C23.4423 110.042 23.3267 110.611 23.0955 111.132C22.8644 111.652 22.5456 112.104 22.1392 112.488C21.7328 112.872 21.2537 113.169 20.7019 113.38C20.1483 113.592 19.5386 113.699 18.8731 113.699C18.2169 113.699 17.6098 113.592 17.0524 113.38C16.4969 113.169 16.0141 112.87 15.604 112.482C15.192 112.094 14.8723 111.642 14.6449 111.126C14.4193 110.609 14.3065 110.042 14.3065 109.423C14.3065 108.804 14.4193 108.236 14.6449 107.72C14.8723 107.204 15.192 106.751 15.604 106.364C16.0141 105.976 16.4969 105.677 17.0524 105.466C17.6098 105.253 18.2169 105.147 18.8731 105.147ZM18.8731 107.074C18.5599 107.074 18.269 107.129 18.0006 107.239C17.7303 107.349 17.4943 107.507 17.293 107.714C17.0935 107.921 16.9379 108.168 16.826 108.455C16.7123 108.741 16.6554 109.063 16.6554 109.423C16.6554 109.775 16.7123 110.096 16.826 110.385C16.9379 110.676 17.0936 110.925 17.293 111.132C17.4943 111.338 17.7303 111.497 18.0006 111.607C18.269 111.717 18.5599 111.772 18.8731 111.772C19.1862 111.772 19.478 111.717 19.7483 111.607C20.0186 111.497 20.2534 111.338 20.4529 111.132C20.6523 110.925 20.8091 110.676 20.9229 110.385C21.0366 110.096 21.0933 109.775 21.0933 109.423C21.0933 109.063 21.0366 108.741 20.9229 108.455C20.8091 108.168 20.6523 107.921 20.4529 107.714C20.2534 107.507 20.0186 107.349 19.7483 107.239C19.478 107.129 19.1862 107.074 18.8731 107.074Z" fill="#111111"/>
<path d="M93.2178 105.147C93.9783 105.147 94.6579 105.28 95.2563 105.547C95.8548 105.814 96.3545 106.198 96.7553 106.699L95.2733 108.036C95.0086 107.723 94.7177 107.484 94.4008 107.32C94.082 107.156 93.7267 107.074 93.3352 107.074C92.9997 107.074 92.6912 107.129 92.4097 107.239C92.1264 107.349 91.8849 107.507 91.6855 107.714C91.486 107.921 91.3295 108.17 91.2158 108.461C91.1021 108.75 91.0451 109.071 91.0451 109.423C91.0451 109.775 91.1021 110.096 91.2158 110.385C91.3295 110.676 91.486 110.925 91.6855 111.132C91.8849 111.338 92.1264 111.497 92.4097 111.607C92.6912 111.717 92.9997 111.772 93.3352 111.772C93.7267 111.772 94.082 111.69 94.4008 111.526C94.7177 111.362 95.0086 111.123 95.2733 110.81L96.7553 112.147C96.3545 112.641 95.8548 113.023 95.2563 113.293C94.6579 113.563 93.9784 113.699 93.2178 113.699C92.5691 113.699 91.9688 113.595 91.417 113.388C90.8652 113.179 90.3871 112.883 89.9825 112.499C89.5799 112.117 89.2648 111.665 89.0374 111.143C88.8099 110.623 88.696 110.049 88.696 109.423C88.696 108.796 88.8099 108.223 89.0374 107.703C89.2648 107.181 89.5799 106.729 89.9825 106.347C90.3871 105.963 90.8652 105.667 91.417 105.46C91.9688 105.252 92.5691 105.147 93.2178 105.147Z" fill="#111111"/>
<path d="M119.775 105.147C120.549 105.147 121.241 105.277 121.853 105.536C122.464 105.793 122.97 106.165 123.369 106.652L121.889 107.991C121.606 107.685 121.302 107.456 120.978 107.303C120.653 107.15 120.292 107.074 119.893 107.074C119.54 107.074 119.219 107.129 118.928 107.239C118.639 107.349 118.393 107.507 118.19 107.714C117.985 107.921 117.826 108.168 117.714 108.455C117.601 108.741 117.544 109.063 117.544 109.423C117.544 109.768 117.601 110.085 117.714 110.374C117.826 110.665 117.985 110.913 118.19 111.12C118.393 111.327 118.637 111.488 118.922 111.601C119.207 111.715 119.523 111.772 119.868 111.772C120.212 111.772 120.549 111.715 120.877 111.601C120.96 111.573 121.043 111.539 121.126 111.501V109.247H123.181V112.653L123.092 112.715C122.643 113.022 122.128 113.26 121.548 113.427C120.929 113.608 120.322 113.699 119.728 113.699C119.077 113.699 118.474 113.595 117.918 113.388C117.363 113.179 116.884 112.883 116.481 112.499C116.077 112.117 115.761 111.665 115.533 111.143C115.308 110.623 115.195 110.049 115.195 109.423C115.195 108.796 115.308 108.223 115.533 107.703C115.761 107.181 116.078 106.729 116.487 106.347C116.893 105.963 117.376 105.667 117.935 105.46C118.496 105.252 119.11 105.147 119.775 105.147Z" fill="#111111"/>
<path fill-rule="evenodd" clip-rule="evenodd" d="M128.805 105.147C129.47 105.147 130.079 105.253 130.631 105.466C131.184 105.677 131.665 105.976 132.071 106.364C132.477 106.751 132.796 107.204 133.027 107.72C133.258 108.236 133.374 108.804 133.374 109.423C133.374 110.042 133.258 110.611 133.027 111.132C132.796 111.652 132.477 112.104 132.071 112.488C131.665 112.872 131.184 113.169 130.631 113.38C130.079 113.592 129.47 113.699 128.805 113.699C128.149 113.699 127.542 113.592 126.984 113.38C126.429 113.169 125.946 112.87 125.536 112.482C125.124 112.094 124.804 111.642 124.577 111.126C124.351 110.609 124.238 110.042 124.238 109.423C124.238 108.804 124.351 108.236 124.577 107.72C124.804 107.204 125.124 106.751 125.536 106.364C125.946 105.976 126.429 105.677 126.984 105.466C127.542 105.253 128.149 105.147 128.805 105.147ZM128.805 107.074C128.492 107.074 128.201 107.129 127.932 107.239C127.662 107.349 127.427 107.507 127.228 107.714C127.026 107.921 126.87 108.168 126.758 108.455C126.644 108.741 126.587 109.063 126.587 109.423C126.587 109.775 126.644 110.096 126.758 110.385C126.87 110.676 127.026 110.925 127.228 111.132C127.427 111.338 127.662 111.497 127.932 111.607C128.201 111.717 128.492 111.772 128.805 111.772C129.118 111.772 129.41 111.717 129.68 111.607C129.95 111.497 130.185 111.338 130.385 111.132C130.584 110.925 130.741 110.676 130.855 110.385C130.968 110.096 131.025 109.775 131.025 109.423C131.025 109.063 130.968 108.741 130.855 108.455C130.741 108.168 130.584 107.921 130.385 107.714C130.185 107.507 129.95 107.349 129.68 107.239C129.41 107.129 129.118 107.074 128.805 107.074Z" fill="#111111"/>
<path d="M176.067 105.147C176.607 105.147 177.138 105.208 177.658 105.329C178.18 105.45 178.644 105.628 179.05 105.863L178.334 107.591C177.943 107.379 177.555 107.22 177.171 107.116C176.787 107.01 176.415 106.956 176.055 106.956C175.735 106.956 175.476 106.99 175.281 107.057C175.085 107.122 174.944 107.21 174.858 107.32C174.771 107.43 174.727 107.556 174.727 107.698C174.727 107.876 174.812 108.019 174.982 108.125C175.149 108.232 175.372 108.317 175.65 108.383C175.928 108.45 176.233 108.519 176.567 108.589C176.899 108.66 177.232 108.748 177.565 108.852C177.897 108.959 178.2 109.099 178.474 109.275C178.748 109.452 178.97 109.683 179.14 109.968C179.308 110.255 179.391 110.614 179.391 111.045C179.391 111.522 179.256 111.962 178.986 112.365C178.716 112.767 178.312 113.091 177.775 113.335C177.24 113.577 176.565 113.699 175.751 113.699C175.078 113.699 174.43 113.614 173.807 113.444C173.184 113.276 172.677 113.059 172.286 112.792L173.049 111.078C173.417 111.313 173.841 111.507 174.322 111.66C174.804 111.813 175.285 111.889 175.762 111.889C176.082 111.889 176.341 111.859 176.536 111.8C176.732 111.742 176.876 111.665 176.967 111.568C177.056 111.469 177.101 111.353 177.101 111.221C177.101 111.033 177.014 110.884 176.841 110.774C176.67 110.664 176.447 110.573 176.173 110.502C175.899 110.433 175.596 110.363 175.264 110.293C174.93 110.222 174.597 110.131 174.263 110.021C173.931 109.911 173.628 109.769 173.354 109.594C173.08 109.416 172.857 109.185 172.686 108.9C172.512 108.615 172.426 108.253 172.426 107.815C172.426 107.321 172.561 106.874 172.831 106.475C173.101 106.077 173.507 105.755 174.048 105.511C174.588 105.268 175.261 105.147 176.067 105.147Z" fill="#111111"/>
<path fill-rule="evenodd" clip-rule="evenodd" d="M193.262 105.147C193.927 105.147 194.536 105.253 195.088 105.466C195.639 105.677 196.12 105.976 196.528 106.364C196.934 106.751 197.253 107.204 197.484 107.72C197.715 108.236 197.831 108.804 197.831 109.423C197.831 110.042 197.715 110.611 197.484 111.132C197.253 111.652 196.934 112.104 196.528 112.488C196.12 112.872 195.639 113.169 195.088 113.38C194.536 113.592 193.927 113.699 193.262 113.699C192.604 113.699 191.997 113.592 191.441 113.38C190.886 113.169 190.402 112.87 189.99 112.482C189.58 112.094 189.261 111.642 189.034 111.126C188.806 110.609 188.692 110.042 188.692 109.423C188.692 108.804 188.806 108.236 189.034 107.72C189.261 107.204 189.58 106.751 189.99 106.364C190.402 105.976 190.886 105.677 191.441 105.466C191.997 105.253 192.604 105.147 193.262 105.147ZM193.262 107.074C192.948 107.074 192.656 107.129 192.386 107.239C192.116 107.349 191.881 107.507 191.682 107.714C191.482 107.921 191.326 108.168 191.212 108.455C191.098 108.741 191.041 109.063 191.041 109.423C191.041 109.775 191.098 110.096 191.212 110.385C191.326 110.676 191.482 110.925 191.682 111.132C191.881 111.338 192.116 111.497 192.386 111.607C192.656 111.717 192.948 111.772 193.262 111.772C193.575 111.772 193.867 111.717 194.137 111.607C194.407 111.497 194.642 111.338 194.841 111.132C195.041 110.925 195.198 110.676 195.311 110.385C195.425 110.096 195.482 109.775 195.482 109.423C195.482 109.063 195.425 108.741 195.311 108.455C195.198 108.168 195.041 107.921 194.841 107.714C194.642 107.507 194.407 107.349 194.137 107.239C193.867 107.129 193.575 107.074 193.262 107.074Z" fill="#111111"/>
<path fill-rule="evenodd" clip-rule="evenodd" d="M240.017 105.147C240.683 105.147 241.291 105.253 241.843 105.466C242.395 105.677 242.875 105.976 243.283 106.364C243.69 106.751 244.009 107.204 244.24 107.72C244.471 108.236 244.587 108.804 244.587 109.423C244.587 110.042 244.471 110.611 244.24 111.132C244.009 111.652 243.69 112.104 243.283 112.488C242.875 112.872 242.395 113.169 241.843 113.38C241.291 113.592 240.683 113.699 240.017 113.699C239.359 113.699 238.752 113.592 238.197 113.38C237.641 113.169 237.158 112.87 236.748 112.482C236.336 112.094 236.017 111.642 235.789 111.126C235.562 110.609 235.448 110.042 235.448 109.423C235.448 108.804 235.562 108.236 235.789 107.72C236.017 107.204 236.336 106.751 236.748 106.364C237.158 105.976 237.641 105.677 238.197 105.466C238.752 105.253 239.359 105.147 240.017 105.147ZM240.017 107.074C239.704 107.074 239.412 107.129 239.142 107.239C238.872 107.349 238.637 107.507 238.437 107.714C238.238 107.921 238.081 108.168 237.967 108.455C237.854 108.741 237.797 109.063 237.797 109.423C237.797 109.775 237.854 110.096 237.967 110.385C238.081 110.676 238.238 110.925 238.437 111.132C238.637 111.338 238.872 111.497 239.142 111.607C239.412 111.717 239.704 111.772 240.017 111.772C240.33 111.772 240.622 111.717 240.893 111.607C241.163 111.497 241.398 111.338 241.597 111.132C241.797 110.925 241.953 110.676 242.067 110.385C242.181 110.096 242.238 109.775 242.238 109.423C242.238 109.063 242.181 108.741 242.067 108.455C241.953 108.168 241.797 107.921 241.597 107.714C241.398 107.507 241.163 107.349 240.893 107.239C240.622 107.129 240.33 107.074 240.017 107.074Z" fill="#111111"/>
<path d="M4.2379 110.561L5.97882 105.312H8.11516L9.77579 110.608L11.499 105.312H13.7191L11.0514 113.534H8.56275L6.98677 108.529L5.34417 113.534H2.85527L0.1875 105.312H2.5841L4.2379 110.561Z" fill="#111111"/>
<path fill-rule="evenodd" clip-rule="evenodd" d="M28.3415 105.312C29.5383 105.312 30.4604 105.584 31.1073 106.129C31.7523 106.673 32.0748 107.415 32.0748 108.355C32.0748 108.973 31.9267 109.508 31.6302 109.957C31.3501 110.381 30.9613 110.71 30.4642 110.947L32.2398 113.534H29.7509L28.2601 111.349H26.9908V113.534H24.6644V105.312H28.3415ZM26.9908 109.552H28.2828C28.7674 109.552 29.1291 109.446 29.3677 109.236C29.6064 109.023 29.7258 108.729 29.7258 108.355C29.7257 107.971 29.6063 107.673 29.3677 107.463C29.1291 107.25 28.7675 107.144 28.2828 107.144H26.9908V109.552Z" fill="#111111"/>
<path d="M35.682 105.312V111.691H39.6027V113.534H33.3556V105.312H35.682Z" fill="#111111"/>
<path fill-rule="evenodd" clip-rule="evenodd" d="M44.4068 105.312C45.3147 105.312 46.1136 105.481 46.8034 105.818C47.4931 106.154 48.032 106.628 48.4198 107.239C48.8056 107.849 48.9985 108.577 48.9985 109.423C48.9985 110.26 48.8057 110.986 48.4198 111.601C48.032 112.216 47.4931 112.692 46.8034 113.027C46.1136 113.365 45.3147 113.534 44.4068 113.534H40.52V105.312H44.4068ZM42.8464 111.677H44.3145C44.7843 111.677 45.1937 111.589 45.5423 111.414C45.889 111.237 46.1601 110.978 46.3558 110.639C46.5515 110.298 46.6497 109.893 46.6497 109.423C46.6497 108.946 46.5516 108.538 46.3558 108.201C46.1601 107.865 45.889 107.609 45.5423 107.432C45.2373 107.278 44.8857 107.192 44.4879 107.173L44.3145 107.169H42.8464V111.677Z" fill="#111111"/>
<path d="M51.9822 105.312L53.6363 110.561L55.3772 105.312H57.5135L59.175 110.611L60.8971 105.312H63.1175L60.4497 113.534H57.9608L56.3862 108.525L54.7423 113.534H52.2536L49.5859 105.312H51.9822Z" fill="#111111"/>
<path d="M66.4535 113.534H64.1271V105.312H66.4535V113.534Z" fill="#111111"/>
<path fill-rule="evenodd" clip-rule="evenodd" d="M71.996 105.312C72.9039 105.312 73.7029 105.481 74.3926 105.818C75.0805 106.154 75.6183 106.628 76.006 107.239C76.3938 107.849 76.5877 108.577 76.5877 109.423C76.5877 110.26 76.3938 110.986 76.006 111.601C75.6183 112.216 75.0805 112.692 74.3926 113.027C73.7029 113.365 72.9039 113.534 71.996 113.534H68.109V105.312H71.996ZM70.4329 111.677H71.901C72.3708 111.677 72.7799 111.589 73.1285 111.414C73.4771 111.237 73.7493 110.978 73.9451 110.639C74.1408 110.298 74.2386 109.893 74.2386 109.423C74.2386 108.946 74.1408 108.538 73.9451 108.201C73.7493 107.865 73.4771 107.609 73.1285 107.432C72.8235 107.279 72.4722 107.192 72.0744 107.173L71.901 107.169H70.4329V111.677Z" fill="#111111"/>
<path d="M84.2581 105.312V107.11H80.111V108.494H83.7633V110.234H80.111V111.735H84.4091V113.534H77.8098V105.312H84.2581Z" fill="#111111"/>
<path fill-rule="evenodd" clip-rule="evenodd" d="M106.269 113.534H103.847L103.207 111.937H99.7202L99.079 113.534H96.7078L100.337 105.312H102.628L106.269 113.534ZM100.408 110.223H102.519L101.464 107.593L100.408 110.223Z" fill="#111111"/>
<path fill-rule="evenodd" clip-rule="evenodd" d="M110.6 105.312C111.799 105.312 112.721 105.584 113.366 106.129C114.013 106.673 114.336 107.415 114.336 108.355C114.336 108.974 114.187 109.508 113.889 109.957C113.61 110.381 113.223 110.71 112.726 110.947L114.501 113.534H112.01L110.521 111.349H109.25V113.534H106.926V105.312H110.6ZM109.25 109.552H110.541C111.028 109.552 111.391 109.446 111.629 109.236C111.868 109.023 111.987 108.729 111.987 108.355C111.987 107.971 111.868 107.673 111.629 107.463C111.391 107.25 111.028 107.144 110.541 107.144H109.25V109.552Z" fill="#111111"/>
<path d="M144.601 105.312V107.155H142.09V113.534H139.764V107.155H137.239V105.312H144.601Z" fill="#111111"/>
<path fill-rule="evenodd" clip-rule="evenodd" d="M149.149 105.312C150.345 105.312 151.267 105.584 151.914 106.129C152.559 106.673 152.882 107.415 152.882 108.355C152.882 108.974 152.734 109.508 152.437 109.957C152.157 110.381 151.768 110.71 151.271 110.947L153.047 113.534H150.558L149.067 111.349H147.798V113.534H145.471V105.312H149.149ZM147.798 109.552H149.09C149.575 109.551 149.936 109.446 150.175 109.236C150.413 109.023 150.533 108.729 150.533 108.355C150.533 107.971 150.413 107.673 150.175 107.463C149.951 107.263 149.619 107.158 149.179 107.145L149.09 107.144H147.798V109.552Z" fill="#111111"/>
<path fill-rule="evenodd" clip-rule="evenodd" d="M162.736 113.534H160.317L159.677 111.937H156.19L155.549 113.534H153.175L156.805 105.312H159.095L162.736 113.534ZM156.877 110.223H158.989L157.933 107.59L156.877 110.223Z" fill="#111111"/>
<path d="M168.939 109.694V105.312H171.218V113.534H169.302L165.672 109.151V113.534H163.393V105.312H165.309L168.939 109.694Z" fill="#111111"/>
<path fill-rule="evenodd" clip-rule="evenodd" d="M184.218 105.312C184.969 105.312 185.617 105.433 186.161 105.676C186.706 105.918 187.127 106.269 187.426 106.727C187.722 107.186 187.87 107.728 187.87 108.355C187.87 108.973 187.722 109.509 187.426 109.962C187.127 110.417 186.706 110.768 186.161 111.014C185.617 111.26 184.969 111.383 184.218 111.383H182.786V113.534H180.46V105.312H184.218ZM182.786 109.552H184.078C184.563 109.552 184.925 109.446 185.163 109.236C185.402 109.023 185.521 108.729 185.521 108.355C185.521 107.971 185.402 107.673 185.163 107.463C184.925 107.25 184.563 107.144 184.078 107.144H182.786V109.552Z" fill="#111111"/>
<path fill-rule="evenodd" clip-rule="evenodd" d="M202.727 105.312C203.926 105.312 204.848 105.584 205.493 106.129C206.14 106.673 206.463 107.415 206.463 108.355C206.463 108.974 206.314 109.508 206.016 109.957C205.738 110.381 205.35 110.71 204.853 110.946L206.628 113.534H204.137L202.646 111.349H201.377V113.534H199.053V105.312H202.727ZM201.377 109.552H202.669C203.155 109.552 203.518 109.446 203.756 109.236C203.995 109.023 204.114 108.729 204.114 108.355C204.114 107.971 203.995 107.673 203.756 107.463C203.533 107.263 203.2 107.158 202.758 107.145L202.669 107.144H201.377V109.552Z" fill="#111111"/>
<path d="M214.332 105.312V107.155H211.818V113.534H209.492V107.155H206.967V105.312H214.332Z" fill="#111111"/>
<path fill-rule="evenodd" clip-rule="evenodd" d="M223.776 113.534H221.354L220.714 111.937H217.227L216.586 113.534H214.215L217.845 105.312H220.135L223.776 113.534ZM217.916 110.223H220.026L218.971 107.593L217.916 110.223Z" fill="#111111"/>
<path d="M231.021 105.312V107.155H228.507V113.534H226.183V107.155H223.658V105.312H231.021Z" fill="#111111"/>
<path d="M234.215 113.534H231.891V105.312H234.215V113.534Z" fill="#111111"/>
<path d="M247.721 105.312L251.351 109.691V105.312H253.63V113.534H251.714L248.088 109.155V113.534H245.808V105.312H247.721Z" fill="#111111"/>
<path fill-rule="evenodd" clip-rule="evenodd" d="M270.962 105.312C272.042 105.312 272.848 105.51 273.381 105.905C273.912 106.3 274.178 106.82 274.178 107.463C274.178 107.884 274.067 108.253 273.845 108.57C273.652 108.845 273.392 109.069 273.066 109.243C273.117 109.261 273.167 109.28 273.216 109.3C273.647 109.475 273.981 109.73 274.22 110.063C274.459 110.395 274.578 110.801 274.578 111.28C274.578 111.992 274.291 112.546 273.716 112.941C273.14 113.336 272.301 113.534 271.197 113.534H266.756V105.312H270.962ZM269.058 111.853H271.007C271.408 111.853 271.712 111.785 271.918 111.649C272.125 111.511 272.229 111.301 272.229 111.02C272.229 110.738 272.125 110.528 271.918 110.39C271.737 110.271 271.482 110.204 271.153 110.189L271.007 110.186H269.058V111.853ZM269.058 108.578H270.655C271.046 108.578 271.34 108.511 271.535 108.377C271.731 108.245 271.829 108.045 271.829 107.779C271.829 107.512 271.731 107.314 271.535 107.186C271.364 107.073 271.118 107.01 270.797 106.996L270.655 106.993H269.058V108.578Z" fill="#111111"/>
<path d="M277.187 105.312L279.132 108.575L281.085 105.312H283.339L280.193 110.588V113.534H277.867V110.553L274.732 105.312H277.187Z" fill="#111111"/>
<path fill-rule="evenodd" clip-rule="evenodd" d="M295.92 113.534H293.498L292.858 111.937H289.372L288.73 113.534H286.359L289.989 105.312H292.279L295.92 113.534ZM290.06 110.223H292.17L291.115 107.593L290.06 110.223Z" fill="#111111"/>
<path d="M298.901 113.534H296.577V105.312H298.901V113.534Z" fill="#111111"/>
<path fill-rule="evenodd" clip-rule="evenodd" d="M304.233 105.312C305.432 105.312 306.354 105.584 306.999 106.129C307.646 106.673 307.97 107.415 307.97 108.355C307.97 108.974 307.821 109.508 307.522 109.957C307.244 110.381 306.856 110.71 306.359 110.946L308.134 113.534H305.643L304.152 111.35H302.883V113.534H300.559V105.312H304.233ZM302.883 109.552H304.175C304.661 109.552 305.024 109.446 305.263 109.236C305.501 109.023 305.621 108.729 305.621 108.355C305.621 107.971 305.501 107.673 305.263 107.463C305.024 107.25 304.661 107.144 304.175 107.144H302.883V109.552Z" fill="#111111"/>
<path d="M345.055 105.147C345.596 105.147 346.126 105.208 346.646 105.329C347.167 105.45 347.631 105.628 348.039 105.863L347.32 107.591C346.929 107.379 346.542 107.22 346.16 107.116C345.776 107.01 345.404 106.956 345.044 106.956C344.722 106.956 344.463 106.99 344.267 107.057C344.071 107.122 343.93 107.21 343.844 107.32C343.759 107.43 343.716 107.556 343.716 107.698C343.716 107.876 343.8 108.019 343.967 108.125C344.137 108.232 344.361 108.317 344.638 108.383C344.916 108.45 345.221 108.519 345.553 108.589C345.887 108.66 346.22 108.748 346.551 108.852C346.885 108.959 347.189 109.099 347.463 109.275C347.737 109.452 347.958 109.683 348.126 109.968C348.294 110.255 348.377 110.614 348.377 111.045C348.377 111.522 348.243 111.962 347.975 112.365C347.704 112.767 347.301 113.091 346.764 113.335C346.227 113.577 345.551 113.699 344.737 113.699C344.064 113.699 343.416 113.614 342.793 113.444C342.17 113.276 341.663 113.059 341.272 112.792L342.035 111.078C342.404 111.313 342.829 111.507 343.31 111.66C343.791 111.813 344.271 111.889 344.75 111.889C345.071 111.889 345.329 111.859 345.525 111.8C345.721 111.742 345.863 111.665 345.953 111.568C346.042 111.469 346.087 111.353 346.087 111.221C346.087 111.033 346.001 110.884 345.83 110.774C345.658 110.664 345.435 110.573 345.161 110.502C344.887 110.433 344.584 110.363 344.25 110.293C343.918 110.222 343.585 110.131 343.251 110.021C342.92 109.911 342.617 109.769 342.343 109.594C342.069 109.416 341.845 109.185 341.672 108.9C341.5 108.615 341.414 108.253 341.414 107.815C341.414 107.321 341.55 106.874 341.82 106.475C342.09 106.077 342.495 105.755 343.034 105.511C343.574 105.268 344.248 105.147 345.055 105.147Z" fill="#111111"/>
<path fill-rule="evenodd" clip-rule="evenodd" d="M325.464 105.312C326.545 105.312 327.351 105.51 327.883 105.905C328.416 106.3 328.682 106.82 328.682 107.463C328.682 107.884 328.57 108.253 328.347 108.57C328.156 108.845 327.896 109.069 327.569 109.242C327.621 109.26 327.671 109.279 327.72 109.3C328.151 109.475 328.486 109.73 328.724 110.063C328.963 110.395 329.082 110.801 329.082 111.28C329.082 111.992 328.794 112.546 328.218 112.941C327.642 113.336 326.802 113.534 325.699 113.534H321.261V105.312H325.464ZM323.562 111.853H325.511C325.91 111.853 326.214 111.785 326.423 111.649C326.63 111.511 326.733 111.301 326.733 111.02C326.733 110.738 326.63 110.528 326.423 110.39C326.24 110.271 325.985 110.204 325.656 110.189L325.511 110.186H323.562V111.853ZM323.562 108.579H325.159C325.55 108.578 325.844 108.511 326.04 108.377C326.235 108.245 326.333 108.045 326.333 107.779C326.333 107.512 326.235 107.314 326.04 107.186C325.868 107.073 325.622 107.01 325.301 106.996L325.159 106.993H323.562V108.579Z" fill="#111111"/>
<path d="M333.634 108.575L335.59 105.312H337.843L334.695 110.593V113.534H332.371V110.554L329.233 105.312H331.688L333.634 108.575Z" fill="#111111"/>
<path d="M355.894 105.312V107.11H351.75V108.494H355.402V110.234H351.75V111.735H356.048V113.534H349.448V105.312H355.894Z" fill="#111111"/>
<path fill-rule="evenodd" clip-rule="evenodd" d="M362.273 105.312L365.913 113.534H363.495L362.854 111.937H359.367L358.727 113.534H356.353L359.982 105.312H362.273ZM360.055 110.223H362.165L361.109 107.593L360.055 110.223Z" fill="#111111"/>
<path fill-rule="evenodd" clip-rule="evenodd" d="M383.245 105.312C384.325 105.312 385.131 105.51 385.664 105.905C386.196 106.3 386.461 106.82 386.461 107.463C386.461 107.884 386.35 108.253 386.129 108.57C385.936 108.845 385.676 109.069 385.349 109.243C385.4 109.261 385.45 109.28 385.499 109.3C385.93 109.475 386.265 109.73 386.503 110.063C386.742 110.395 386.861 110.801 386.861 111.28C386.861 111.992 386.574 112.546 386 112.941C385.424 113.336 384.584 113.534 383.48 113.534H379.04V105.312H383.245ZM381.341 111.853H383.29C383.691 111.853 383.995 111.785 384.202 111.649C384.409 111.511 384.512 111.301 384.512 111.02C384.512 110.738 384.409 110.528 384.202 110.39C384.021 110.271 383.765 110.204 383.436 110.189L383.29 110.186H381.341V111.853ZM381.341 108.578H382.938C383.329 108.578 383.623 108.511 383.819 108.377C384.014 108.245 384.112 108.045 384.112 107.779C384.112 107.512 384.014 107.314 383.819 107.186C383.647 107.073 383.401 107.01 383.08 106.996L382.938 106.993H381.341V108.578Z" fill="#111111"/>
<path d="M391.415 108.575L393.368 105.312H395.622L392.476 110.588V113.534H390.15V110.553L387.015 105.312H389.47L391.415 108.575Z" fill="#111111"/>
<path fill-rule="evenodd" clip-rule="evenodd" d="M401.953 105.312V111.691H405.876V113.375L409.436 105.312H411.726L415.368 113.534H412.946L412.305 111.937H408.819L408.178 113.534H399.629V105.312H401.953ZM409.507 110.223H411.618L410.563 107.593L409.507 110.223Z" fill="#111111"/>
<path d="M421.567 109.691V105.312H423.846V113.534H421.931L418.304 109.155V113.534H416.025V105.312H417.938L421.567 109.691Z" fill="#111111"/>
<path fill-rule="evenodd" clip-rule="evenodd" d="M429.377 105.312C430.285 105.312 431.084 105.481 431.774 105.818C432.464 106.154 433.003 106.627 433.39 107.239C433.776 107.848 433.969 108.577 433.969 109.423C433.969 110.26 433.776 110.986 433.39 111.601C433.003 112.217 432.464 112.692 431.774 113.027C431.084 113.365 430.285 113.534 429.377 113.534H425.491V105.312H429.377ZM427.817 111.677H429.285C429.755 111.677 430.164 111.589 430.513 111.414C430.86 111.237 431.131 110.979 431.327 110.639C431.522 110.298 431.62 109.893 431.62 109.423C431.62 108.946 431.522 108.538 431.327 108.201C431.131 107.865 430.86 107.609 430.513 107.432C430.164 107.257 429.755 107.169 429.285 107.169H427.817V111.677Z" fill="#111111"/>
<path d="M242.631 23.4897C245.953 23.4898 248.922 24.0436 251.54 25.1509C254.157 26.2583 256.322 27.8521 258.033 29.9326L251.691 35.6707C250.483 34.3621 249.183 33.3806 247.79 32.7263C246.398 32.0719 244.845 31.7446 243.134 31.7446C241.624 31.7446 240.248 31.9796 239.007 32.4494C237.765 32.9192 236.708 33.5987 235.836 34.488C234.963 35.3772 234.284 36.4342 233.797 37.659C233.31 38.8838 233.067 40.268 233.067 41.8116C233.067 43.288 233.31 44.6472 233.797 45.8887C234.284 47.1303 234.963 48.1959 235.836 49.0852C236.708 49.9744 237.757 50.6623 238.981 51.1489C240.206 51.6354 241.557 51.8786 243.033 51.8786C244.51 51.8786 245.953 51.6355 247.362 51.1489C247.714 51.0276 248.066 50.8845 248.419 50.7204V41.0568H257.228V55.6537L257.038 55.7881C255.068 57.1656 252.799 58.2284 250.231 58.9761C247.58 59.7478 244.98 60.1337 242.429 60.1337C239.644 60.1337 237.06 59.6889 234.678 58.7997C232.295 57.9104 230.24 56.6437 228.512 54.9994C226.784 53.3551 225.433 51.4172 224.46 49.1857C223.487 46.9542 223 44.4961 223 41.8116C223 39.1271 223.487 36.6692 224.46 34.4377C225.433 32.2062 226.792 30.2683 228.537 28.624C230.282 26.9797 232.354 25.7127 234.753 24.8235C237.153 23.9343 239.778 23.4897 242.631 23.4897Z" fill="#111111"/>
<path d="M291.858 23.4897C294.174 23.4897 296.447 23.7498 298.679 24.27C300.91 24.7901 302.898 25.5536 304.643 26.5603L301.573 33.9596C299.895 33.0535 298.234 32.374 296.59 31.921C294.946 31.468 293.352 31.2413 291.808 31.2413C290.432 31.2413 289.325 31.384 288.486 31.6692C287.647 31.9544 287.043 32.3319 286.674 32.8017C286.305 33.2714 286.12 33.8084 286.12 34.4123C286.12 35.1841 286.481 35.7966 287.202 36.2496C287.924 36.7026 288.88 37.0718 290.071 37.357C291.263 37.6422 292.571 37.936 293.997 38.238C295.424 38.54 296.85 38.9175 298.276 39.3705C299.702 39.8235 301.003 40.4274 302.177 41.1824C303.351 41.9374 304.299 42.9274 305.021 44.1522C305.742 45.377 306.103 46.9124 306.103 48.758C306.103 50.805 305.524 52.6926 304.367 54.4207C303.209 56.1489 301.481 57.533 299.182 58.5733C296.883 59.6135 293.989 60.1337 290.499 60.1337C287.613 60.1337 284.837 59.7729 282.169 59.0514C279.501 58.33 277.328 57.3987 275.651 56.2578L278.922 48.9091C280.499 49.9157 282.32 50.7461 284.384 51.4004C286.447 52.0548 288.503 52.3821 290.55 52.3822C291.925 52.3822 293.033 52.2562 293.872 52.0045C294.711 51.7528 295.323 51.4173 295.709 50.9979C296.095 50.5784 296.288 50.0833 296.288 49.5128C296.288 48.7075 295.919 48.0699 295.18 47.6002C294.442 47.1304 293.486 46.7446 292.311 46.4426C291.137 46.1405 289.837 45.8385 288.41 45.5365C286.984 45.2345 285.558 44.8486 284.132 44.3788C282.706 43.9091 281.405 43.2966 280.231 42.5415C279.057 41.7865 278.1 40.7965 277.362 39.5717C276.624 38.3469 276.255 36.795 276.255 34.9159C276.255 32.8018 276.833 30.889 277.991 29.1776C279.149 27.4662 280.885 26.0904 283.201 25.0502C285.516 24.0099 288.402 23.4897 291.858 23.4897Z" fill="#111111"/>
<path d="M373.502 23.4897C376.757 23.4898 379.668 24.0603 382.235 25.2012C384.802 26.3421 386.941 27.9863 388.653 30.1339L382.311 35.8722C381.17 34.53 379.92 33.5064 378.56 32.8017C377.201 32.097 375.683 31.7446 374.005 31.7446C372.562 31.7446 371.237 31.9796 370.029 32.4494C368.821 32.9192 367.789 33.5987 366.933 34.488C366.077 35.3772 365.406 36.4426 364.92 37.6842C364.433 38.9257 364.19 40.3016 364.19 41.8116C364.19 43.3216 364.433 44.6977 364.92 45.9393C365.406 47.1808 366.077 48.2462 366.933 49.1354C367.789 50.0247 368.821 50.7042 370.029 51.174C371.237 51.6438 372.562 51.8786 374.005 51.8786C375.683 51.8786 377.201 51.5264 378.56 50.8217C379.92 50.1171 381.17 49.0934 382.311 47.7512L388.653 53.4895C386.941 55.6036 384.802 57.2394 382.235 58.3971C379.668 59.5548 376.757 60.1337 373.502 60.1337C370.717 60.1337 368.141 59.6889 365.775 58.7997C363.41 57.9104 361.363 56.6437 359.635 54.9994C357.906 53.3551 356.556 51.4172 355.583 49.1857C354.609 46.9542 354.123 44.4961 354.123 41.8116C354.123 39.1271 354.609 36.6692 355.583 34.4377C356.556 32.2062 357.906 30.2683 359.635 28.624C361.363 26.9797 363.41 25.7127 365.775 24.8235C368.141 23.9343 370.717 23.4897 373.502 23.4897Z" fill="#111111"/>
<path d="M405.163 23.4897C407.478 23.4897 409.751 23.7498 411.983 24.27C414.214 24.7901 416.203 25.5536 417.948 26.5603L414.877 33.9596C413.199 33.0535 411.538 32.374 409.894 31.921C408.25 31.468 406.656 31.2413 405.112 31.2413C403.737 31.2413 402.629 31.384 401.79 31.6692C400.951 31.9544 400.347 32.3319 399.978 32.8017C399.609 33.2714 399.424 33.8084 399.424 34.4123C399.424 35.1841 399.785 35.7966 400.506 36.2496C401.228 36.7027 402.184 37.0718 403.376 37.357C404.567 37.6422 405.876 37.936 407.302 38.238C408.728 38.54 410.154 38.9175 411.58 39.3705C413.006 39.8235 414.307 40.4274 415.481 41.1824C416.656 41.9374 417.604 42.9274 418.325 44.1522C419.047 45.377 419.407 46.9124 419.407 48.758C419.407 50.805 418.829 52.6926 417.671 54.4207C416.513 56.1489 414.785 57.533 412.486 58.5733C410.188 59.6135 407.293 60.1337 403.803 60.1337C400.918 60.1337 398.141 59.7729 395.473 59.0514C392.805 58.33 390.632 57.3987 388.955 56.2578L392.226 48.9091L392.525 49.0956C394.032 50.0187 395.753 50.7869 397.688 51.4004C399.752 52.0548 401.807 52.3822 403.854 52.3822C405.23 52.3822 406.337 52.2561 407.176 52.0045C408.015 51.7528 408.627 51.4173 409.013 50.9979C409.399 50.5784 409.592 50.0833 409.592 49.5128C409.592 48.7075 409.223 48.0699 408.485 47.6002C407.746 47.1304 406.79 46.7446 405.616 46.4426C404.441 46.1405 403.141 45.8385 401.715 45.5365C400.288 45.2344 398.862 44.8486 397.436 44.3788C396.01 43.9091 394.71 43.2966 393.535 42.5415C392.361 41.7865 391.404 40.7965 390.666 39.5717C389.928 38.3469 389.559 36.795 389.559 34.9159C389.559 32.8018 390.138 30.889 391.295 29.1776C392.453 27.4662 394.19 26.0904 396.505 25.0502C398.82 24.0099 401.706 23.4897 405.163 23.4897Z" fill="#111111"/>
<path d="M272.278 59.4288H262.312V24.1943H272.278V59.4288Z" fill="#111111"/>
<path d="M337.663 24.1943V32.0971H326.891V59.4288H316.925V32.0971H306.103V24.1943H337.663Z" fill="#111111"/>
<path d="M350.096 59.4288H340.13V24.1943H350.096V59.4288Z" fill="#111111"/>
<path fill-rule="evenodd" clip-rule="evenodd" d="M310.122 0.366394C311.58 0.366394 312.913 0.59856 314.122 1.06276C315.331 1.52509 316.382 2.18024 317.273 3.02843C318.166 3.87853 318.865 4.86963 319.37 6.00123C319.875 7.13281 320.128 8.3763 320.128 9.73158C320.128 11.0869 319.875 12.3349 319.37 13.4758C318.865 14.6149 318.166 15.6049 317.273 16.4456C316.382 17.2864 315.331 17.9381 314.122 18.4004C312.913 18.8646 311.58 19.0968 310.122 19.0968C308.681 19.0967 307.352 18.8646 306.135 18.4004C304.916 17.9381 303.856 17.2827 302.955 16.4345C302.055 15.5844 301.357 14.5935 300.861 13.4619C300.363 12.3303 300.114 11.0869 300.114 9.73158C300.114 8.37631 300.363 7.1328 300.861 6.00123C301.357 4.86963 302.055 3.87853 302.955 3.02843C303.856 2.18022 304.916 1.52509 306.135 1.06276C307.352 0.598569 308.681 0.366403 310.122 0.366394ZM310.122 4.58611C309.436 4.58612 308.797 4.70639 308.204 4.94685C307.613 5.18734 307.099 5.53403 306.661 5.98703C306.224 6.44191 305.881 6.98277 305.632 7.60916C305.384 8.23553 305.26 8.94302 305.26 9.73158C305.26 10.5034 305.384 11.2062 305.632 11.8401C305.881 12.4757 306.224 13.021 306.661 13.4758C307.099 13.9289 307.613 14.2755 308.204 14.516C308.797 14.7565 309.436 14.8768 310.122 14.8768C310.809 14.8768 311.447 14.7565 312.038 14.516C312.629 14.2755 313.144 13.9288 313.582 13.4758C314.02 13.021 314.363 12.4758 314.611 11.8401C314.859 11.2062 314.983 10.5034 314.983 9.73158C314.983 8.94305 314.859 8.23552 314.611 7.60916C314.363 6.98277 314.02 6.44191 313.582 5.98703C313.144 5.53407 312.629 5.18733 312.038 4.94685C311.447 4.70636 310.809 4.58611 310.122 4.58611Z" fill="#111111"/>
<path d="M157.999 18.736H152.904V0.72714H157.999V18.736Z" fill="#111111"/>
<path d="M165.82 0.72714L173.771 10.325V0.72714H178.759V18.736H174.567L166.617 9.13789V18.736H161.626V0.72714H165.82Z" fill="#111111"/>
<path d="M196.796 0.72714V4.76525H191.29V18.736H186.195V4.76525H180.664V0.72714H196.796Z" fill="#111111"/>
<path d="M212.822 0.72714V4.66448H203.742V7.69846H211.743V11.5072H203.742V14.7987H213.158V18.736H198.697V0.72714H212.822Z" fill="#111111"/>
<path fill-rule="evenodd" clip-rule="evenodd" d="M224.038 0.72714C226.663 0.72714 228.683 1.32272 230.098 2.51394C231.513 3.70706 232.221 5.33282 232.221 7.39096C232.221 8.74626 231.894 9.91693 231.242 10.9031C230.631 11.8292 229.781 12.5506 228.691 13.0673L232.581 18.736H227.126L223.862 13.9513H221.08V18.736H215.988V0.72714H224.038ZM221.08 10.0139H223.91C224.974 10.0139 225.767 9.78265 226.289 9.32031C226.813 8.85612 227.075 8.21308 227.075 7.39096C227.075 6.55018 226.813 5.89856 226.289 5.43622C225.767 4.97206 224.974 4.73985 223.91 4.73985H221.08V10.0139Z" fill="#111111"/>
<path d="M239.217 0.72714L247.167 10.3223V0.72714H252.159V18.736H247.964L240.017 9.14144V18.736H235.025V0.72714H239.217Z" fill="#111111"/>
<path fill-rule="evenodd" clip-rule="evenodd" d="M274.541 18.736H269.242L267.838 15.2375H260.201L258.797 18.736H253.599L261.549 0.72714H266.566L274.541 18.736ZM261.708 11.4821H266.33L264.019 5.72296L261.708 11.4821Z" fill="#111111"/>
<path d="M290.414 0.72714V4.76525H284.91V18.736H279.815V4.76525H274.284V0.72714H290.414Z" fill="#111111"/>
<path d="M297.413 18.736H292.318V0.72714H297.413V18.736Z" fill="#111111"/>
<path d="M334.949 10.325V0.72714H339.938V18.736H335.746L327.796 9.13789V18.736H322.804V0.72714H326.999L334.949 10.325Z" fill="#111111"/>
<path fill-rule="evenodd" clip-rule="evenodd" d="M362.32 18.736H357.021L355.617 15.2375H347.98L346.576 18.736H341.381L349.328 0.72714H354.345L362.32 18.736ZM349.487 11.4821H354.11L351.799 5.71995L349.487 11.4821Z" fill="#111111"/>
<path d="M368.855 0.72714V14.6979H377.449V18.736H363.763V0.72714H368.855Z" fill="#111111"/>
<path d="M26.2552 0.00564575V48.3133H51.2018V59.0041H13.9819V0.00564575H26.2552Z" fill="#5E9BA5"/>
<path d="M86.0843 25.576L104.814 0.00564575H116.693V59.0041H104.417V20.9857L86.5985 43.9565H85.0157L67.1972 20.1541V59.0041H54.924V0.00564575H66.8029L86.0843 25.576Z" fill="#5E9BA5"/>
<path d="M145.913 39.9968C145.913 43.798 145.094 47.1249 143.458 49.9772C141.823 52.8276 139.487 55.0444 136.45 56.6271C133.415 58.2117 129.838 59.004 125.72 59.0041H122.158V47.9162H125.72C128.095 47.9162 130.009 47.2433 131.461 45.8973C132.914 44.5513 133.64 42.7699 133.64 40.5533V0.00564575H145.913V39.9968Z" fill="#5E9BA5"/>
</g>
<defs>
<clipPath id="clip0_4033_150058">
<rect width="434" height="113.813" fill="white"/>
</clipPath>
</defs>
</svg>
