<svg width="1680" height="407" viewBox="0 0 1680 407" fill="none" xmlns="http://www.w3.org/2000/svg">
<g clip-path="url(#clip0_505_51858)">
<path d="M592.55 211H496.79V85H532.43V182.74H592.55V211Z" fill="white"/>
<path d="M374 332H382L402 300H424C427.32 300 430 297.32 430 294C430 290.68 427.32 288 424 288H402L382 256H374L384 288H362L356 280H350L354 294L350 308H356L362 300H384L374 332Z" fill="#D89B2A"/>
<path d="M868.8 328.4C864.516 328.4 860.232 327.14 856.308 324.872C855.12 324.188 853.68 324.188 852.456 324.872C848.676 327.099 844.369 328.274 839.982 328.274C835.595 328.274 831.288 327.099 827.508 324.872C826.32 324.188 824.88 324.188 823.656 324.872C819.768 327.14 815.484 328.4 811.2 328.4H807.6C805.62 328.4 804 330.02 804 332C804 333.98 805.62 335.6 807.6 335.6H811.2C816.168 335.6 821.064 334.34 825.6 332.036C830.055 334.325 834.991 335.519 840 335.519C845.009 335.519 849.945 334.325 854.4 332.036C858.936 334.376 863.832 335.6 868.8 335.6H872.4C874.38 335.6 876 333.98 876 332C876 330.02 874.38 328.4 872.4 328.4H868.8ZM811.02 321.2H811.2C815.772 321.2 819.912 319.22 823.188 316.412C824.592 315.188 826.608 315.188 828.012 316.412C834.708 322.136 845.22 322.136 851.916 316.412C853.32 315.188 855.336 315.188 856.74 316.412C860.016 319.22 864.192 321.2 868.8 321.2H868.836L875.748 297.044C876.576 294.092 874.74 291.068 871.752 290.384L865.2 289.448V274.4C865.2 270.44 861.96 267.2 858 267.2H847.2V260H832.8V267.2H822C818.04 267.2 814.8 270.44 814.8 274.4V289.448L808.284 290.42C805.26 291.104 803.46 294.128 804.288 297.08L811.02 321.2ZM822 274.4H858V288.692L840 285.2L822 288.692V274.4Z" fill="#D89B2A"/>
<path d="M1318.8 281.6H1308V267.2H1257.6C1253.64 267.2 1250.4 270.44 1250.4 274.4V314H1257.6C1257.6 319.976 1262.42 324.8 1268.4 324.8C1274.38 324.8 1279.2 319.976 1279.2 314H1300.8C1300.8 319.976 1305.62 324.8 1311.6 324.8C1317.58 324.8 1322.4 319.976 1322.4 314H1329.6V296L1318.8 281.6ZM1268.4 319.4C1265.41 319.4 1263 316.988 1263 314C1263 311.012 1265.41 308.6 1268.4 308.6C1271.39 308.6 1273.8 311.012 1273.8 314C1273.8 316.988 1271.39 319.4 1268.4 319.4ZM1317 287L1324.06 296H1308V287H1317ZM1311.6 319.4C1308.61 319.4 1306.2 316.988 1306.2 314C1306.2 311.012 1308.61 308.6 1311.6 308.6C1314.59 308.6 1317 311.012 1317 314C1317 316.988 1314.59 319.4 1311.6 319.4Z" fill="#D89B2A"/>
<path d="M19.1099 406H10.2099L0.669922 376.6H9.23992L17.2599 402.05H12.9399L21.3799 376.6H29.0199L36.9999 402.05H32.8399L41.1199 376.6H49.0599L39.5199 406H30.6199L23.8099 384.37H26.2099L19.1099 406ZM67.4899 406.59C65.1433 406.59 62.9733 406.21 60.9799 405.45C58.9933 404.696 57.2666 403.626 55.7999 402.24C54.3266 400.853 53.1833 399.236 52.3699 397.39C51.5633 395.543 51.1599 393.513 51.1599 391.3C51.1599 389.086 51.5633 387.056 52.3699 385.21C53.1833 383.363 54.3266 381.746 55.7999 380.36C57.2666 378.973 58.9933 377.903 60.9799 377.15C62.9733 376.39 65.1433 376.01 67.4899 376.01C69.8699 376.01 72.0499 376.39 74.0299 377.15C76.0033 377.903 77.7166 378.973 79.1699 380.36C80.6233 381.746 81.7633 383.363 82.5899 385.21C83.4166 387.056 83.8299 389.086 83.8299 391.3C83.8299 393.513 83.4166 395.55 82.5899 397.41C81.7633 399.27 80.6233 400.886 79.1699 402.26C77.7166 403.633 76.0033 404.696 74.0299 405.45C72.0499 406.21 69.8699 406.59 67.4899 406.59ZM67.4899 399.7C68.6099 399.7 69.6533 399.503 70.6199 399.11C71.5866 398.716 72.4266 398.15 73.1399 397.41C73.8533 396.67 74.4133 395.78 74.8199 394.74C75.2266 393.706 75.4299 392.56 75.4299 391.3C75.4299 390.013 75.2266 388.86 74.8199 387.84C74.4133 386.813 73.8533 385.93 73.1399 385.19C72.4266 384.45 71.5866 383.883 70.6199 383.49C69.6533 383.096 68.6099 382.9 67.4899 382.9C66.3699 382.9 65.3299 383.096 64.3699 383.49C63.4033 383.883 62.5599 384.45 61.8399 385.19C61.1266 385.93 60.5699 386.813 60.1699 387.84C59.7633 388.86 59.5599 390.013 59.5599 391.3C59.5599 392.56 59.7633 393.706 60.1699 394.74C60.5699 395.78 61.1266 396.67 61.8399 397.41C62.5599 398.15 63.4033 398.716 64.3699 399.11C65.3299 399.503 66.3699 399.7 67.4899 399.7ZM96.5199 406H88.1999V376.6H101.35C105.63 376.6 108.927 377.573 111.24 379.52C113.547 381.466 114.7 384.12 114.7 387.48C114.7 389.693 114.17 391.603 113.11 393.21C112.043 394.823 110.537 396.056 108.59 396.91C106.643 397.763 104.327 398.19 101.64 398.19H92.8199L96.5199 394.7V406ZM115.29 406H106.39L99.0799 395.29H107.94L115.29 406ZM96.5199 379.33V395.58L92.8199 391.76H101.14C102.873 391.76 104.167 391.383 105.02 390.63C105.873 389.87 106.3 388.82 106.3 387.48C106.3 386.106 105.873 385.043 105.02 384.29C104.167 383.53 102.873 383.15 101.14 383.15H92.8199L96.5199 379.33ZM141.62 406H119.28V376.6H127.6V399.41H141.62V406ZM158.8 406H144.9V376.6H158.8C162.047 376.6 164.903 377.203 167.37 378.41C169.837 379.61 171.763 381.303 173.15 383.49C174.53 385.67 175.22 388.273 175.22 391.3C175.22 394.293 174.53 396.89 173.15 399.09C171.763 401.29 169.837 402.99 167.37 404.19C164.903 405.396 162.047 406 158.8 406ZM153.22 383.24V399.36H158.47C160.15 399.36 161.613 399.046 162.86 398.42C164.1 397.786 165.07 396.863 165.77 395.65C166.47 394.43 166.82 392.98 166.82 391.3C166.82 389.593 166.47 388.136 165.77 386.93C165.07 385.73 164.1 384.813 162.86 384.18C161.613 383.553 160.15 383.24 158.47 383.24H153.22ZM195.76 406H186.86L177.32 376.6H185.89L193.91 402.05H189.59L198.03 376.6H205.67L213.65 402.05H209.5L217.77 376.6H225.71L216.17 406H207.27L200.47 384.37H202.86L195.76 406ZM237.64 406H229.32V376.6H237.64V406ZM257.46 406H243.56V376.6H257.46C260.707 376.6 263.563 377.203 266.03 378.41C268.49 379.61 270.413 381.303 271.8 383.49C273.187 385.67 273.88 388.273 273.88 391.3C273.88 394.293 273.187 396.89 271.8 399.09C270.413 401.29 268.49 402.99 266.03 404.19C263.563 405.396 260.707 406 257.46 406ZM251.87 383.24V399.36H257.12C258.8 399.36 260.263 399.046 261.51 398.42C262.757 397.786 263.73 396.863 264.43 395.65C265.13 394.43 265.48 392.98 265.48 391.3C265.48 389.593 265.13 388.136 264.43 386.93C263.73 385.73 262.757 384.813 261.51 384.18C260.263 383.553 258.8 383.24 257.12 383.24H251.87ZM301.85 406H278.25V376.6H301.31V383.03H286.48V399.57H301.85V406ZM299.54 394.2H285.89V387.98H299.54V394.2ZM333.35 406.59C331.03 406.59 328.883 406.22 326.91 405.48C324.937 404.733 323.227 403.673 321.78 402.3C320.34 400.933 319.213 399.316 318.4 397.45C317.587 395.59 317.18 393.54 317.18 391.3C317.18 389.06 317.587 387.01 318.4 385.15C319.213 383.283 320.34 381.666 321.78 380.3C323.227 378.926 324.937 377.87 326.91 377.13C328.883 376.383 331.03 376.01 333.35 376.01C336.07 376.01 338.5 376.486 340.64 377.44C342.78 378.393 344.567 379.766 346 381.56L340.7 386.34C339.753 385.22 338.713 384.366 337.58 383.78C336.44 383.193 335.17 382.9 333.77 382.9C332.57 382.9 331.467 383.096 330.46 383.49C329.447 383.883 328.583 384.45 327.87 385.19C327.157 385.93 326.597 386.82 326.19 387.86C325.783 388.893 325.58 390.04 325.58 391.3C325.58 392.56 325.783 393.706 326.19 394.74C326.597 395.78 327.157 396.67 327.87 397.41C328.583 398.15 329.447 398.716 330.46 399.11C331.467 399.503 332.57 399.7 333.77 399.7C335.17 399.7 336.44 399.406 337.58 398.82C338.713 398.233 339.753 397.38 340.7 396.26L346 401.04C344.567 402.806 342.78 404.173 340.64 405.14C338.5 406.106 336.07 406.59 333.35 406.59ZM354.31 406H345.83L358.81 376.6H367L380.02 406H371.36L361.2 380.67H364.48L354.31 406ZM371.57 400.29H352.93L355.07 394.16H369.43L371.57 400.29ZM390.68 406H382.37V376.6H395.51C399.797 376.6 403.093 377.573 405.4 379.52C407.713 381.466 408.87 384.12 408.87 387.48C408.87 389.693 408.337 391.603 407.27 393.21C406.21 394.823 404.707 396.056 402.76 396.91C400.813 397.763 398.497 398.19 395.81 398.19H386.99L390.68 394.7V406ZM409.46 406H400.55L393.25 395.29H402.11L409.46 406ZM390.68 379.33V395.58L386.99 391.76H395.3C397.04 391.76 398.337 391.383 399.19 390.63C400.043 389.87 400.47 388.82 400.47 387.48C400.47 386.106 400.043 385.043 399.19 384.29C398.337 383.53 397.04 383.15 395.3 383.15H386.99L390.68 379.33ZM428.15 406.59C425.823 406.59 423.667 406.22 421.68 405.48C419.693 404.733 417.98 403.673 416.54 402.3C415.093 400.933 413.963 399.316 413.15 397.45C412.343 395.59 411.94 393.54 411.94 391.3C411.94 389.06 412.343 387.01 413.15 385.15C413.963 383.283 415.1 381.666 416.56 380.3C418.013 378.926 419.74 377.87 421.74 377.13C423.747 376.383 425.94 376.01 428.32 376.01C431.087 376.01 433.563 376.473 435.75 377.4C437.937 378.32 439.743 379.65 441.17 381.39L435.88 386.18C434.867 385.086 433.78 384.266 432.62 383.72C431.46 383.173 430.167 382.9 428.74 382.9C427.48 382.9 426.33 383.096 425.29 383.49C424.257 383.883 423.377 384.45 422.65 385.19C421.917 385.93 421.35 386.813 420.95 387.84C420.543 388.86 420.34 390.013 420.34 391.3C420.34 392.533 420.543 393.666 420.95 394.7C421.35 395.74 421.917 396.63 422.65 397.37C423.377 398.11 424.25 398.683 425.27 399.09C426.29 399.496 427.417 399.7 428.65 399.7C429.883 399.7 431.087 399.496 432.26 399.09C433.44 398.683 434.63 397.99 435.83 397.01L440.5 402.85C438.82 404.056 436.873 404.98 434.66 405.62C432.447 406.266 430.277 406.59 428.15 406.59ZM440.5 390.67V402.85L433.15 401.76V390.67H440.5ZM460.61 406.59C458.263 406.59 456.093 406.21 454.1 405.45C452.113 404.696 450.387 403.626 448.92 402.24C447.447 400.853 446.303 399.236 445.49 397.39C444.683 395.543 444.28 393.513 444.28 391.3C444.28 389.086 444.683 387.056 445.49 385.21C446.303 383.363 447.447 381.746 448.92 380.36C450.387 378.973 452.113 377.903 454.1 377.15C456.093 376.39 458.263 376.01 460.61 376.01C462.99 376.01 465.167 376.39 467.14 377.15C469.12 377.903 470.837 378.973 472.29 380.36C473.743 381.746 474.883 383.363 475.71 385.21C476.537 387.056 476.95 389.086 476.95 391.3C476.95 393.513 476.537 395.55 475.71 397.41C474.883 399.27 473.743 400.886 472.29 402.26C470.837 403.633 469.12 404.696 467.14 405.45C465.167 406.21 462.99 406.59 460.61 406.59ZM460.61 399.7C461.73 399.7 462.773 399.503 463.74 399.11C464.707 398.716 465.547 398.15 466.26 397.41C466.973 396.67 467.533 395.78 467.94 394.74C468.347 393.706 468.55 392.56 468.55 391.3C468.55 390.013 468.347 388.86 467.94 387.84C467.533 386.813 466.973 385.93 466.26 385.19C465.547 384.45 464.707 383.883 463.74 383.49C462.773 383.096 461.73 382.9 460.61 382.9C459.49 382.9 458.45 383.096 457.49 383.49C456.523 383.883 455.683 384.45 454.97 385.19C454.25 385.93 453.69 386.813 453.29 387.84C452.883 388.86 452.68 390.013 452.68 391.3C452.68 392.56 452.883 393.706 453.29 394.74C453.69 395.78 454.25 396.67 454.97 397.41C455.683 398.15 456.523 398.716 457.49 399.11C458.45 399.503 459.49 399.7 460.61 399.7ZM508.12 406H499.8V383.19H490.77V376.6H517.1V383.19H508.12V406ZM528.53 406H520.21V376.6H533.36C537.64 376.6 540.937 377.573 543.25 379.52C545.557 381.466 546.71 384.12 546.71 387.48C546.71 389.693 546.18 391.603 545.12 393.21C544.053 394.823 542.547 396.056 540.6 396.91C538.653 397.763 536.337 398.19 533.65 398.19H524.83L528.53 394.7V406ZM547.3 406H538.4L531.09 395.29H539.95L547.3 406ZM528.53 379.33V395.58L524.83 391.76H533.15C534.883 391.76 536.177 391.383 537.03 390.63C537.883 389.87 538.31 388.82 538.31 387.48C538.31 386.106 537.883 385.043 537.03 384.29C536.177 383.53 534.883 383.15 533.15 383.15H524.83L528.53 379.33ZM556.25 406H547.76L560.74 376.6H568.93L581.95 406H573.3L563.14 380.67H566.41L556.25 406ZM573.51 400.29H554.86L557 394.16H571.37L573.51 400.29ZM592.45 406H584.3V376.6H591.15L607.36 396.17H604.13V376.6H612.28V406H605.43L589.22 386.43H592.45V406ZM628.49 406.59C626.083 406.59 623.767 406.286 621.54 405.68C619.313 405.08 617.5 404.303 616.1 403.35L618.83 397.22C620.143 398.06 621.66 398.753 623.38 399.3C625.107 399.846 626.823 400.12 628.53 400.12C629.677 400.12 630.6 400.013 631.3 399.8C632 399.593 632.513 399.316 632.84 398.97C633.16 398.616 633.32 398.203 633.32 397.73C633.32 397.056 633.01 396.523 632.39 396.13C631.777 395.736 630.98 395.413 630 395.16C629.02 394.913 627.937 394.663 626.75 394.41C625.557 394.156 624.363 393.833 623.17 393.44C621.983 393.046 620.9 392.536 619.92 391.91C618.94 391.276 618.143 390.45 617.53 389.43C616.91 388.41 616.6 387.116 616.6 385.55C616.6 383.783 617.083 382.186 618.05 380.76C619.017 379.333 620.467 378.183 622.4 377.31C624.333 376.443 626.74 376.01 629.62 376.01C631.553 376.01 633.45 376.226 635.31 376.66C637.177 377.093 638.837 377.73 640.29 378.57L637.73 384.75C636.33 383.99 634.943 383.423 633.57 383.05C632.197 382.67 630.867 382.48 629.58 382.48C628.433 382.48 627.51 382.6 626.81 382.84C626.11 383.073 625.607 383.386 625.3 383.78C624.987 384.173 624.83 384.623 624.83 385.13C624.83 385.77 625.133 386.28 625.74 386.66C626.34 387.04 627.137 387.346 628.13 387.58C629.123 387.82 630.217 388.066 631.41 388.32C632.597 388.573 633.787 388.886 634.98 389.26C636.167 389.64 637.25 390.143 638.23 390.77C639.21 391.403 640.003 392.23 640.61 393.25C641.21 394.276 641.51 395.56 641.51 397.1C641.51 398.806 641.027 400.38 640.06 401.82C639.093 403.26 637.65 404.416 635.73 405.29C633.817 406.156 631.403 406.59 628.49 406.59ZM653.65 406H645.33V376.6H658.77C661.457 376.6 663.773 377.033 665.72 377.9C667.667 378.766 669.173 380.02 670.24 381.66C671.3 383.3 671.83 385.24 671.83 387.48C671.83 389.693 671.3 391.61 670.24 393.23C669.173 394.856 667.667 396.11 665.72 396.99C663.773 397.87 661.457 398.31 658.77 398.31H649.95L653.65 394.7V406ZM653.65 379.33V395.58L649.95 391.76H658.27C660.003 391.76 661.297 391.383 662.15 390.63C663.003 389.87 663.43 388.82 663.43 387.48C663.43 386.106 663.003 385.043 662.15 384.29C661.297 383.53 660.003 383.15 658.27 383.15H649.95L653.65 379.33ZM691.11 406.59C688.757 406.59 686.587 406.21 684.6 405.45C682.613 404.696 680.883 403.626 679.41 402.24C677.943 400.853 676.803 399.236 675.99 397.39C675.177 395.543 674.77 393.513 674.77 391.3C674.77 389.086 675.177 387.056 675.99 385.21C676.803 383.363 677.943 381.746 679.41 380.36C680.883 378.973 682.613 377.903 684.6 377.15C686.587 376.39 688.757 376.01 691.11 376.01C693.49 376.01 695.667 376.39 697.64 377.15C699.613 377.903 701.33 378.973 702.79 380.36C704.243 381.746 705.383 383.363 706.21 385.21C707.037 387.056 707.45 389.086 707.45 391.3C707.45 393.513 707.037 395.55 706.21 397.41C705.383 399.27 704.243 400.886 702.79 402.26C701.33 403.633 699.613 404.696 697.64 405.45C695.667 406.21 693.49 406.59 691.11 406.59ZM691.11 399.7C692.23 399.7 693.273 399.503 694.24 399.11C695.207 398.716 696.047 398.15 696.76 397.41C697.473 396.67 698.033 395.78 698.44 394.74C698.847 393.706 699.05 392.56 699.05 391.3C699.05 390.013 698.847 388.86 698.44 387.84C698.033 386.813 697.473 385.93 696.76 385.19C696.047 384.45 695.207 383.883 694.24 383.49C693.273 383.096 692.23 382.9 691.11 382.9C689.99 382.9 688.947 383.096 687.98 383.49C687.013 383.883 686.173 384.45 685.46 385.19C684.747 385.93 684.187 386.813 683.78 387.84C683.373 388.86 683.17 390.013 683.17 391.3C683.17 392.56 683.373 393.706 683.78 394.74C684.187 395.78 684.747 396.67 685.46 397.41C686.173 398.15 687.013 398.716 687.98 399.11C688.947 399.503 689.99 399.7 691.11 399.7ZM720.13 406H711.82V376.6H724.96C729.247 376.6 732.543 377.573 734.85 379.52C737.163 381.466 738.32 384.12 738.32 387.48C738.32 389.693 737.787 391.603 736.72 393.21C735.66 394.823 734.157 396.056 732.21 396.91C730.263 397.763 727.947 398.19 725.26 398.19H716.44L720.13 394.7V406ZM738.91 406H730L722.69 395.29H731.56L738.91 406ZM720.13 379.33V395.58L716.44 391.76H724.75C726.49 391.76 727.787 391.383 728.64 390.63C729.493 389.87 729.92 388.82 729.92 387.48C729.92 386.106 729.493 385.043 728.64 384.29C727.787 383.53 726.49 383.15 724.75 383.15H716.44L720.13 379.33ZM757.47 406H749.15V383.19H740.12V376.6H766.46V383.19H757.47V406ZM774.52 406H766.04L779.02 376.6H787.21L800.23 406H791.57L781.41 380.67H784.69L774.52 406ZM791.78 400.29H773.14L775.28 394.16H789.64L791.78 400.29ZM817.15 406H808.84V383.19H799.81V376.6H826.14V383.19H817.15V406ZM837.56 406H829.25V376.6H837.56V406ZM858.31 406.59C855.957 406.59 853.787 406.21 851.8 405.45C849.813 404.696 848.087 403.626 846.62 402.24C845.147 400.853 844.003 399.236 843.19 397.39C842.377 395.543 841.97 393.513 841.97 391.3C841.97 389.086 842.377 387.056 843.19 385.21C844.003 383.363 845.147 381.746 846.62 380.36C848.087 378.973 849.813 377.903 851.8 377.15C853.787 376.39 855.957 376.01 858.31 376.01C860.69 376.01 862.867 376.39 864.84 377.15C866.813 377.903 868.53 378.973 869.99 380.36C871.443 381.746 872.583 383.363 873.41 385.21C874.237 387.056 874.65 389.086 874.65 391.3C874.65 393.513 874.237 395.55 873.41 397.41C872.583 399.27 871.443 400.886 869.99 402.26C868.53 403.633 866.813 404.696 864.84 405.45C862.867 406.21 860.69 406.59 858.31 406.59ZM858.31 399.7C859.43 399.7 860.473 399.503 861.44 399.11C862.407 398.716 863.247 398.15 863.96 397.41C864.673 396.67 865.233 395.78 865.64 394.74C866.047 393.706 866.25 392.56 866.25 391.3C866.25 390.013 866.047 388.86 865.64 387.84C865.233 386.813 864.673 385.93 863.96 385.19C863.247 384.45 862.407 383.883 861.44 383.49C860.473 383.096 859.43 382.9 858.31 382.9C857.19 382.9 856.147 383.096 855.18 383.49C854.213 383.883 853.373 384.45 852.66 385.19C851.947 385.93 851.387 386.813 850.98 387.84C850.573 388.86 850.37 390.013 850.37 391.3C850.37 392.56 850.573 393.706 850.98 394.74C851.387 395.78 851.947 396.67 852.66 397.41C853.373 398.15 854.213 398.716 855.18 399.11C856.147 399.503 857.19 399.7 858.31 399.7ZM887.17 406H879.02V376.6H885.86L902.08 396.17H898.84V376.6H906.99V406H900.14L883.93 386.43H887.17V406Z" fill="white"/>
<path d="M929 399C931.761 399 934 396.761 934 394C934 391.239 931.761 389 929 389C926.239 389 924 391.239 924 394C924 396.761 926.239 399 929 399Z" fill="#D89B2A"/>
<path d="M969.81 406H953.93V376.6H968.97C972.83 376.6 975.713 377.307 977.62 378.72C979.52 380.133 980.47 381.99 980.47 384.29C980.47 385.797 980.073 387.117 979.28 388.25C978.48 389.39 977.36 390.287 975.92 390.94C974.473 391.6 972.756 391.93 970.77 391.93L971.61 389.91C973.683 389.91 975.49 390.227 977.03 390.86C978.57 391.487 979.766 392.397 980.62 393.59C981.473 394.777 981.9 396.227 981.9 397.94C981.9 400.487 980.873 402.467 978.82 403.88C976.76 405.293 973.756 406 969.81 406ZM962.16 382.61V399.99H969.13C970.563 399.99 971.65 399.747 972.39 399.26C973.13 398.767 973.5 398.017 973.5 397.01C973.5 396.003 973.13 395.253 972.39 394.76C971.65 394.273 970.563 394.03 969.13 394.03H961.57V388.28H967.87C969.27 388.28 970.32 388.04 971.02 387.56C971.72 387.087 972.07 386.373 972.07 385.42C972.07 384.467 971.72 383.76 971.02 383.3C970.32 382.84 969.27 382.61 967.87 382.61H962.16ZM1001.98 406H993.66V393.57L995.59 398.57L982.45 376.6H991.23L1000.72 392.52H995.64L1005.17 376.6H1013.23L1000.13 398.57L1001.98 393.57V406ZM1032.51 406H1024.03L1037.01 376.6H1045.2L1058.22 406H1049.56L1039.4 380.67H1042.68L1032.51 406ZM1049.77 400.29H1031.13L1033.27 394.16H1047.63L1049.77 400.29ZM1068.88 406H1060.57V376.6H1068.88V406ZM1083.12 406H1074.81V376.6H1087.95C1092.24 376.6 1095.53 377.573 1097.84 379.52C1100.15 381.467 1101.31 384.12 1101.31 387.48C1101.31 389.693 1100.78 391.603 1099.71 393.21C1098.65 394.823 1097.15 396.057 1095.2 396.91C1093.25 397.763 1090.94 398.19 1088.25 398.19H1079.43L1083.12 394.7V406ZM1101.9 406H1092.99L1085.68 395.29H1094.55L1101.9 406ZM1083.12 379.33V395.58L1079.43 391.76H1087.74C1089.48 391.76 1090.78 391.383 1091.63 390.63C1092.48 389.87 1092.91 388.82 1092.91 387.48C1092.91 386.107 1092.48 385.043 1091.63 384.29C1090.78 383.53 1089.48 383.15 1087.74 383.15H1079.43L1083.12 379.33Z" fill="white"/>
<path d="M1123.9 399C1126.66 399 1128.9 396.761 1128.9 394C1128.9 391.239 1126.66 389 1123.9 389C1121.14 389 1118.9 391.239 1118.9 394C1118.9 396.761 1121.14 399 1123.9 399Z" fill="#D89B2A"/>
<path d="M1164.71 406H1148.84V376.6H1163.87C1167.74 376.6 1170.62 377.306 1172.52 378.72C1174.43 380.133 1175.38 381.99 1175.38 384.29C1175.38 385.796 1174.98 387.116 1174.18 388.25C1173.39 389.39 1172.27 390.286 1170.82 390.94C1169.38 391.6 1167.67 391.93 1165.68 391.93L1166.52 389.91C1168.59 389.91 1170.4 390.226 1171.94 390.86C1173.48 391.486 1174.68 392.396 1175.53 393.59C1176.38 394.776 1176.81 396.226 1176.81 397.94C1176.81 400.486 1175.78 402.466 1173.72 403.88C1171.66 405.293 1168.66 406 1164.71 406ZM1157.07 382.61V399.99H1164.04C1165.47 399.99 1166.55 399.746 1167.3 399.26C1168.04 398.766 1168.41 398.016 1168.41 397.01C1168.41 396.003 1168.04 395.253 1167.3 394.76C1166.55 394.273 1165.47 394.03 1164.04 394.03H1156.48V388.28H1162.78C1164.18 388.28 1165.23 388.04 1165.93 387.56C1166.63 387.086 1166.98 386.373 1166.98 385.42C1166.98 384.466 1166.63 383.76 1165.93 383.3C1165.23 382.84 1164.18 382.61 1162.78 382.61H1157.07ZM1196.88 406H1188.57V393.57L1190.5 398.57L1177.35 376.6H1186.13L1195.62 392.52H1190.54L1200.08 376.6H1208.14L1195.04 398.57L1196.88 393.57V406ZM1232.79 406.59C1230.38 406.59 1228.07 406.286 1225.84 405.68C1223.61 405.08 1221.8 404.303 1220.4 403.35L1223.13 397.22C1224.45 398.06 1225.97 398.753 1227.69 399.3C1229.41 399.846 1231.13 400.12 1232.84 400.12C1233.99 400.12 1234.91 400.013 1235.61 399.8C1236.31 399.593 1236.82 399.316 1237.14 398.97C1237.46 398.616 1237.62 398.203 1237.62 397.73C1237.62 397.056 1237.31 396.523 1236.7 396.13C1236.09 395.736 1235.29 395.413 1234.31 395.16C1233.33 394.913 1232.24 394.663 1231.05 394.41C1229.86 394.156 1228.67 393.833 1227.48 393.44C1226.29 393.046 1225.21 392.536 1224.23 391.91C1223.25 391.276 1222.45 390.45 1221.83 389.43C1221.22 388.41 1220.91 387.116 1220.91 385.55C1220.91 383.783 1221.39 382.186 1222.36 380.76C1223.33 379.333 1224.77 378.183 1226.7 377.31C1228.63 376.443 1231.04 376.01 1233.93 376.01C1235.86 376.01 1237.76 376.226 1239.62 376.66C1241.48 377.093 1243.14 377.73 1244.6 378.57L1242.03 384.75C1240.63 383.99 1239.25 383.423 1237.88 383.05C1236.51 382.67 1235.18 382.48 1233.89 382.48C1232.74 382.48 1231.81 382.6 1231.11 382.84C1230.41 383.073 1229.91 383.386 1229.6 383.78C1229.29 384.173 1229.14 384.623 1229.14 385.13C1229.14 385.77 1229.44 386.28 1230.04 386.66C1230.65 387.04 1231.45 387.346 1232.44 387.58C1233.43 387.82 1234.52 388.066 1235.71 388.32C1236.9 388.573 1238.09 388.886 1239.28 389.26C1240.47 389.64 1241.56 390.143 1242.54 390.77C1243.52 391.403 1244.31 392.23 1244.91 393.25C1245.51 394.276 1245.81 395.56 1245.81 397.1C1245.81 398.806 1245.33 400.38 1244.37 401.82C1243.4 403.26 1241.96 404.416 1240.04 405.29C1238.12 406.156 1235.7 406.59 1232.79 406.59ZM1273.24 406H1249.64V376.6H1272.69V383.03H1257.87V399.57H1273.24V406ZM1270.93 394.2H1257.28V387.98H1270.93V394.2ZM1282.82 406H1274.33L1287.31 376.6H1295.5L1308.52 406H1299.87L1289.7 380.67H1292.98L1282.82 406ZM1300.08 400.29H1281.43L1283.57 394.16H1297.94L1300.08 400.29Z" fill="white"/>
<path d="M1330.5 399C1333.26 399 1335.5 396.761 1335.5 394C1335.5 391.239 1333.26 389 1330.5 389C1327.74 389 1325.5 391.239 1325.5 394C1325.5 396.761 1327.74 399 1330.5 399Z" fill="#D89B2A"/>
<path d="M1371.34 406H1355.46V376.6H1370.5C1374.36 376.6 1377.24 377.307 1379.15 378.72C1381.05 380.133 1382 381.99 1382 384.29C1382 385.797 1381.6 387.117 1380.81 388.25C1380.01 389.39 1378.89 390.287 1377.45 390.94C1376 391.6 1374.29 391.93 1372.3 391.93L1373.14 389.91C1375.21 389.91 1377.02 390.227 1378.56 390.86C1380.1 391.487 1381.3 392.397 1382.15 393.59C1383 394.777 1383.43 396.227 1383.43 397.94C1383.43 400.487 1382.4 402.467 1380.35 403.88C1378.29 405.293 1375.29 406 1371.34 406ZM1363.69 382.61V399.99H1370.66C1372.09 399.99 1373.18 399.747 1373.92 399.26C1374.66 398.767 1375.03 398.017 1375.03 397.01C1375.03 396.003 1374.66 395.253 1373.92 394.76C1373.18 394.273 1372.09 394.03 1370.66 394.03H1363.1V388.28H1369.4C1370.8 388.28 1371.85 388.04 1372.55 387.56C1373.25 387.087 1373.6 386.373 1373.6 385.42C1373.6 384.467 1373.25 383.76 1372.55 383.3C1371.85 382.84 1370.8 382.61 1369.4 382.61H1363.69ZM1403.51 406H1395.19V393.57L1397.12 398.57L1383.98 376.6H1392.76L1402.25 392.52H1397.17L1406.7 376.6H1414.76L1401.66 398.57L1403.51 393.57V406ZM1451.43 406H1429.09V376.6H1437.4V399.41H1451.43V406ZM1459.66 406H1451.18L1464.16 376.6H1472.35L1485.37 406H1476.71L1466.55 380.67H1469.83L1459.66 406ZM1476.92 400.29H1458.28L1460.42 394.16H1474.78L1476.92 400.29ZM1495.87 406H1487.72V376.6H1494.56L1510.78 396.17H1507.54V376.6H1515.69V406H1508.84L1492.63 386.43H1495.87V406ZM1535.47 406H1521.57V376.6H1535.47C1538.72 376.6 1541.57 377.203 1544.04 378.41C1546.51 379.61 1548.43 381.303 1549.82 383.49C1551.2 385.67 1551.89 388.273 1551.89 391.3C1551.89 394.293 1551.2 396.89 1549.82 399.09C1548.43 401.29 1546.51 402.99 1544.04 404.19C1541.57 405.397 1538.72 406 1535.47 406ZM1529.89 383.24V399.36H1535.14C1536.82 399.36 1538.28 399.047 1539.53 398.42C1540.77 397.787 1541.74 396.863 1542.44 395.65C1543.14 394.43 1543.49 392.98 1543.49 391.3C1543.49 389.593 1543.14 388.137 1542.44 386.93C1541.74 385.73 1540.77 384.813 1539.53 384.18C1538.28 383.553 1536.82 383.24 1535.14 383.24H1529.89Z" fill="white"/>
<path d="M43.8896 0.0200195V172.77H133.1V211H0V0.0200195H43.8896Z" fill="#1FA8AE"/>
<path d="M257.841 91.4604L324.82 0.0200195H367.3V211H323.4V75.0454L259.68 157.19H254.02L190.3 72.0718V211H146.41V0.0200195H188.89L257.841 91.4604Z" fill="#1FA8AE"/>
<path d="M471.79 143.03C471.79 156.623 468.863 168.52 463.01 178.72C457.163 188.913 448.81 196.841 437.95 202.5C427.097 208.167 414.307 211 399.58 211H386.84V171.35H399.58C408.073 171.35 414.917 168.944 420.11 164.13C425.304 159.317 427.9 152.947 427.9 145.02V0.0200195H471.79V143.03Z" fill="#1FA8AE"/>
<path d="M1059.01 1.31006C1064.22 1.31006 1068.99 2.14029 1073.31 3.80029C1077.64 5.45358 1081.39 7.79646 1084.58 10.8296C1087.77 13.8696 1090.27 17.4138 1092.08 21.4604C1093.89 25.507 1094.79 29.9538 1094.79 34.8003C1094.79 39.6468 1093.89 44.11 1092.08 48.1899C1090.27 52.2633 1087.77 55.8034 1084.58 58.8101C1081.39 61.8167 1077.64 64.147 1073.31 65.8003C1068.99 67.4603 1064.22 68.2905 1059.01 68.2905C1053.86 68.2905 1049.1 67.4603 1044.75 65.8003C1040.39 64.147 1036.6 61.8034 1033.38 58.77C1030.16 55.73 1027.66 52.1868 1025.89 48.1401C1024.11 44.0936 1023.22 39.6468 1023.22 34.8003C1023.22 29.9538 1024.11 25.507 1025.89 21.4604C1027.66 17.4138 1030.16 13.8696 1033.38 10.8296C1036.6 7.79635 1040.39 5.4536 1044.75 3.80029C1049.1 2.14033 1053.86 1.31009 1059.01 1.31006ZM1059.01 16.3999C1056.56 16.3999 1054.27 16.8301 1052.15 17.6899C1050.04 18.5499 1048.2 19.7897 1046.63 21.4097C1045.07 23.0363 1043.84 24.9704 1042.95 27.2104C1042.06 29.4504 1041.62 31.9804 1041.62 34.8003C1041.62 37.5602 1042.06 40.0737 1042.95 42.3403C1043.84 44.6135 1045.07 46.5634 1046.63 48.1899C1048.2 49.8099 1050.04 51.0497 1052.15 51.9097C1054.27 52.7696 1056.56 53.1997 1059.01 53.1997C1061.46 53.1997 1063.75 52.7697 1065.86 51.9097C1067.97 51.0497 1069.81 49.8098 1071.38 48.1899C1072.95 46.5633 1074.17 44.6136 1075.06 42.3403C1075.95 40.0737 1076.39 37.5602 1076.39 34.8003C1076.39 31.9805 1075.95 29.4503 1075.06 27.2104C1074.17 24.9704 1072.95 23.0363 1071.38 21.4097C1069.81 19.7899 1067.97 18.5499 1065.86 17.6899C1063.75 16.8299 1061.46 16.3999 1059.01 16.3999Z" fill="white"/>
<path d="M515.01 67.0005H496.79V2.6001H515.01V67.0005Z" fill="white"/>
<path d="M542.98 2.6001L571.41 36.9224V2.6001H589.25V67.0005H574.26L545.83 32.6772V67.0005H527.98V2.6001H542.98Z" fill="white"/>
<path d="M653.75 2.6001V17.0405H634.061V67.0005H615.84V17.0405H596.061V2.6001H653.75Z" fill="white"/>
<path d="M711.061 2.6001V16.6802H678.59V27.5298H707.2V41.1499H678.59V52.9204H712.26V67.0005H660.55V2.6001H711.061Z" fill="white"/>
<path d="M751.17 2.6001C760.556 2.6001 767.78 4.72991 772.84 8.98975C777.9 13.2564 780.43 19.0702 780.43 26.4302C780.43 31.2768 779.263 35.4631 776.93 38.9897C774.745 42.3016 771.704 44.8811 767.809 46.729L781.72 67.0005H762.21L750.54 49.8901H740.59V67.0005H722.38V2.6001H751.17ZM740.59 35.8101H750.71C754.517 35.8101 757.353 34.9829 759.22 33.3296C761.093 31.6696 762.03 29.3701 762.03 26.4302C762.03 23.4235 761.093 21.0933 759.22 19.4399C757.353 17.7801 754.516 16.9497 750.71 16.9497H740.59V35.8101Z" fill="white"/>
<path d="M805.45 2.6001L833.88 36.9126V2.6001H851.73V67.0005H836.73L808.311 32.6899V67.0005H790.46V2.6001H805.45Z" fill="white"/>
<path d="M931.771 67.0005H912.82L907.799 54.4897H880.489L875.47 67.0005H856.88L885.311 2.6001H903.25L931.771 67.0005ZM885.878 41.0601H902.407L894.141 20.4653L885.878 41.0601Z" fill="white"/>
<path d="M988.53 2.6001V17.0405H968.85V67.0005H950.63V17.0405H930.85V2.6001H988.53Z" fill="white"/>
<path d="M1013.56 67.0005H995.34V2.6001H1013.56V67.0005Z" fill="white"/>
<path d="M1147.79 36.9224V2.6001H1165.63V67.0005H1150.64L1122.21 32.6772V67.0005H1104.36V2.6001H1119.36L1147.79 36.9224Z" fill="white"/>
<path d="M1245.67 67.0005H1226.72L1221.7 54.4897H1194.39L1189.37 67.0005H1170.79L1199.21 2.6001H1217.15L1245.67 67.0005ZM1199.78 41.0601H1216.31L1208.04 20.4546L1199.78 41.0601Z" fill="white"/>
<path d="M1269.04 2.6001V52.5601H1299.77V67.0005H1250.83V2.6001H1269.04Z" fill="white"/>
<path d="M676.274 87.7324C677.508 88.2256 680.961 86.2527 681.701 88.7188C682.441 91.1858 684.662 94.3937 686.636 95.1338C688.609 95.874 686.636 98.5877 688.116 99.0811C689.597 99.5747 692.31 101.301 692.31 102.288C692.309 103.275 691.077 104.508 690.583 104.262C686.883 103.275 683.675 99.5742 681.948 97.6006C678.988 94.1468 679.235 97.107 674.301 95.627C673.067 95.1336 671.094 91.4326 672.327 89.459C673.561 87.4856 675.041 87.239 676.274 87.7324Z" fill="#D89B2A"/>
<path d="M670.6 70.9004C712.187 70.9004 745.899 104.613 745.899 146.2C745.899 187.787 712.187 221.5 670.6 221.5C629.013 221.5 595.3 187.787 595.3 146.2C595.3 104.613 629.013 70.9004 670.6 70.9004ZM634.907 147.5C635.079 167.258 639.153 185.051 645.6 197.944C650.687 208.119 657.123 215.023 664.118 217.681C665.839 217.835 667.567 217.927 669.3 217.958V155.627C668.709 155.388 668.191 155.252 667.886 155.328C663.445 155.821 658.758 151.627 655.798 148.667C655.417 148.287 655.083 147.897 654.78 147.5H634.907ZM671.899 217.958C673.631 217.927 675.359 217.835 677.079 217.681C679.687 216.69 682.217 215.109 684.628 212.989C683.654 212.292 682.81 211.324 682.441 210.096C681.455 207.135 682.195 204.915 683.182 202.448C683.922 200.475 682.935 198.007 683.429 195.787C684.416 191.593 685.896 186.905 685.402 182.465C685.156 179.751 684.415 179.505 682.441 178.024C680.221 176.298 680.221 174.078 678.741 171.857C677.508 169.884 680.961 162.483 679.975 161.989C678.741 161.496 676.274 161.989 675.534 161.002C674.547 159.769 674.054 158.536 672.82 157.549C672.639 157.428 672.309 157.217 671.899 156.973V217.958ZM708.892 147.5C708.827 155.064 708.199 162.361 707.086 169.232C707.809 169.409 708.364 169.599 708.592 169.884C711.552 173.584 710.812 171.611 708.592 176.544C707.605 179.011 708.591 181.971 705.878 183.698C705.171 184.264 704.383 184.343 703.607 184.54C702.017 189.85 700.109 194.742 697.926 199.107C695.276 204.407 692.193 208.989 688.764 212.604C690.083 214.079 688.896 214.578 687.19 214.171C686.213 215.089 685.21 215.931 684.184 216.689C686.341 216.279 688.48 215.77 690.593 215.166C715.231 205.679 733.208 179.141 733.688 147.5H708.892ZM607.51 147.5C607.99 179.138 625.964 205.675 650.599 215.164C652.714 215.769 654.855 216.278 657.015 216.688C651.72 212.775 647.055 206.671 643.273 199.107C636.613 185.787 632.479 167.579 632.308 147.5H607.51ZM698.349 191.778C695.168 195.034 689.883 200.106 689.349 201.708C689.102 202.941 686.143 203.928 688.609 204.915C689.869 205.126 686.655 208.558 687.048 210.638C690.17 207.307 693.054 203.036 695.6 197.944C696.573 195.998 697.489 193.938 698.349 191.778ZM736.288 147.5C735.936 171.31 725.915 192.519 710.468 206.062C715.597 202.699 720.294 198.692 724.438 194.126C724.57 193.98 724.73 193.872 724.901 193.801C731.022 186.925 735.816 178.912 738.978 170.159C739.075 169.888 739.255 169.669 739.478 169.521C741.823 162.59 743.152 155.191 743.287 147.5H736.288ZM597.912 147.5C598.047 155.19 599.374 162.589 601.72 169.519C601.944 169.667 602.124 169.887 602.223 170.159C605.384 178.912 610.179 186.925 616.299 193.8C616.47 193.871 616.63 193.979 616.763 194.126C620.903 198.689 625.597 202.694 630.723 206.057C615.279 192.513 605.263 171.306 604.91 147.5H597.912ZM671.899 151.065C672.92 149.757 673.42 155.296 673.144 155.403C673.885 155.937 677.705 154.449 676.521 157.055C676.027 158.288 677.014 161.249 678.741 160.262C679.482 160.015 681.455 161.002 681.701 160.509C681.948 159.769 682.689 159.276 683.429 158.782C685.156 157.796 687.622 158.782 689.596 158.782C690.583 159.029 700.204 164.209 700.204 165.196C700.336 167.313 702.455 168.149 704.544 168.663C705.618 161.985 706.228 154.88 706.292 147.5H678.925C679.016 148.241 679.004 148.826 678.741 148.914C678.519 149.025 677.9 148.335 677.216 147.5H671.899V151.065ZM667.087 147.5C666.756 147.98 666.517 148.532 666.406 149.161C666.085 150.931 667.756 153.328 669.3 153.757V147.5H667.087ZM617.771 97.1865C617.432 97.5456 617.095 97.9072 616.763 98.2734C616.629 98.4202 616.47 98.5275 616.298 98.5986C610.177 105.474 605.383 113.488 602.222 122.241C602.124 122.513 601.944 122.73 601.721 122.879C599.375 129.81 598.047 137.209 597.912 144.9H604.91C605.142 129.247 609.551 114.717 616.936 102.751C616.668 102.516 616.517 102.345 616.572 102.288C616.729 102.184 616.985 102.169 617.285 102.19C617.773 101.415 618.273 100.65 618.786 99.8965C618.371 99.2022 617.954 98.4907 617.806 97.6006C617.775 97.4562 617.765 97.3182 617.771 97.1865ZM615.989 109.746C610.77 120.097 607.704 132.08 607.51 144.9H632.308C632.404 133.59 633.758 122.875 636.113 113.291C634.866 112.434 633.345 111.909 631.375 111.909C627.428 111.909 627.674 120.05 624.714 119.063C621.26 117.83 616.08 123.749 616.079 123.011C616.573 118.817 620.766 116.843 621.26 115.609C622.423 111.888 615.911 112.552 615.989 109.746ZM638.287 115.386C636.204 124.367 634.999 134.353 634.907 144.9H653.153C652.672 144.028 652.196 143.141 651.604 142.253C650.37 140.28 648.644 140.279 647.657 137.812C646.67 135.346 647.164 132.138 646.917 129.425C646.67 126.464 645.19 125.724 643.463 123.504C641.459 120.965 640.176 117.777 638.287 115.386ZM671.899 97.8789C675.121 99.4732 680.948 92.2312 678.987 100.808C678.047 105.51 674.955 106.77 671.899 108.854V115.921C674.043 117.065 676.406 118.195 676.521 119.804C677.261 130.164 682.688 119.064 681.208 115.363C678.494 108.209 684.415 110.182 686.882 114.623C688.115 117.09 689.102 115.116 690.829 114.129C692.063 113.389 692.556 117.09 692.803 117.83C693.543 120.05 696.75 120.79 696.257 123.504C695.763 126.711 693.543 125.724 691.322 126.218C688.856 126.958 691.569 128.932 691.322 129.672C691.075 130.658 688.115 130.905 687.375 131.398C685.155 132.879 686.389 135.346 684.662 136.826C683.429 137.813 682.195 137.319 681.948 139.046C681.702 141.266 677.755 142.007 678.248 143.98C678.248 144.102 678.323 144.446 678.424 144.9H706.292C706.12 125.143 702.046 107.349 695.6 94.4561C690.512 84.2802 684.076 77.3762 677.079 74.7188C675.359 74.5648 673.631 74.4724 671.899 74.4414V97.8789ZM684.184 75.71C689.479 79.6235 694.144 85.7287 697.926 93.293C704.586 106.613 708.72 124.821 708.892 144.9H733.688C733.208 113.261 715.234 86.7237 690.598 77.2354C688.483 76.6303 686.343 76.1207 684.184 75.71ZM710.468 86.3369C725.916 99.8799 735.936 121.091 736.288 144.9H743.287C743.152 137.209 741.824 129.81 739.478 122.879C739.255 122.73 739.076 122.512 738.978 122.241C735.816 113.487 731.02 105.474 724.899 98.5986C724.729 98.5275 724.57 98.4194 724.438 98.2734C720.294 93.7076 715.597 89.7005 710.468 86.3369ZM669.12 111.169C668.025 112.421 668.345 113.398 669.3 114.262V110.983C669.24 111.045 669.179 111.106 669.12 111.169ZM619.012 104.324C618.229 105.601 617.481 106.907 616.77 108.243C618.18 106.999 621.068 106.043 620.273 105.248C620.185 105.159 619.65 104.781 619.012 104.324ZM669.3 74.4414C667.567 74.4724 665.839 74.5647 664.118 74.7188C657.122 77.3767 650.687 84.2811 645.6 94.4561C645.252 95.1507 644.913 95.8603 644.58 96.583C648.478 96.0377 657.181 97.9 658.512 100.561C659.499 102.041 662.459 99.5738 663.692 99.3271C665.173 99.0806 667.886 101.054 668.873 99.8203C669.052 99.5614 669.19 99.3143 669.3 99.082V74.4414ZM657.015 75.7109C654.853 76.1222 652.71 76.6314 650.594 77.2373C641.304 80.8167 632.961 86.8206 626.146 94.6084C627.609 94.63 628.842 94.7469 629.401 94.8867C634.557 95.9608 636.906 98.3421 641.336 97.4746C641.955 96.0331 642.601 94.6379 643.273 93.293C647.055 85.7292 651.719 79.6245 657.015 75.7109ZM630.724 86.3418C626.68 88.994 622.906 92.0464 619.46 95.457C620.324 95.1121 621.44 94.8903 622.616 94.7598C625.108 91.7053 627.82 88.888 630.724 86.3418Z" fill="#D89B2A"/>
<path d="M818.75 82.48C830.63 82.48 841.249 84.4605 850.609 88.4204C859.969 92.3804 867.71 98.08 873.83 105.52L851.149 126.04C846.83 121.36 842.18 117.85 837.2 115.51C832.22 113.17 826.67 112 820.55 112C815.15 112 810.23 112.84 805.79 114.52C801.35 116.2 797.57 118.63 794.45 121.81C791.33 124.99 788.9 128.77 787.16 133.15C785.42 137.53 784.55 142.48 784.55 148C784.55 153.279 785.42 158.14 787.16 162.58C788.9 167.02 791.33 170.83 794.45 174.01C797.57 177.19 801.32 179.65 805.7 181.39C810.08 183.13 814.91 183.999 820.189 184C825.469 184 830.63 183.13 835.67 181.39C836.926 180.956 838.186 180.445 839.45 179.858V145.3H870.95V197.5L870.271 197.98C863.227 202.906 855.113 206.707 845.93 209.38C836.45 212.14 827.15 213.52 818.03 213.52C808.07 213.52 798.83 211.93 790.31 208.75C781.79 205.57 774.44 201.04 768.26 195.16C762.08 189.28 757.249 182.35 753.77 174.37C750.29 166.39 748.55 157.599 748.55 148C748.55 138.4 750.29 129.61 753.77 121.63C757.249 113.65 762.11 106.72 768.35 100.84C774.59 94.9603 782 90.4295 790.58 87.2495C799.16 84.0696 808.55 82.48 818.75 82.48Z" fill="white"/>
<path d="M994.79 82.48C1003.07 82.48 1011.2 83.4101 1019.18 85.27C1027.16 87.13 1034.27 89.8604 1040.51 93.4604L1029.53 119.92C1023.53 116.68 1017.59 114.25 1011.71 112.63C1005.83 111.01 1000.13 110.2 994.609 110.2C989.69 110.2 985.729 110.71 982.729 111.73C979.73 112.75 977.57 114.1 976.25 115.78C974.93 117.46 974.27 119.38 974.27 121.54C974.27 124.299 975.56 126.49 978.14 128.11C980.72 129.73 984.14 131.05 988.399 132.07C992.659 133.09 997.34 134.14 1002.44 135.22C1007.54 136.3 1012.64 137.65 1017.74 139.27C1022.84 140.89 1027.49 143.05 1031.69 145.75C1035.89 148.449 1039.28 151.99 1041.86 156.37C1044.44 160.75 1045.73 166.24 1045.73 172.84C1045.73 180.16 1043.66 186.91 1039.52 193.09C1035.38 199.27 1029.2 204.22 1020.98 207.94C1012.76 211.66 1002.41 213.52 989.93 213.52C979.61 213.52 969.68 212.23 960.14 209.65C950.6 207.07 942.83 203.74 936.83 199.66L948.53 173.38C954.17 176.98 960.68 179.95 968.06 182.29C975.439 184.63 982.79 185.8 990.109 185.8C995.029 185.8 998.99 185.35 1001.99 184.45C1004.99 183.55 1007.18 182.35 1008.56 180.85C1009.94 179.35 1010.63 177.58 1010.63 175.54C1010.63 172.66 1009.31 170.38 1006.67 168.7C1004.03 167.02 1000.61 165.64 996.41 164.56C992.21 163.48 987.56 162.4 982.46 161.32C977.36 160.24 972.26 158.86 967.16 157.18C962.06 155.5 957.41 153.31 953.21 150.61C949.01 147.91 945.59 144.37 942.95 139.99C940.31 135.61 938.99 130.06 938.99 123.34C938.99 115.78 941.06 108.94 945.2 102.82C949.34 96.7 955.55 91.78 963.83 88.0601C972.11 84.3401 982.43 82.48 994.79 82.48Z" fill="white"/>
<path d="M1286.75 82.48C1298.39 82.48 1308.8 84.5202 1317.98 88.6001C1327.16 92.6801 1334.81 98.5599 1340.93 106.24L1318.25 126.76C1314.17 121.96 1309.7 118.3 1304.84 115.78C1299.98 113.26 1294.55 112 1288.55 112C1283.39 112 1278.65 112.84 1274.33 114.52C1270.01 116.2 1266.32 118.63 1263.26 121.81C1260.2 124.99 1257.8 128.8 1256.06 133.24C1254.32 137.68 1253.45 142.6 1253.45 148C1253.45 153.4 1254.32 158.32 1256.06 162.76C1257.8 167.2 1260.2 171.01 1263.26 174.19C1266.32 177.37 1270.01 179.8 1274.33 181.48C1278.65 183.16 1283.39 184 1288.55 184C1294.55 184 1299.98 182.74 1304.84 180.22C1309.7 177.7 1314.17 174.04 1318.25 169.24L1340.93 189.76C1334.81 197.32 1327.16 203.17 1317.98 207.31C1308.8 211.45 1298.39 213.52 1286.75 213.52C1276.79 213.52 1267.58 211.929 1259.12 208.75C1250.66 205.57 1243.34 201.04 1237.16 195.16C1230.98 189.28 1226.15 182.35 1222.67 174.37C1219.19 166.39 1217.45 157.599 1217.45 148C1217.45 138.4 1219.19 129.61 1222.67 121.63C1226.15 113.65 1230.98 106.72 1237.16 100.84C1243.34 94.9603 1250.66 90.4295 1259.12 87.2495C1267.58 84.0696 1276.79 82.48 1286.75 82.48Z" fill="white"/>
<path d="M1399.97 82.48C1408.25 82.48 1416.38 83.4101 1424.36 85.27C1432.34 87.13 1439.45 89.8605 1445.69 93.4604L1434.71 119.92C1428.71 116.68 1422.77 114.25 1416.89 112.63C1411.01 111.01 1405.31 110.2 1399.79 110.2C1394.87 110.2 1390.91 110.71 1387.91 111.73C1384.91 112.75 1382.75 114.1 1381.43 115.78C1380.11 117.46 1379.45 119.38 1379.45 121.54C1379.45 124.299 1380.74 126.49 1383.32 128.11C1385.9 129.73 1389.32 131.05 1393.58 132.07C1397.84 133.09 1402.52 134.14 1407.62 135.22C1412.72 136.3 1417.82 137.65 1422.92 139.27C1428.02 140.89 1432.67 143.05 1436.87 145.75C1441.07 148.449 1444.46 151.99 1447.04 156.37C1449.62 160.75 1450.91 166.24 1450.91 172.84C1450.91 180.16 1448.84 186.91 1444.7 193.09C1440.56 199.27 1434.38 204.22 1426.16 207.94C1417.94 211.66 1407.59 213.52 1395.11 213.52C1384.79 213.52 1374.86 212.23 1365.32 209.65C1355.78 207.07 1348.01 203.74 1342.01 199.66L1353.71 173.38L1354.78 174.047C1360.17 177.349 1366.32 180.096 1373.24 182.29C1380.62 184.629 1387.97 185.8 1395.29 185.8C1400.21 185.8 1404.17 185.35 1407.17 184.45C1410.17 183.55 1412.36 182.35 1413.74 180.85C1415.12 179.35 1415.81 177.579 1415.81 175.54C1415.81 172.66 1414.49 170.38 1411.85 168.7C1409.21 167.02 1405.79 165.64 1401.59 164.56C1397.39 163.48 1392.74 162.4 1387.64 161.32C1382.54 160.24 1377.44 158.86 1372.34 157.18C1367.24 155.5 1362.59 153.31 1358.39 150.61C1354.19 147.91 1350.77 144.37 1348.13 139.99C1345.49 135.61 1344.17 130.06 1344.17 123.34C1344.17 115.78 1346.24 108.94 1350.38 102.82C1354.52 96.6999 1360.73 91.78 1369.01 88.0601C1377.29 84.3401 1387.61 82.48 1399.97 82.48Z" fill="white"/>
<path d="M924.77 211H889.13V84.9995H924.77V211Z" fill="white"/>
<path d="M1158.59 84.9995V113.26H1120.07V211H1084.43V113.26H1045.73V84.9995H1158.59Z" fill="white"/>
<path d="M1203.05 211H1167.41V84.9995H1203.05V211Z" fill="white"/>
<path d="M340 297.6H0V294.4H340V297.6Z" fill="#1FA8AE"/>
<path d="M790 297.6H440V294.4H790V297.6Z" fill="#1FA8AE"/>
<path d="M1240 297.6H890V294.4H1240V297.6Z" fill="#1FA8AE"/>
<path d="M1680 297.6H1340V294.4H1680V297.6Z" fill="#1FA8AE"/>
</g>
<defs>
<clipPath id="clip0_505_51858">
<rect width="1680" height="407" fill="white"/>
</clipPath>
</defs>
</svg>
