<svg width="104" height="48" viewBox="0 0 104 48" fill="none" xmlns="http://www.w3.org/2000/svg">
<g clip-path="url(#clip0_7_17394)">
<rect width="103.323" height="48" fill="white"/>
<g clip-path="url(#clip1_7_17394)">
<path d="M15.2534 25.9272L13.1928 22.469H6.69089L7.82483 20.5228H12.039L8.977 15.3819L2.74035 25.9272H0L7.89943 12.7742C8.18291 12.3017 8.54265 12 9.07149 12C9.60033 12 9.94018 12.3017 10.2237 12.7742L18.143 25.9272H15.2534Z" fill="#2BBFF0"/>
<path d="M37.9882 25.9272L34.5102 22.1093H29.3693V19.9923H35.0954C36.8145 19.9923 37.723 19.0092 37.723 17.2337C37.723 15.4582 36.7399 14.5879 35.0954 14.5879H27.6121V25.9272H25.2314V12.1874H35.097C38.2336 12.1874 40.087 14.1336 40.087 17.1956C40.087 19.4635 39.0293 21.0699 37.2522 21.7496L41.3917 25.9256H37.9882V25.9272Z" fill="#2BBFF0"/>
<path d="M55.6772 25.9272L52.1991 22.1093H47.0583V19.9923H52.7843C54.5035 19.9923 55.412 19.0092 55.412 17.2337C55.412 15.4582 54.4289 14.5879 52.7843 14.5879H45.301V25.9272H42.9204V12.1874H52.786C55.9226 12.1874 57.7743 14.1336 57.7743 17.1956C57.7743 19.4635 56.7166 21.0699 54.9395 21.7496L59.079 25.9256H55.6772V25.9272Z" fill="#085399"/>
<path d="M74.9356 25.9272L72.8749 22.469H66.373L67.507 20.5228H71.7211L68.6591 15.3819L62.4225 25.9272H59.6821L67.5816 12.7742C67.865 12.3017 68.2248 12 68.7536 12C69.2825 12 69.6223 12.3017 69.9058 12.7742L77.8235 25.9272H74.9356Z" fill="#085399"/>
<path d="M81.5499 25.9272V14.5879H76.3345V12.1874H89.1659V14.5879H83.9504V25.9272H81.5499Z" fill="#085399"/>
<path d="M91.0361 25.9272V12.1874H103.302V14.5879H93.4184V23.5267H103.322V25.9272H91.0361ZM95.1757 19.9542V17.9317H102.792V19.9542H95.1757Z" fill="#085399"/>
<path d="M20.0342 12.1874V25.9272H22.4347L22.4214 12.1874H20.0342Z" fill="#2BBFF0"/>
<path d="M70.9554 32.1357H0.00146484V32.9646H70.9554V32.1357Z" fill="#085399"/>
<path d="M76.1522 35.9818C75.8008 35.9818 75.5322 35.705 75.5322 35.3535C75.5322 35.0021 75.8008 34.7252 76.1522 34.7252C76.5136 34.7252 76.7905 35.0021 76.7905 35.3535C76.7905 35.7033 76.5136 35.9818 76.1522 35.9818Z" fill="#2BBFF0"/>
<path d="M80.6104 35.9072C78.7338 35.9072 77.3462 34.4268 77.3462 32.4756C77.3462 30.4961 78.7338 29.1832 80.6104 29.1832H84.2543V30.3569H80.6104C79.4085 30.3569 78.5199 31.2538 78.5199 32.5303C78.5199 33.7968 79.3986 34.7318 80.6104 34.7318H84.2543V35.9056H80.6104V35.9072Z" fill="#2BBFF0"/>
<path d="M88.2759 35.9072C86.3993 35.9072 85.0117 34.4268 85.0117 32.4756C85.0117 30.4961 86.3993 29.1832 88.2759 29.1832H89.9122C91.8535 29.1832 93.2046 30.5243 93.2046 32.4756C93.2046 34.4268 91.8269 35.9072 89.9122 35.9072H88.2759ZM89.9122 34.7318C91.1506 34.7318 92.0292 33.7985 92.0292 32.5303C92.0292 31.2637 91.1506 30.3569 89.9122 30.3569H88.2759C87.074 30.3569 86.1854 31.2538 86.1854 32.5303C86.1854 33.7968 87.0641 34.7318 88.2759 34.7318H89.9122Z" fill="#2BBFF0"/>
<path d="M102.155 35.9072L100.87 31.1808L98.9657 35.5557C98.8364 35.8425 98.6507 36 98.3639 36C98.087 36 97.8831 35.8425 97.7621 35.5557L95.8656 31.1808L94.5808 35.9072H93.4253L95.1544 29.581C95.2373 29.2577 95.4229 29.1002 95.7363 29.1002C95.9866 29.1002 96.217 29.2395 96.3281 29.4981L98.4004 34.251L100.473 29.4981C100.584 29.2395 100.788 29.1002 101.036 29.1002C101.323 29.1002 101.507 29.2577 101.6 29.581L103.321 35.9072H102.155Z" fill="#2BBFF0"/>
</g>
</g>
<defs>
<clipPath id="clip0_7_17394">
<rect width="103.323" height="48" fill="white"/>
</clipPath>
<clipPath id="clip1_7_17394">
<rect width="103.323" height="24" fill="white" transform="translate(0 12)"/>
</clipPath>
</defs>
</svg>
