<svg width="79" height="32" viewBox="0 0 79 32" fill="none" xmlns="http://www.w3.org/2000/svg">
<g clip-path="url(#clip0_7_17866)">
<g clip-path="url(#clip1_7_17866)">
<path d="M11.6463 14.6163L10.0755 11.9802H5.1193L5.98366 10.4966H9.19596L6.86192 6.57793L2.10792 14.6163H0.019043L6.04053 4.59014C6.25662 4.22999 6.53084 4 6.93395 4C7.33707 4 7.59613 4.22999 7.81222 4.59014L13.8489 14.6163H11.6463Z" fill="#2BBFF0"/>
<path d="M28.9765 14.6163L26.3253 11.706H22.4066V10.0923H26.7714C28.0818 10.0923 28.7743 9.34291 28.7743 7.9895C28.7743 6.63608 28.025 5.97265 26.7714 5.97265H21.0671V14.6163H19.2524V4.14282H26.7727C29.1636 4.14282 30.5764 5.62639 30.5764 7.96043C30.5764 9.68916 29.7701 10.9137 28.4155 11.4318L31.5709 14.615H28.9765V14.6163Z" fill="#2BBFF0"/>
<path d="M42.4599 14.6163L39.8087 11.706H35.89V10.0923H40.2548C41.5652 10.0923 42.2577 9.34291 42.2577 7.9895C42.2577 6.63608 41.5084 5.97265 40.2548 5.97265H34.5505V14.6163H32.7358V4.14282H40.2561C42.647 4.14282 44.0585 5.62639 44.0585 7.96043C44.0585 9.68916 43.2523 10.9137 41.8976 11.4318L45.053 14.615H42.4599V14.6163Z" fill="#085399"/>
<path d="M57.1404 14.6163L55.5696 11.9802H50.6134L51.4778 10.4966H54.6901L52.3561 6.57793L47.6021 14.6163H45.5132L51.5347 4.59014C51.7508 4.22999 52.025 4 52.4281 4C52.8312 4 53.0903 4.22999 53.3064 4.59014L59.3417 14.6163H57.1404Z" fill="#085399"/>
<path d="M62.1824 14.6163V5.97265H58.2056V4.14282H67.9865V5.97265H64.011V14.6163H62.1824Z" fill="#085399"/>
<path d="M69.4131 14.6163V4.14282H78.7631V5.97265H71.229V12.7865H78.7783V14.6163H69.4131ZM72.5685 10.0645V8.52277H78.3739V10.0645H72.5685Z" fill="#085399"/>
<path d="M15.2905 4.1441V14.6163H17.1203L17.1102 4.1441H15.2905Z" fill="#2BBFF0"/>
<path d="M54.1059 19.3501H0.0200195V19.9819H54.1059V19.3501Z" fill="#085399"/>
<path d="M58.0678 22.2806C57.7999 22.2806 57.5952 22.0695 57.5952 21.8016C57.5952 21.5337 57.7999 21.3227 58.0678 21.3227C58.3433 21.3227 58.5544 21.5337 58.5544 21.8016C58.5544 22.0695 58.3433 22.2806 58.0678 22.2806Z" fill="#2BBFF0"/>
<path d="M61.4657 22.225C60.0352 22.225 58.9775 21.0965 58.9775 19.6092C58.9775 18.1003 60.0352 17.0995 61.4657 17.0995H64.2433V17.9942H61.4657C60.5496 17.9942 59.8722 18.6778 59.8722 19.6509C59.8722 20.6163 60.542 21.3291 61.4657 21.3291H64.2433V22.2238H61.4657V22.225Z" fill="#2BBFF0"/>
<path d="M67.309 22.225C65.8785 22.225 64.8208 21.0965 64.8208 19.6092C64.8208 18.1003 65.8785 17.0995 67.309 17.0995H68.5563C70.036 17.0995 71.066 18.1218 71.066 19.6092C71.066 21.0965 70.0158 22.225 68.5563 22.225H67.309ZM68.5563 21.3291C69.5015 21.3291 70.17 20.6176 70.17 19.6509C70.17 18.6842 69.5002 17.9942 68.5563 17.9942H67.309C66.3928 17.9942 65.7155 18.6778 65.7155 19.6509C65.7155 20.6163 66.3852 21.3291 67.309 21.3291H68.5563Z" fill="#2BBFF0"/>
<path d="M77.8885 22.225L76.9091 18.6222L75.4571 21.9571C75.3586 22.1757 75.217 22.2957 74.9984 22.2957C74.7874 22.2957 74.6319 22.1757 74.5397 21.9571L73.094 18.6222L72.1147 22.225H71.2339L72.5519 17.4027C72.6151 17.1563 72.7566 17.0363 72.9955 17.0363C73.1863 17.0363 73.3619 17.1424 73.4466 17.3395L75.0262 20.9625L76.6058 17.3395C76.6905 17.1424 76.8459 17.0363 77.0355 17.0363C77.2541 17.0363 77.3944 17.1563 77.4651 17.4027L78.7769 22.225H77.8885Z" fill="#2BBFF0"/>
<path d="M0 24.8041C0.272957 24.7713 0.630581 24.7422 1.08551 24.7422C1.64406 24.7422 2.0535 24.837 2.31382 25.0063C2.55392 25.1567 2.69671 25.3892 2.69671 25.6723C2.69671 25.9604 2.57919 26.1866 2.35931 26.3521C2.05981 26.5834 1.57329 26.7009 1.02106 26.7009C0.851727 26.7009 0.696294 26.6959 0.566134 26.6731V27.9482H0.00126396V24.8041H0ZM0.56487 26.3382C0.688711 26.3622 0.844145 26.3711 1.03243 26.3711C1.71483 26.3711 2.13058 26.1297 2.13058 25.6912C2.13058 25.2717 1.72115 25.0682 1.09815 25.0682C0.851727 25.0682 0.663437 25.0821 0.56487 25.1011V26.3382Z" fill="#085399"/>
<path d="M4.26853 26.9474L3.8136 27.9482H3.22852L4.71588 24.7662H5.39827L6.89195 27.9482H6.28791L5.82034 26.9474H4.26853ZM5.70408 26.6264L5.27569 25.7102C5.17839 25.503 5.11268 25.3134 5.04823 25.1289H5.03559C4.97114 25.3172 4.89911 25.5118 4.81445 25.7052L4.38606 26.6251H5.70408V26.6264Z" fill="#085399"/>
<path d="M11.1483 27.8446C10.9398 27.9204 10.5241 27.9962 9.99205 27.9962C8.75743 27.9962 7.82861 27.4301 7.82861 26.3863C7.82861 25.3905 8.75743 24.7157 10.1159 24.7157C10.6618 24.7157 11.0055 24.8004 11.1559 24.8572L11.0194 25.1921C10.8046 25.1163 10.5001 25.0594 10.1361 25.0594C9.11 25.0594 8.4276 25.5358 8.4276 26.3724C8.4276 27.1508 9.04428 27.6512 10.1096 27.6512C10.4533 27.6512 10.8046 27.5994 11.0321 27.5186L11.1483 27.8446Z" fill="#085399"/>
<path d="M14.7739 26.4571H13.0717V27.6046H14.9685V27.9495H12.5068V24.7676H14.8712V25.1126H13.0717V26.1185H14.7739V26.4571Z" fill="#085399"/>
<path d="M21.7128 27.8067C21.46 27.8724 20.9596 27.9811 20.3682 27.9811C19.706 27.9811 19.1601 27.8585 18.7305 27.5615C18.3539 27.2974 18.1201 26.8728 18.1201 26.3762C18.1264 25.4272 19.0237 24.7334 20.4908 24.7334C20.9975 24.7334 21.3943 24.813 21.5826 24.88L21.4461 25.2149C21.2124 25.139 20.9205 25.0784 20.4782 25.0784C19.4129 25.0784 18.7178 25.5599 18.7178 26.3572C18.7178 27.1647 19.3863 27.6412 20.4074 27.6412C20.7777 27.6412 21.0317 27.6032 21.1606 27.5565V26.6075H20.2709V26.2776H21.7128V27.8067Z" fill="#085399"/>
<path d="M23.228 24.7662H23.7929V27.6032H25.6644V27.9482H23.228V24.7662Z" fill="#085399"/>
<path d="M30.4323 26.3244C30.4323 27.42 29.5161 28.0001 28.399 28.0001C27.2427 28.0001 26.4302 27.3493 26.4302 26.3851C26.4302 25.3754 27.2945 24.7145 28.4635 24.7145C29.6589 24.7145 30.4323 25.3804 30.4323 26.3244ZM27.0342 26.3762C27.0342 27.0561 27.541 27.6652 28.4306 27.6652C29.3266 27.6652 29.8333 27.0662 29.8333 26.3434C29.8333 25.7103 29.3784 25.0494 28.4369 25.0494C27.5018 25.0494 27.0342 25.6774 27.0342 26.3762Z" fill="#085399"/>
<path d="M31.8159 24.8092C32.0623 24.7713 32.4528 24.7435 32.8484 24.7435C33.4132 24.7435 33.7772 24.8142 34.0501 24.9747C34.2776 25.0973 34.4141 25.2856 34.4141 25.5371C34.4141 25.8441 34.1348 26.1133 33.6735 26.2359V26.246C34.0893 26.3218 34.5771 26.572 34.5771 27.0434C34.5771 27.3176 34.428 27.5248 34.2068 27.6803C33.901 27.8837 33.4082 27.9773 32.6929 27.9773C32.3037 27.9773 32.0042 27.9583 31.8159 27.9393V24.8092ZM32.3821 26.112H32.8951C33.4928 26.112 33.8441 25.8858 33.8441 25.5788C33.8441 25.206 33.4549 25.0594 32.8825 25.0594C32.6222 25.0594 32.473 25.0733 32.3821 25.0872V26.112ZM32.3821 27.6361C32.492 27.65 32.655 27.655 32.8559 27.655C33.441 27.655 33.9794 27.4996 33.9794 27.0371C33.9794 26.6024 33.4663 26.4229 32.8496 26.4229H32.3821V27.6361Z" fill="#085399"/>
<path d="M36.6963 26.9474L36.2413 27.9482H35.6562L37.1436 24.7662H37.826L39.3197 27.9482H38.7156L38.2481 26.9474H36.6963ZM38.1318 26.6264L37.7034 25.7102C37.6061 25.503 37.5404 25.3134 37.476 25.1289H37.4633C37.3989 25.3172 37.3268 25.5118 37.2422 25.7052L36.8138 26.6251H38.1318V26.6264Z" fill="#085399"/>
<path d="M40.6138 24.7662H41.1786V27.6032H43.0502V27.9482H40.6138V24.7662Z" fill="#085399"/>
<path d="M46.3574 24.7662H46.9223V27.6032H48.7938V27.9482H46.3574V24.7662Z" fill="#085399"/>
<path d="M53.5617 26.3244C53.5617 27.42 52.6455 28.0001 51.5284 28.0001C50.3721 28.0001 49.5596 27.3493 49.5596 26.3851C49.5596 25.3754 50.4239 24.7145 51.5929 24.7145C52.7896 24.7145 53.5617 25.3804 53.5617 26.3244ZM50.1649 26.3762C50.1649 27.0561 50.6716 27.6652 51.5613 27.6652C52.4572 27.6652 52.964 27.0662 52.964 26.3434C52.964 25.7103 52.509 25.0494 51.5676 25.0494C50.6324 25.0494 50.1649 25.6774 50.1649 26.3762Z" fill="#085399"/>
<path d="M58.2787 27.8067C58.026 27.8724 57.5255 27.9811 56.9341 27.9811C56.272 27.9811 55.7261 27.8585 55.2964 27.5615C54.9198 27.2974 54.686 26.8728 54.686 26.3762C54.6924 25.4272 55.5896 24.7334 57.0567 24.7334C57.5635 24.7334 57.9603 24.813 58.1485 24.88L58.0121 25.2149C57.7783 25.139 57.4864 25.0784 57.0441 25.0784C55.9788 25.0784 55.2838 25.5599 55.2838 26.3572C55.2838 27.1647 55.9535 27.6412 56.9733 27.6412C57.3436 27.6412 57.5963 27.6032 57.7265 27.5565V26.6075H56.8368V26.2776H58.2787V27.8067Z" fill="#085399"/>
<path d="M60.3588 24.7662V27.9482H59.7939V24.7662H60.3588Z" fill="#085399"/>
<path d="M61.9184 27.4478C62.1724 27.5615 62.5414 27.655 62.9319 27.655C63.5106 27.655 63.848 27.4326 63.848 27.1116C63.848 26.8147 63.6143 26.6441 63.0229 26.4785C62.3089 26.294 61.8666 26.0248 61.8666 25.5775C61.8666 25.0821 62.4315 24.7131 63.2832 24.7131C63.7318 24.7131 64.0566 24.789 64.2512 24.8686L64.0957 25.2034C63.9529 25.1466 63.661 25.0518 63.2642 25.0518C62.6665 25.0518 62.439 25.3109 62.439 25.5282C62.439 25.8252 62.7057 25.9718 63.3097 26.1424C64.0502 26.3496 64.4268 26.6099 64.4268 27.0775C64.4268 27.5678 63.9264 27.9937 62.894 27.9937C62.4719 27.9937 62.0106 27.904 61.7769 27.7902L61.9184 27.4478Z" fill="#085399"/>
<path d="M66.6801 25.1164H65.3481V24.7676H68.5895V25.1164H67.2513V27.9483H66.6801V25.1164Z" fill="#085399"/>
<path d="M70.2929 24.7662V27.9482H69.728V24.7662H70.2929Z" fill="#085399"/>
<path d="M74.9896 27.8446C74.7824 27.9204 74.3666 27.9962 73.8334 27.9962C72.5987 27.9962 71.6699 27.4301 71.6699 26.3863C71.6699 25.3905 72.5987 24.7157 73.9559 24.7157C74.5018 24.7157 74.8456 24.8004 74.9959 24.8572L74.8595 25.1921C74.6446 25.1163 74.3401 25.0594 73.9762 25.0594C72.95 25.0594 72.2676 25.5358 72.2676 26.3724C72.2676 27.1508 72.8843 27.6512 73.9509 27.6512C74.2946 27.6512 74.6459 27.5994 74.8734 27.5186L74.9896 27.8446Z" fill="#085399"/>
<path d="M76.27 27.4478C76.524 27.5615 76.893 27.655 77.2834 27.655C77.8622 27.655 78.1996 27.4326 78.1996 27.1116C78.1996 26.8147 77.9658 26.6441 77.3744 26.4785C76.6604 26.294 76.2181 26.0248 76.2181 25.5775C76.2181 25.0821 76.783 24.7131 77.6347 24.7131C78.0833 24.7131 78.4081 24.789 78.6027 24.8686L78.4473 25.2034C78.3045 25.1466 78.0126 25.0518 77.6158 25.0518C77.0181 25.0518 76.7906 25.3109 76.7906 25.5282C76.7906 25.8252 77.0572 25.9718 77.6613 26.1424C78.4018 26.3496 78.7784 26.6099 78.7784 27.0775C78.7784 27.5678 78.278 27.9937 77.2455 27.9937C76.8235 27.9937 76.3622 27.904 76.1284 27.7902L76.27 27.4478Z" fill="#085399"/>
</g>
</g>
<defs>
<clipPath id="clip0_7_17866">
<rect width="78.7784" height="32" fill="white"/>
</clipPath>
<clipPath id="clip1_7_17866">
<rect width="78.7784" height="24" fill="white" transform="translate(0 4)"/>
</clipPath>
</defs>
</svg>
