<svg width="104" height="32" viewBox="0 0 104 32" fill="none" xmlns="http://www.w3.org/2000/svg">
<g clip-path="url(#clip0_7_17413)">
<g clip-path="url(#clip1_7_17413)">
<path d="M15.2534 17.9272L13.1928 14.469H6.69089L7.82483 12.5228H12.039L8.977 7.38192L2.74035 17.9272H0L7.89943 4.77419C8.18291 4.30172 8.54265 4 9.07149 4C9.60033 4 9.94018 4.30172 10.2237 4.77419L18.143 17.9272H15.2534Z" fill="#2BBFF0"/>
<path d="M37.9882 17.9272L34.5102 14.1093H29.3693V11.9923H35.0954C36.8145 11.9923 37.723 11.0092 37.723 9.23373C37.723 7.45822 36.7399 6.58787 35.0954 6.58787H27.6121V17.9272H25.2314V4.18738H35.097C38.2336 4.18738 40.087 6.13364 40.087 9.1956C40.087 11.4635 39.0293 13.0699 37.2522 13.7496L41.3917 17.9256H37.9882V17.9272Z" fill="#2BBFF0"/>
<path d="M55.6772 17.9272L52.1991 14.1093H47.0583V11.9923H52.7843C54.5035 11.9923 55.412 11.0092 55.412 9.23373C55.412 7.45822 54.4289 6.58787 52.7843 6.58787H45.301V17.9272H42.9204V4.18738H52.786C55.9226 4.18738 57.7743 6.13364 57.7743 9.1956C57.7743 11.4635 56.7166 13.0699 54.9395 13.7496L59.079 17.9256H55.6772V17.9272Z" fill="#085399"/>
<path d="M74.9361 17.9273L72.8754 14.4691H66.3735L67.5075 12.5228H71.7216L68.6596 7.38198L62.423 17.9273H59.6826L67.582 4.77425C67.8655 4.30178 68.2253 4.00006 68.7541 4.00006C69.283 4.00006 69.6228 4.30178 69.9063 4.77425L77.824 17.9273H74.9361Z" fill="#085399"/>
<path d="M81.5504 17.9272V6.58787H76.335V4.18738H89.1663V6.58787H83.9509V17.9272H81.5504Z" fill="#085399"/>
<path d="M91.0361 17.9272V4.18738H103.302V6.58787H93.4184V15.5267H103.322V17.9272H91.0361ZM95.1757 11.9542V9.93166H102.792V11.9542H95.1757Z" fill="#085399"/>
<path d="M20.0347 4.18738V17.9272H22.4352L22.4219 4.18738H20.0347Z" fill="#2BBFF0"/>
<path d="M70.9554 24.1357H0.00146484V24.9646H70.9554V24.1357Z" fill="#085399"/>
<path d="M76.1532 27.9818C75.8018 27.9818 75.5332 27.705 75.5332 27.3535C75.5332 27.0021 75.8018 26.7252 76.1532 26.7252C76.5146 26.7252 76.7915 27.0021 76.7915 27.3535C76.7915 27.7033 76.5146 27.9818 76.1532 27.9818Z" fill="#2BBFF0"/>
<path d="M80.6109 27.9072C78.7343 27.9072 77.3467 26.4268 77.3467 24.4756C77.3467 22.4961 78.7343 21.1832 80.6109 21.1832H84.2547V22.3569H80.6109C79.409 22.3569 78.5204 23.2538 78.5204 24.5303C78.5204 25.7968 79.399 26.7318 80.6109 26.7318H84.2547V27.9056H80.6109V27.9072Z" fill="#2BBFF0"/>
<path d="M88.2764 27.9072C86.3998 27.9072 85.0122 26.4268 85.0122 24.4756C85.0122 22.4961 86.3998 21.1832 88.2764 21.1832H89.9127C91.854 21.1832 93.2051 22.5243 93.2051 24.4756C93.2051 26.4268 91.8274 27.9072 89.9127 27.9072H88.2764ZM89.9127 26.7318C91.151 26.7318 92.0297 25.7985 92.0297 24.5303C92.0297 23.2637 91.151 22.3569 89.9127 22.3569H88.2764C87.0745 22.3569 86.1859 23.2538 86.1859 24.5303C86.1859 25.7968 87.0646 26.7318 88.2764 26.7318H89.9127Z" fill="#2BBFF0"/>
<path d="M102.155 27.9072L100.87 23.1808L98.9657 27.5558C98.8364 27.8426 98.6507 28.0001 98.3639 28.0001C98.087 28.0001 97.8831 27.8426 97.7621 27.5558L95.8656 23.1808L94.5808 27.9072H93.4253L95.1544 21.581C95.2373 21.2578 95.4229 21.1003 95.7363 21.1003C95.9866 21.1003 96.217 21.2395 96.3281 21.4982L98.4004 26.2511L100.473 21.4982C100.584 21.2395 100.788 21.1003 101.036 21.1003C101.323 21.1003 101.507 21.2578 101.6 21.581L103.321 27.9072H102.155Z" fill="#2BBFF0"/>
</g>
</g>
<defs>
<clipPath id="clip0_7_17413">
<rect width="103.323" height="32" fill="white"/>
</clipPath>
<clipPath id="clip1_7_17413">
<rect width="103.323" height="24" fill="white" transform="translate(0 4)"/>
</clipPath>
</defs>
</svg>
