<svg width="106" height="48" viewBox="0 0 106 48" fill="none" xmlns="http://www.w3.org/2000/svg">
<g clip-path="url(#clip0_7_17395)">
<g clip-path="url(#clip1_7_17395)">
<path d="M15.5283 22.155L13.434 18.6403H6.82573L7.97821 16.6622H12.2613L9.14923 11.4372L2.81056 22.155H0.0253906L8.05404 8.78686C8.34216 8.30666 8.70778 8 9.24527 8C9.78276 8 10.1282 8.30666 10.4163 8.78686L18.4652 22.155H15.5283Z" fill="#2BBFF0"/>
<path d="M38.6354 22.155L35.1004 18.2747H29.8755V16.123H35.6952C37.4425 16.123 38.3658 15.1239 38.3658 13.3193C38.3658 11.5148 37.3666 10.6302 35.6952 10.6302H28.0895V22.155H25.6699V8.19043H35.6969C38.8847 8.19043 40.7685 10.1685 40.7685 13.2806C40.7685 15.5855 39.6935 17.2182 37.8873 17.909L42.0945 22.1534H38.6354V22.155Z" fill="#085399"/>
<path d="M56.6134 22.155L53.0784 18.2747H47.8535V16.123H53.6732C55.4205 16.123 56.3438 15.1239 56.3438 13.3193C56.3438 11.5148 55.3447 10.6302 53.6732 10.6302H46.0675V22.155H43.6479V8.19043H53.6749C56.8628 8.19043 58.7448 10.1685 58.7448 13.2806C58.7448 15.5855 57.6699 17.2182 55.8636 17.909L60.0709 22.1534H56.6134V22.155Z" fill="#085399"/>
<path d="M76.187 22.155L74.0927 18.6403H67.4844L68.6369 16.6622H72.92L69.8079 11.4372L63.4693 22.155H60.6841L68.7127 8.78686C69.0008 8.30666 69.3665 8 69.904 8C70.4415 8 70.7869 8.30666 71.075 8.78686L79.1222 22.155H76.187Z" fill="#085399"/>
<path d="M82.9099 22.155V10.6302H77.6074V8.19043H90.6487V10.6302H85.3479V22.155H82.9099Z" fill="#085399"/>
<path d="M92.5513 22.155V8.19043H105.018V10.6302H94.9725V19.7153H105.038V22.155H92.5513ZM96.7585 16.086V14.0304H104.499V16.086H96.7585Z" fill="#085399"/>
<path d="M20.3877 8.19208V22.155H22.8275L22.814 8.19208H20.3877Z" fill="#2BBFF0"/>
<path d="M72.1419 28.4667H0.0273438V29.3092H72.1419V28.4667Z" fill="#085399"/>
<path d="M77.4236 32.3741C77.0664 32.3741 76.7935 32.0927 76.7935 31.7355C76.7935 31.3783 77.0664 31.0969 77.4236 31.0969C77.7909 31.0969 78.0723 31.3783 78.0723 31.7355C78.0723 32.0927 77.7909 32.3741 77.4236 32.3741Z" fill="#2BBFF0"/>
<path d="M81.9548 32.2999C80.0475 32.2999 78.6372 30.7953 78.6372 28.8121C78.6372 26.8003 80.0475 25.4659 81.9548 25.4659H85.6583V26.6588H81.9548C80.7332 26.6588 79.8301 27.5703 79.8301 28.8677C79.8301 30.155 80.7231 31.1053 81.9548 31.1053H85.6583V32.2982H81.9548V32.2999Z" fill="#2BBFF0"/>
<path d="M89.7458 32.2999C87.8385 32.2999 86.4282 30.7953 86.4282 28.8121C86.4282 26.8003 87.8385 25.4659 89.7458 25.4659H91.4088C93.3819 25.4659 94.7551 26.829 94.7551 28.8121C94.7551 30.7953 93.3549 32.2999 91.4088 32.2999H89.7458ZM91.4088 31.1053C92.6692 31.1053 93.5605 30.1567 93.5605 28.8677C93.5605 27.5788 92.6675 26.6588 91.4088 26.6588H89.7458C88.5243 26.6588 87.6211 27.5703 87.6211 28.8677C87.6211 30.155 88.5142 31.1053 89.7458 31.1053H91.4088Z" fill="#2BBFF0"/>
<path d="M103.852 32.2999L102.546 27.4962L100.61 31.9427C100.479 32.2342 100.29 32.3943 99.9984 32.3943C99.717 32.3943 99.5097 32.2342 99.3868 31.9427L97.4592 27.4962L96.1534 32.2999H94.979L96.7364 25.8703C96.8206 25.5417 97.0093 25.3817 97.3278 25.3817C97.5822 25.3817 97.8164 25.5232 97.9293 25.786L100.035 30.6167L102.142 25.786C102.254 25.5232 102.462 25.3817 102.714 25.3817C103.006 25.3817 103.193 25.5417 103.287 25.8703L105.036 32.2999H103.852Z" fill="#2BBFF0"/>
<path d="M0 35.7389C0.363943 35.6951 0.840774 35.6563 1.44735 35.6563C2.19208 35.6563 2.73799 35.7827 3.08509 36.0085C3.40522 36.209 3.59562 36.519 3.59562 36.8964C3.59562 37.2806 3.43892 37.5822 3.14575 37.8029C2.74642 38.1112 2.09773 38.2679 1.36142 38.2679C1.13564 38.2679 0.928392 38.2612 0.754845 38.2309V39.931H0.00168528V35.7389H0ZM0.753159 37.7844C0.918282 37.8164 1.12553 37.8282 1.37658 37.8282C2.28644 37.8282 2.84078 37.5064 2.84078 36.9217C2.84078 36.3623 2.29486 36.091 1.4642 36.091C1.13564 36.091 0.884583 36.1096 0.753159 36.1348V37.7844Z" fill="#085399"/>
<path d="M5.69186 38.5965L5.08529 39.9309H4.30518L6.28833 35.6883H7.19818L9.18976 39.9309H8.38437L7.76095 38.5965H5.69186ZM7.60593 38.1685L7.03475 36.9469C6.90501 36.6706 6.81739 36.4179 6.73146 36.1719H6.71461C6.62868 36.4229 6.53264 36.6824 6.41975 36.9402L5.84856 38.1668H7.60593V38.1685Z" fill="#085399"/>
<path d="M14.8648 39.7928C14.5868 39.8939 14.0324 39.995 13.3231 39.995C11.6769 39.995 10.4385 39.2401 10.4385 37.8484C10.4385 36.5207 11.6769 35.6209 13.4882 35.6209C14.2161 35.6209 14.6744 35.7338 14.8749 35.8096L14.6929 36.2561C14.4065 36.155 14.0004 36.0792 13.5151 36.0792C12.147 36.0792 11.2371 36.7144 11.2371 37.8298C11.2371 38.8677 12.0594 39.535 13.4798 39.535C13.9381 39.535 14.4065 39.4659 14.7097 39.3581L14.8648 39.7928Z" fill="#085399"/>
<path d="M19.6985 37.9427H17.4289V39.4726H19.958V39.9326H16.6758V35.69H19.8283V36.15H17.4289V37.4912H19.6985V37.9427Z" fill="#085399"/>
<path d="M28.9504 39.7423C28.6134 39.8299 27.9462 39.9748 27.1576 39.9748C26.2747 39.9748 25.5468 39.8113 24.974 39.4154C24.4719 39.0632 24.1602 38.4971 24.1602 37.8349C24.1686 36.5696 25.3649 35.6445 27.3211 35.6445C27.9967 35.6445 28.5258 35.7507 28.7768 35.84L28.5949 36.2865C28.2832 36.1854 27.8939 36.1045 27.3042 36.1045C25.8838 36.1045 24.9571 36.7465 24.9571 37.8097C24.9571 38.8863 25.8484 39.5215 27.2099 39.5215C27.7035 39.5215 28.0422 39.471 28.2141 39.4086V38.1433H27.0279V37.7035H28.9504V39.7423Z" fill="#085399"/>
<path d="M30.9707 35.6883H31.7239V39.4709H34.2192V39.9309H30.9707V35.6883Z" fill="#085399"/>
<path d="M40.5764 37.7658C40.5764 39.2267 39.3548 40.0001 37.8653 40.0001C36.3236 40.0001 35.2402 39.1323 35.2402 37.8467C35.2402 36.5005 36.3927 35.6193 37.9513 35.6193C39.5452 35.6193 40.5764 36.5072 40.5764 37.7658ZM36.0456 37.8349C36.0456 38.7414 36.7213 39.5536 37.9075 39.5536C39.1021 39.5536 39.7777 38.7549 39.7777 37.7911C39.7777 36.947 39.1712 36.0658 37.9159 36.0658C36.669 36.0658 36.0456 36.9032 36.0456 37.8349Z" fill="#085399"/>
<path d="M42.4214 35.7456C42.7499 35.695 43.2706 35.658 43.798 35.658C44.5511 35.658 45.0364 35.7523 45.4003 35.9663C45.7036 36.1297 45.8856 36.3808 45.8856 36.7161C45.8856 37.1255 45.5132 37.4844 44.8982 37.6478V37.6613C45.4526 37.7624 46.1029 38.096 46.1029 38.7245C46.1029 39.0901 45.9041 39.3665 45.6093 39.5737C45.2015 39.845 44.5444 39.9697 43.5907 39.9697C43.0718 39.9697 42.6724 39.9444 42.4214 39.9191V35.7456ZM43.1762 37.4827H43.8603C44.6573 37.4827 45.1257 37.1811 45.1257 36.7717C45.1257 36.2746 44.6067 36.0792 43.8435 36.0792C43.4964 36.0792 43.2975 36.0977 43.1762 36.1163V37.4827ZM43.1762 39.5147C43.3228 39.5333 43.5402 39.54 43.8081 39.54C44.5882 39.54 45.306 39.3328 45.306 38.7161C45.306 38.1365 44.6219 37.8972 43.7997 37.8972H43.1762V39.5147Z" fill="#085399"/>
<path d="M48.9287 38.5965L48.3221 39.9309H47.542L49.5251 35.6883H50.435L52.4266 39.9309H51.6212L50.9978 38.5965H48.9287ZM50.8427 38.1685L50.2716 36.9469C50.1418 36.6706 50.0542 36.4179 49.9683 36.1719H49.9514C49.8655 36.4229 49.7695 36.6824 49.6566 36.9402L49.0854 38.1668H50.8427V38.1685Z" fill="#085399"/>
<path d="M54.1519 35.6883H54.905V39.4709H57.4004V39.9309H54.1519V35.6883Z" fill="#085399"/>
<path d="M61.8096 35.6883H62.5627V39.4709H65.0581V39.9309H61.8096V35.6883Z" fill="#085399"/>
<path d="M71.4152 37.7658C71.4152 39.2267 70.1937 40.0001 68.7042 40.0001C67.1625 40.0001 66.0791 39.1323 66.0791 37.8467C66.0791 36.5005 67.2316 35.6193 68.7901 35.6193C70.3858 35.6193 71.4152 36.5072 71.4152 37.7658ZM66.8862 37.8349C66.8862 38.7414 67.5618 39.5536 68.748 39.5536C69.9426 39.5536 70.6183 38.7549 70.6183 37.7911C70.6183 36.947 70.0117 36.0658 68.7564 36.0658C67.5096 36.0658 66.8862 36.9032 66.8862 37.8349Z" fill="#085399"/>
<path d="M77.7053 39.7423C77.3683 39.8299 76.7011 39.9748 75.9125 39.9748C75.0296 39.9748 74.3017 39.8113 73.7289 39.4154C73.2268 39.0632 72.915 38.4971 72.915 37.8349C72.9235 36.5696 74.1198 35.6445 76.076 35.6445C76.7516 35.6445 77.2807 35.7507 77.5317 35.84L77.3498 36.2865C77.038 36.1854 76.6488 36.1045 76.0591 36.1045C74.6387 36.1045 73.712 36.7465 73.712 37.8097C73.712 38.8863 74.605 39.5215 75.9647 39.5215C76.4584 39.5215 76.7954 39.471 76.969 39.4086V38.1433H75.7828V37.7035H77.7053V39.7423Z" fill="#085399"/>
<path d="M80.4788 35.6883V39.9309H79.7256V35.6883H80.4788Z" fill="#085399"/>
<path d="M82.5579 39.2637C82.8965 39.4154 83.3885 39.54 83.9092 39.54C84.6809 39.54 85.1307 39.2435 85.1307 38.8155C85.1307 38.4196 84.819 38.1921 84.0305 37.9714C83.0785 37.7254 82.4888 37.3665 82.4888 36.77C82.4888 36.1096 83.2419 35.6176 84.3776 35.6176C84.9757 35.6176 85.4087 35.7187 85.6682 35.8248L85.461 36.2713C85.2706 36.1955 84.8814 36.0691 84.3523 36.0691C83.5553 36.0691 83.252 36.4145 83.252 36.7043C83.252 37.1003 83.6076 37.2957 84.4129 37.5232C85.4003 37.7995 85.9024 38.1466 85.9024 38.77C85.9024 39.4238 85.2352 39.9916 83.8586 39.9916C83.2959 39.9916 82.6809 39.872 82.3691 39.7203L82.5579 39.2637Z" fill="#085399"/>
<path d="M88.9068 36.155H87.1309V35.69H91.4527V36.155H89.6683V39.9309H88.9068V36.155Z" fill="#085399"/>
<path d="M93.7239 35.6883V39.9309H92.9707V35.6883H93.7239Z" fill="#085399"/>
<path d="M99.9863 39.7928C99.71 39.8939 99.1557 39.995 98.4446 39.995C96.7985 39.995 95.5601 39.2401 95.5601 37.8484C95.5601 36.5207 96.7985 35.6209 98.6081 35.6209C99.336 35.6209 99.7943 35.7338 99.9948 35.8096L99.8128 36.2561C99.5264 36.155 99.1203 36.0792 98.635 36.0792C97.2669 36.0792 96.357 36.7144 96.357 37.8298C96.357 38.8677 97.1793 39.535 98.6013 39.535C99.0596 39.535 99.528 39.4659 99.8313 39.3581L99.9863 39.7928Z" fill="#085399"/>
<path d="M101.694 39.2637C102.032 39.4154 102.524 39.54 103.045 39.54C103.817 39.54 104.266 39.2435 104.266 38.8155C104.266 38.4196 103.955 38.1921 103.166 37.9714C102.214 37.7254 101.625 37.3665 101.625 36.77C101.625 36.1096 102.378 35.6176 103.513 35.6176C104.111 35.6176 104.544 35.7187 104.804 35.8248L104.597 36.2713C104.406 36.1955 104.017 36.0691 103.488 36.0691C102.691 36.0691 102.388 36.4145 102.388 36.7043C102.388 37.1003 102.743 37.2957 103.549 37.5232C104.536 37.7995 105.038 38.1466 105.038 38.77C105.038 39.4238 104.371 39.9916 102.994 39.9916C102.432 39.9916 101.817 39.872 101.505 39.7203L101.694 39.2637Z" fill="#085399"/>
</g>
</g>
<defs>
<clipPath id="clip0_7_17395">
<rect width="105.038" height="48" fill="white"/>
</clipPath>
<clipPath id="clip1_7_17395">
<rect width="105.038" height="32" fill="white" transform="translate(0 8)"/>
</clipPath>
</defs>
</svg>
